SplineFontDB: 3.0
FontName: Anton
FullName: Anton
FamilyName: Anton
Weight: Book
Copyright: Copyright (c) 2011 by vernon adams. All rights reserved.
Version: 1.000
ItalicAngle: 0
UnderlinePosition: -205
UnderlineWidth: 102
Ascent: 1638
Descent: 410
sfntRevision: 0x00010000
LayerCount: 2
Layer: 0 1 "Back"  1
Layer: 1 1 "Fore"  0
XUID: [1021 759 1887733602 3451478]
FSType: 4
OS2Version: 3
OS2_WeightWidthSlopeOnly: 0
OS2_UseTypoMetrics: 1
CreationTime: 1297678009
ModificationTime: 1310031890
PfmFamily: 33
TTFWeight: 400
TTFWidth: 5
LineGap: 0
VLineGap: 0
Panose: 2 0 5 3 0 0 0 0 0 0
OS2TypoAscent: 693
OS2TypoAOffset: 1
OS2TypoDescent: -264
OS2TypoDOffset: 1
OS2TypoLinegap: 0
OS2WinAscent: 0
OS2WinAOffset: 1
OS2WinDescent: 0
OS2WinDOffset: 1
HheadAscent: 0
HheadAOffset: 1
HheadDescent: 0
HheadDOffset: 1
OS2SubXSize: 1434
OS2SubYSize: 1331
OS2SubXOff: 0
OS2SubYOff: 287
OS2SupXSize: 1434
OS2SupYSize: 1331
OS2SupXOff: 0
OS2SupYOff: 977
OS2StrikeYSize: 102
OS2StrikeYPos: 512
OS2Vendor: 'newt'
OS2CodePages: 20000093.00000000
OS2UnicodeRanges: a00000ef.5000204b.00000000.00000000
Lookup: 258 0 0 "'kern' Horizontal Kerning in Latin lookup 0"  {"'kern' Horizontal Kerning in Latin lookup 0 per glyph data 0"  "'kern' Horizontal Kerning in Latin lookup 0 kerning class 1"  } ['kern' ('latn' <'dflt' > ) ]
MarkAttachClasses: 1
DEI: 91125
KernClass2: 53+ 45 "'kern' Horizontal Kerning in Latin lookup 0 kerning class 1" 
 9 ampersand
 20 quotedbl quotesingle
 9 parenleft
 8 asterisk
 5 comma
 20 hyphen endash emdash
 6 period
 5 slash
 5 seven
 11 bracketleft
 9 backslash
 9 braceleft
 10 registered
 22 quoteleft quotedblleft
 24 quoteright quotedblright
 27 quotesinglbase quotedblbase
 27 guillemotleft guilsinglleft
 29 guillemotright guilsinglright
 50 A Agrave Aacute Acircumflex Atilde Adieresis Aring
 1 B
 10 C Ccedilla
 43 E AE Egrave Eacute Ecircumflex Edieresis OE
 1 F
 1 G
 1 K
 8 L Lslash
 55 D O Q Ograve Oacute Ocircumflex Otilde Odieresis Oslash
 1 P
 21 S Scaron Scommaaccent

StartChar: exclam
Encoding: 33 33 4
Width: 508
Flags: W
LayerCount: 2
Fore
SplineSet
75 1593 m 1,0,-1
 433 1593 l 1,1,-1
 363 439 l 1,2,-1
 145 439 l 1,3,-1
 75 1593 l 1,0,-1
75 1 m 1,4,-1
 75 299 l 1,5,-1
 433 299 l 1,6,-1
 433 1 l 1,7,-1
 75 1 l 1,4,-1
EndSplineSet
EndChar

StartChar: quotedbl
Encoding: 34 34 5
Width: 863
Flags: W
LayerCount: 2
Fore
SplineSet
307 957 m 1,0,-1
 131 957 l 1,1,-1
 31 1593 l 1,2,-1
 383 1593 l 1,3,-1
 307 957 l 1,0,-1
747 957 m 1,4,-1
 571 957 l 1,5,-1
 471 1593 l 1,6,-1
 823 1593 l 1,7,-1
 747 957 l 1,4,-1
EndSplineSet
EndChar

StartChar: numbersign
Encoding: 35 35 6
Width: 1150
Flags: W
LayerCount: 2
Fore
SplineSet
115 886 m 1,0,-1
 115 1118 l 1,1,-1
 270 1118 l 1,2,-1
 363 1593 l 1,3,-1
 647 1593 l 1,4,-1
 554 1118 l 1,5,-1
 720 1118 l 1,6,-1
 813 1593 l 1,7,-1
 1097 1593 l 1,8,-1
 1004 1118 l 1,9,-1
 1097 1118 l 1,10,-1
 1097 886 l 1,11,-1
 959 886 l 1,12,-1
 931 741 l 1,13,-1
 1039 741 l 1,14,-1
 1039 509 l 1,15,-1
 885 509 l 1,16,-1
 786 0 l 1,17,-1
 503 0 l 1,18,-1
 602 509 l 1,19,-1
 435 509 l 1,20,-1
 336 0 l 1,21,-1
 53 0 l 1,22,-1
 152 509 l 1,23,-1
 57 509 l 1,24,-1
 57 741 l 1,25,-1
 197 741 l 1,26,-1
 225 886 l 1,27,-1
 115 886 l 1,0,-1
509 886 m 1,28,-1
 481 741 l 1,29,-1
 647 741 l 1,30,-1
 675 886 l 1,31,-1
 509 886 l 1,28,-1
EndSplineSet
EndChar

StartChar: dollar
Encoding: 36 36 7
Width: 982
Flags: W
LayerCount: 2
Fore
SplineSet
402 -113 m 1,0,-1
 402 36 l 1,1,2
 214 58 214 58 133 168.5 c 128,-1,3
 52 279 52 279 52 488 c 2,4,-1
 52 543 l 1,5,-1
 400 543 l 1,6,-1
 400 501 l 2,7,8
 400 347 400 347 494 347 c 0,9,10
 533 347 533 347 555.5 377 c 128,-1,11
 578 407 578 407 578 456 c 0,12,13
 578 491 578 491 516 560 c 1,14,-1
 228 849 l 2,15,16
 70 1007 70 1007 70 1192 c 0,17,18
 70 1327 70 1327 159.5 1429 c 128,-1,19
 249 1531 249 1531 402 1558 c 1,20,-1
 402 1679 l 1,21,-1
 575 1679 l 1,22,-1
 575 1561 l 1,23,24
 741 1540 741 1540 832.5 1423.5 c 128,-1,25
 924 1307 924 1307 924 1105 c 1,26,-1
 567 1105 l 1,27,-1
 565 1190 l 1,28,29
 563 1218 563 1218 538.5 1238.5 c 128,-1,30
 514 1259 514 1259 483 1259 c 0,31,32
 448 1259 448 1259 423.5 1237.5 c 128,-1,33
 399 1216 399 1216 399 1182 c 0,34,35
 399 1132 399 1132 498 1034 c 2,36,-1
 778 758 l 2,37,38
 852 685 852 685 890.5 594.5 c 128,-1,39
 929 504 929 504 929 413 c 0,40,41
 929 319 929 319 890 239 c 128,-1,42
 851 159 851 159 769.5 103 c 128,-1,43
 688 47 688 47 575 34 c 1,44,-1
 575 -113 l 1,45,-1
 402 -113 l 1,0,-1
EndSplineSet
EndChar

StartChar: percent
Encoding: 37 37 8
Width: 2186
Flags: W
LayerCount: 2
Fore
SplineSet
1741 -18 m 0,0,1
 1666 -18 1666 -18 1598.5 6 c 128,-1,2
 1531 30 1531 30 1474 78 c 128,-1,3
 1417 126 1417 126 1383.5 209.5 c 128,-1,4
 1350 293 1350 293 1350 402 c 2,5,-1
 1350 765 l 2,6,7
 1350 974 1350 974 1450 1078.5 c 128,-1,8
 1550 1183 1550 1183 1741 1183 c 128,-1,9
 1932 1183 1932 1183 2032.5 1078.5 c 128,-1,10
 2133 974 2133 974 2133 765 c 2,11,-1
 2133 402 l 2,12,13
 2133 293 2133 293 2099.5 209.5 c 128,-1,14
 2066 126 2066 126 2009 78 c 128,-1,15
 1952 30 1952 30 1884.5 6 c 128,-1,16
 1817 -18 1817 -18 1741 -18 c 0,0,1
1834 343 m 2,17,-1
 1834 829 l 2,18,19
 1834 852 1834 852 1833.5 864 c 128,-1,20
 1833 876 1833 876 1828 896.5 c 128,-1,21
 1823 917 1823 917 1814 928 c 128,-1,22
 1805 939 1805 939 1786.5 947.5 c 128,-1,23
 1768 956 1768 956 1741 956 c 0,24,25
 1715 956 1715 956 1696.5 947.5 c 128,-1,26
 1678 939 1678 939 1668.5 928 c 128,-1,27
 1659 917 1659 917 1654 897 c 128,-1,28
 1649 877 1649 877 1648.5 864 c 128,-1,29
 1648 851 1648 851 1648 829 c 2,30,-1
 1648 343 l 2,31,32
 1648 296 1648 296 1677.5 270 c 128,-1,33
 1707 244 1707 244 1741 244 c 128,-1,34
 1775 244 1775 244 1804.5 270 c 128,-1,35
 1834 296 1834 296 1834 343 c 2,17,-1
994 0 m 1,36,-1
 671 0 l 1,37,-1
 1211 1767 l 1,38,-1
 1535 1767 l 1,39,-1
 994 0 l 1,36,-1
444 528 m 0,40,41
 369 528 369 528 301.5 552 c 128,-1,42
 234 576 234 576 177 624 c 128,-1,43
 120 672 120 672 86.5 755.5 c 128,-1,44
 53 839 53 839 53 948 c 2,45,-1
 53 1311 l 2,46,47
 53 1520 53 1520 153 1624.5 c 128,-1,48
 253 1729 253 1729 444 1729 c 128,-1,49
 635 1729 635 1729 735.5 1624.5 c 128,-1,50
 836 1520 836 1520 836 1311 c 2,51,-1
 836 948 l 2,52,53
 836 839 836 839 802.5 755.5 c 128,-1,54
 769 672 769 672 712 624 c 128,-1,55
 655 576 655 576 587.5 552 c 128,-1,56
 520 528 520 528 444 528 c 0,40,41
537 889 m 2,57,-1
 537 1375 l 2,58,59
 537 1398 537 1398 536.5 1410 c 128,-1,60
 536 1422 536 1422 531 1442.5 c 128,-1,61
 526 1463 526 1463 517 1474 c 128,-1,62
 508 1485 508 1485 489.5 1493.5 c 128,-1,63
 471 1502 471 1502 444 1502 c 0,64,65
 418 1502 418 1502 399.5 1493.5 c 128,-1,66
 381 1485 381 1485 371.5 1474 c 128,-1,67
 362 1463 362 1463 357 1443 c 128,-1,68
 352 1423 352 1423 351.5 1410 c 128,-1,69
 351 1397 351 1397 351 1375 c 2,70,-1
 351 889 l 2,71,72
 351 842 351 842 380.5 816 c 128,-1,73
 410 790 410 790 444 790 c 128,-1,74
 478 790 478 790 507.5 816 c 128,-1,75
 537 842 537 842 537 889 c 2,57,-1
EndSplineSet
EndChar

StartChar: ampersand
Encoding: 38 38 9
Width: 1010
Flags: W
LayerCount: 2
Fore
SplineSet
30 386 m 0,0,1
 30 432 30 432 31 460 c 128,-1,2
 32 488 32 488 36.5 534 c 128,-1,3
 41 580 41 580 50 613 c 128,-1,4
 59 646 59 646 76.5 690 c 128,-1,5
 94 734 94 734 118.5 770 c 128,-1,6
 143 806 143 806 181 845.5 c 128,-1,7
 219 885 219 885 268 921 c 1,8,9
 225 1006 225 1006 196.5 1098.5 c 128,-1,10
 168 1191 168 1191 168 1262 c 0,11,12
 168 1416 168 1416 268 1499 c 128,-1,13
 368 1582 368 1582 516 1582 c 0,14,15
 581 1582 581 1582 641 1563.5 c 128,-1,16
 701 1545 701 1545 751 1508.5 c 128,-1,17
 801 1472 801 1472 831 1411 c 128,-1,18
 861 1350 861 1350 861 1273 c 0,19,20
 861 1063 861 1063 626 875 c 1,21,-1
 689 726 l 1,22,23
 748 878 748 878 861 961 c 1,24,-1
 1000 744 l 1,25,26
 883 651 883 651 803 432 c 1,27,-1
 982 0 l 1,28,-1
 642 0 l 1,29,-1
 605 97 l 1,30,31
 560 41 560 41 492 10 c 128,-1,32
 424 -21 424 -21 351 -21 c 0,33,34
 289 -21 289 -21 233 2.5 c 128,-1,35
 177 26 177 26 131 73 c 128,-1,36
 85 120 85 120 57.5 200.5 c 128,-1,37
 30 281 30 281 30 386 c 0,0,1
336 423 m 0,38,39
 336 420 336 420 336 413 c 0,40,41
 336 380 336 380 337 359.5 c 128,-1,42
 338 339 338 339 344 305 c 128,-1,43
 350 271 350 271 366 253 c 128,-1,44
 382 235 382 235 407 235 c 0,45,46
 428 235 428 235 446.5 245.5 c 128,-1,47
 465 256 465 256 475 269 c 128,-1,48
 485 282 485 282 494 299.5 c 128,-1,49
 503 317 503 317 505 323.5 c 128,-1,50
 507 330 507 330 508 334 c 1,51,-1
 386 625 l 1,52,-1
 374 606 l 1,53,54
 361 588 361 588 348.5 537.5 c 128,-1,55
 336 487 336 487 336 423 c 0,38,39
492 1273 m 0,56,57
 492 1219 492 1219 535 1110 c 1,58,-1
 552 1128 l 2,59,60
 570 1147 570 1147 587.5 1188 c 128,-1,61
 605 1229 605 1229 605 1273 c 0,62,63
 605 1336 605 1336 546 1336 c 0,64,65
 521 1336 521 1336 506.5 1317.5 c 128,-1,66
 492 1299 492 1299 492 1273 c 0,56,57
EndSplineSet
EndChar

StartChar: quotesingle
Encoding: 39 39 10
Width: 424
Flags: W
LayerCount: 2
Fore
SplineSet
308 957 m 1,0,-1
 132 957 l 1,1,-1
 32 1593 l 1,2,-1
 384 1593 l 1,3,-1
 308 957 l 1,0,-1
EndSplineSet
EndChar

StartChar: parenleft
Encoding: 40 40 11
Width: 619
Flags: W
LayerCount: 2
Fore
SplineSet
575 268 m 1,0,1
 575 268 575 268 575 -17 c 1,2,3
 504 -14 504 -14 435 7 c 128,-1,4
 366 28 366 28 298 73.5 c 128,-1,5
 230 119 230 119 179 183.5 c 128,-1,6
 128 248 128 248 96 346 c 128,-1,7
 64 444 64 444 64 562 c 2,8,-1
 64 1151 l 2,9,10
 64 1434 64 1434 195 1578 c 128,-1,11
 326 1722 326 1722 575 1729 c 1,12,-1
 575 1462 l 1,13,14
 552 1458 552 1458 532.5 1450.5 c 128,-1,15
 513 1443 513 1443 499.5 1435 c 128,-1,16
 486 1427 486 1427 475.5 1412 c 128,-1,17
 465 1397 465 1397 458 1387.5 c 128,-1,18
 451 1378 451 1378 446.5 1357.5 c 128,-1,19
 442 1337 442 1337 440 1328 c 128,-1,20
 438 1319 438 1319 437 1295 c 128,-1,21
 436 1271 436 1271 436 1264.5 c 128,-1,22
 436 1258 436 1258 436 1233 c 2,23,-1
 436 450 l 2,24,25
 436 375 436 375 475.5 329.5 c 128,-1,26
 515 284 515 284 575 268 c 1,0,1
EndSplineSet
EndChar

StartChar: parenright
Encoding: 41 41 12
Width: 620
Flags: W
LayerCount: 2
Fore
SplineSet
45 268 m 1,0,1
 105 284 105 284 144.5 329.5 c 128,-1,2
 184 375 184 375 184 450 c 2,3,-1
 184 1233 l 2,4,5
 184 1258 184 1258 184 1264.5 c 128,-1,6
 184 1271 184 1271 183 1295 c 128,-1,7
 182 1319 182 1319 180 1328 c 128,-1,8
 178 1337 178 1337 173.5 1357.5 c 128,-1,9
 169 1378 169 1378 162 1387.5 c 128,-1,10
 155 1397 155 1397 144.5 1412 c 128,-1,11
 134 1427 134 1427 120.5 1435 c 128,-1,12
 107 1443 107 1443 87.5 1450.5 c 128,-1,13
 68 1458 68 1458 45 1462 c 1,14,-1
 45 1729 l 1,15,16
 294 1722 294 1722 425 1578 c 128,-1,17
 556 1434 556 1434 556 1151 c 2,18,-1
 556 562 l 2,19,20
 556 444 556 444 524 346 c 128,-1,21
 492 248 492 248 441 183.5 c 128,-1,22
 390 119 390 119 322 73.5 c 128,-1,23
 254 28 254 28 185 7 c 128,-1,24
 116 -14 116 -14 45 -17 c 1,25,-1
 45 268 l 1,0,1
EndSplineSet
EndChar

StartChar: asterisk
Encoding: 42 42 13
Width: 946
Flags: W
LayerCount: 2
Fore
SplineSet
162 1480 m 1,0,-1
 400 1301 l 1,1,-1
 357 1593 l 1,2,-1
 589 1593 l 1,3,-1
 554 1307 l 1,4,-1
 784 1480 l 1,5,-1
 900 1280 l 1,6,-1
 625 1171 l 1,7,-1
 900 1054 l 1,8,-1
 784 854 l 1,9,-1
 553 1036 l 1,10,-1
 589 741 l 1,11,-1
 357 741 l 1,12,-1
 401 1043 l 1,13,-1
 162 854 l 1,14,-1
 46 1054 l 1,15,-1
 320 1171 l 1,16,-1
 46 1280 l 1,17,-1
 162 1480 l 1,0,-1
EndSplineSet
EndChar

StartChar: plus
Encoding: 43 43 14
Width: 752
Flags: W
LayerCount: 2
Fore
SplineSet
52 509 m 1,0,-1
 52 741 l 1,1,-1
 260 741 l 1,2,-1
 260 949 l 1,3,-1
 492 949 l 1,4,-1
 492 741 l 1,5,-1
 700 741 l 1,6,-1
 700 509 l 1,7,-1
 492 509 l 1,8,-1
 492 301 l 1,9,-1
 260 301 l 1,10,-1
 260 509 l 1,11,-1
 52 509 l 1,0,-1
EndSplineSet
EndChar

StartChar: comma
Encoding: 44 44 15
Width: 493
Flags: W
LayerCount: 2
Fore
SplineSet
58 1 m 1,0,-1
 58 299 l 1,1,-1
 432 299 l 1,2,-1
 432 10 l 1,3,-1
 330 -235 l 1,4,-1
 119 -235 l 1,5,-1
 185 1 l 1,6,-1
 58 1 l 1,0,-1
EndSplineSet
EndChar

StartChar: hyphen
Encoding: 45 45 16
Width: 646
Flags: W
LayerCount: 2
Fore
SplineSet
65 509 m 1,0,-1
 65 741 l 1,1,-1
 581 741 l 1,2,-1
 581 509 l 1,3,-1
 65 509 l 1,0,-1
EndSplineSet
EndChar

StartChar: period
Encoding: 46 46 17
Width: 475
Flags: W
LayerCount: 2
Fore
SplineSet
59 1 m 1,0,-1
 59 299 l 1,1,-1
 417 299 l 1,2,-1
 417 1 l 1,3,-1
 59 1 l 1,0,-1
EndSplineSet
EndChar

StartChar: slash
Encoding: 47 47 18
Width: 851
Flags: W
LayerCount: 2
Fore
SplineSet
411 0 m 1,0,-1
 48 0 l 1,1,-1
 458 1767 l 1,2,-1
 822 1767 l 1,3,-1
 411 0 l 1,0,-1
EndSplineSet
EndChar

StartChar: zero
Encoding: 48 48 19
Width: 1074
Flags: W
LayerCount: 2
Fore
SplineSet
71 482 m 2,0,-1
 71 1109 l 2,1,2
 71 1358 71 1358 190 1482.5 c 128,-1,3
 309 1607 309 1607 536 1607 c 0,4,5
 765 1607 765 1607 884 1482.5 c 128,-1,6
 1003 1358 1003 1358 1003 1109 c 2,7,-1
 1003 482 l 2,8,9
 1003 377 1003 377 976.5 291.5 c 128,-1,10
 950 206 950 206 905 149.5 c 128,-1,11
 860 93 860 93 799.5 54.5 c 128,-1,12
 739 16 739 16 673.5 -1 c 128,-1,13
 608 -18 608 -18 537 -18 c 256,14,15
 466 -18 466 -18 400.5 -1 c 128,-1,16
 335 16 335 16 274.5 54.5 c 128,-1,17
 214 93 214 93 169 149.5 c 128,-1,18
 124 206 124 206 97.5 291.5 c 128,-1,19
 71 377 71 377 71 482 c 2,0,-1
624 447 m 2,20,-1
 624 1151 l 2,21,22
 624 1177 624 1177 623.5 1192.5 c 128,-1,23
 623 1208 623 1208 618 1231.5 c 128,-1,24
 613 1255 613 1255 604.5 1268.5 c 128,-1,25
 596 1282 596 1282 579 1292 c 128,-1,26
 562 1302 562 1302 537 1302 c 128,-1,27
 512 1302 512 1302 495 1292 c 128,-1,28
 478 1282 478 1282 469.5 1268.5 c 128,-1,29
 461 1255 461 1255 456 1231.5 c 128,-1,30
 451 1208 451 1208 450.5 1192.5 c 128,-1,31
 450 1177 450 1177 450 1151 c 2,32,-1
 450 447 l 2,33,34
 450 391 450 391 477.5 360.5 c 128,-1,35
 505 330 505 330 537 330 c 128,-1,36
 569 330 569 330 596.5 360.5 c 128,-1,37
 624 391 624 391 624 447 c 2,20,-1
EndSplineSet
EndChar

StartChar: one
Encoding: 49 49 20
Width: 710
Flags: W
LayerCount: 2
Fore
SplineSet
330 1593 m 1,0,-1
 613 1593 l 1,1,-1
 613 0 l 1,2,-1
 240 0 l 1,3,-1
 240 1160 l 1,4,5
 228 1154 228 1154 207.5 1145 c 128,-1,6
 187 1136 187 1136 129.5 1121 c 128,-1,7
 72 1106 72 1106 22 1106 c 1,8,-1
 22 1379 l 1,9,10
 50 1379 50 1379 99 1394 c 128,-1,11
 148 1409 148 1409 201 1435 c 128,-1,12
 254 1461 254 1461 292 1503 c 128,-1,13
 330 1545 330 1545 330 1593 c 1,0,-1
EndSplineSet
EndChar

StartChar: two
Encoding: 50 50 21
Width: 1029
Flags: W
LayerCount: 2
Fore
SplineSet
54 0 m 1,0,-1
 54 82 l 2,1,2
 54 153 54 153 68 229 c 0,3,4
 89 339 89 339 135 431.5 c 128,-1,5
 181 524 181 524 242 606 c 128,-1,6
 303 688 303 688 374.5 763.5 c 128,-1,7
 446 839 446 839 517 914 c 0,8,9
 559 959 559 959 583 1014 c 128,-1,10
 607 1069 607 1069 607 1140 c 0,11,12
 607 1207 607 1207 586.5 1246.5 c 128,-1,13
 566 1286 566 1286 512 1286 c 0,14,15
 424 1286 424 1286 424 1134 c 2,16,-1
 424 985 l 1,17,-1
 54 985 l 1,18,-1
 50 1030 l 1,19,20
 51 1165 51 1165 69.5 1272.5 c 128,-1,21
 88 1380 88 1380 139.5 1454 c 128,-1,22
 191 1528 191 1528 281.5 1567.5 c 128,-1,23
 372 1607 372 1607 517 1607 c 0,24,25
 629 1607 629 1607 715 1574.5 c 128,-1,26
 801 1542 801 1542 859.5 1482 c 128,-1,27
 918 1422 918 1422 948.5 1337 c 128,-1,28
 979 1252 979 1252 979 1146 c 0,29,30
 979 1038 979 1038 942.5 943 c 128,-1,31
 906 848 906 848 849 770 c 1,32,33
 803 705 803 705 754 652.5 c 128,-1,34
 705 600 705 600 657.5 549 c 128,-1,35
 610 498 610 498 566 443.5 c 128,-1,36
 522 389 522 389 487 322 c 1,37,-1
 967 322 l 1,38,-1
 967 0 l 1,39,-1
 54 0 l 1,0,-1
EndSplineSet
EndChar

StartChar: three
Encoding: 51 51 22
Width: 1034
Flags: W
LayerCount: 2
Fore
SplineSet
494 -19 m 0,0,1
 383 -19 383 -19 299.5 5.5 c 128,-1,2
 216 30 216 30 160.5 82.5 c 128,-1,3
 105 135 105 135 77 216 c 128,-1,4
 49 297 49 297 49 410 c 2,5,-1
 49 564 l 1,6,-1
 410 564 l 1,7,-1
 410 409 l 2,8,9
 410 387 410 387 413 366.5 c 128,-1,10
 416 346 416 346 426.5 330.5 c 128,-1,11
 437 315 437 315 457 306 c 128,-1,12
 477 297 477 297 511 297 c 0,13,14
 536 297 536 297 553 303.5 c 128,-1,15
 570 310 570 310 581 329 c 128,-1,16
 592 348 592 348 597 383 c 128,-1,17
 602 418 602 418 602 476 c 0,18,19
 602 521 602 521 594.5 562.5 c 128,-1,20
 587 604 587 604 570 635 c 128,-1,21
 553 666 553 666 524 684.5 c 128,-1,22
 495 703 495 703 452 703 c 0,23,24
 441 703 441 703 432.5 702.5 c 128,-1,25
 424 702 424 702 418 701 c 1,26,-1
 418 1008 l 1,27,28
 507 1008 507 1008 556 1046 c 128,-1,29
 605 1084 605 1084 605 1178 c 0,30,31
 605 1293 605 1293 519 1293 c 0,32,33
 482 1293 482 1293 462.5 1282 c 128,-1,34
 443 1271 443 1271 434.5 1254 c 128,-1,35
 426 1237 426 1237 425 1216 c 128,-1,36
 424 1195 424 1195 424 1174 c 2,37,-1
 424 1122 l 1,38,-1
 60 1122 l 1,39,-1
 58 1182 l 1,40,41
 57 1297 57 1297 87 1378 c 128,-1,42
 117 1459 117 1459 175.5 1510 c 128,-1,43
 234 1561 234 1561 320 1584 c 128,-1,44
 406 1607 406 1607 517 1607 c 0,45,46
 624 1607 624 1607 708 1581.5 c 128,-1,47
 792 1556 792 1556 849.5 1503.5 c 128,-1,48
 907 1451 907 1451 937 1371 c 128,-1,49
 967 1291 967 1291 967 1182 c 0,50,51
 967 1127 967 1127 960.5 1076.5 c 128,-1,52
 954 1026 954 1026 936 984 c 128,-1,53
 918 942 918 942 886 909.5 c 128,-1,54
 854 877 854 877 802 859 c 1,55,56
 869 827 869 827 904 784.5 c 128,-1,57
 939 742 939 742 954 691 c 128,-1,58
 969 640 969 640 970 583 c 128,-1,59
 971 526 971 526 971 465 c 0,60,61
 971 351 971 351 945.5 261 c 128,-1,62
 920 171 920 171 863 109 c 128,-1,63
 806 47 806 47 715 14 c 128,-1,64
 624 -19 624 -19 494 -19 c 0,0,1
EndSplineSet
EndChar

StartChar: four
Encoding: 52 52 23
Width: 1066
Flags: W
LayerCount: 2
Fore
SplineSet
1009 575 m 1,0,-1
 1009 270 l 1,1,-1
 939 270 l 1,2,-1
 939 -1 l 1,3,-1
 570 -1 l 1,4,-1
 570 270 l 1,5,-1
 28 270 l 1,6,-1
 28 537 l 1,7,-1
 381 1592 l 1,8,-1
 939 1592 l 1,9,-1
 939 575 l 1,10,-1
 1009 575 l 1,0,-1
372 575 m 1,11,-1
 570 575 l 1,12,-1
 570 1299 l 1,13,-1
 372 575 l 1,11,-1
EndSplineSet
EndChar

StartChar: five
Encoding: 53 53 24
Width: 1039
Flags: W
LayerCount: 2
Fore
SplineSet
536 -24 m 0,0,1
 431 -24 431 -24 343 -0.5 c 128,-1,2
 255 23 255 23 191.5 72 c 128,-1,3
 128 121 128 121 92 196 c 128,-1,4
 56 271 56 271 56 373 c 2,5,-1
 56 557 l 1,6,-1
 422 557 l 1,7,-1
 422 471 l 2,8,9
 422 407 422 407 431.5 371.5 c 128,-1,10
 441 336 441 336 455 319 c 128,-1,11
 469 302 469 302 485.5 298.5 c 128,-1,12
 502 295 502 295 516 295 c 0,13,14
 570 295 570 295 589.5 330 c 128,-1,15
 609 365 609 365 609 428 c 2,16,-1
 609 644 l 2,17,18
 609 674 609 674 606.5 702.5 c 128,-1,19
 604 731 604 731 594.5 754.5 c 128,-1,20
 585 778 585 778 567 793.5 c 128,-1,21
 549 809 549 809 518 812 c 1,22,23
 418 812 418 812 418 681 c 1,24,-1
 95 681 l 1,25,-1
 95 1593 l 1,26,-1
 934 1593 l 1,27,-1
 934 1260 l 1,28,-1
 429 1260 l 1,29,-1
 430 1048 l 1,30,31
 483 1097 483 1097 604 1097 c 0,32,33
 681 1097 681 1097 739.5 1074.5 c 128,-1,34
 798 1052 798 1052 840.5 1014 c 128,-1,35
 883 976 883 976 911.5 925 c 128,-1,36
 940 874 940 874 956.5 816.5 c 128,-1,37
 973 759 973 759 980 698 c 128,-1,38
 987 637 987 637 987 579 c 0,39,40
 987 502 987 502 980 427.5 c 128,-1,41
 973 353 973 353 954.5 286 c 128,-1,42
 936 219 936 219 903.5 162 c 128,-1,43
 871 105 871 105 821 64 c 128,-1,44
 771 23 771 23 701 -0.5 c 128,-1,45
 631 -24 631 -24 536 -24 c 0,0,1
EndSplineSet
EndChar

StartChar: six
Encoding: 54 54 25
Width: 1067
Flags: W
LayerCount: 2
Fore
SplineSet
547 -21 m 0,0,1
 458 -21 458 -21 387 -6 c 128,-1,2
 316 9 316 9 266.5 33.5 c 128,-1,3
 217 58 217 58 181.5 98.5 c 128,-1,4
 146 139 146 139 125 182 c 128,-1,5
 104 225 104 225 92 284.5 c 128,-1,6
 80 344 80 344 76 399.5 c 128,-1,7
 72 455 72 455 72 527 c 2,8,-1
 72 874 l 2,9,10
 72 875 72 875 72 878 c 0,11,12
 72 983 72 983 73 1036 c 128,-1,13
 74 1089 74 1089 83 1180.5 c 128,-1,14
 92 1272 92 1272 110 1321 c 128,-1,15
 128 1370 128 1370 163 1433.5 c 128,-1,16
 198 1497 198 1497 248.5 1528.5 c 128,-1,17
 299 1560 299 1560 377.5 1583.5 c 128,-1,18
 456 1607 456 1607 557 1607 c 0,19,20
 632 1607 632 1607 709.5 1586 c 128,-1,21
 787 1565 787 1565 855 1525 c 128,-1,22
 923 1485 923 1485 965.5 1419 c 128,-1,23
 1008 1353 1008 1353 1008 1272 c 2,24,-1
 1008 1087 l 1,25,-1
 639 1087 l 1,26,27
 639 1094 639 1094 639 1122.5 c 128,-1,28
 639 1151 639 1151 638.5 1170.5 c 128,-1,29
 638 1190 638 1190 633.5 1218 c 128,-1,30
 629 1246 629 1246 620 1263.5 c 128,-1,31
 611 1281 611 1281 593.5 1294 c 128,-1,32
 576 1307 576 1307 551 1307 c 0,33,34
 521 1307 521 1307 500 1297.5 c 128,-1,35
 479 1288 479 1288 468.5 1276 c 128,-1,36
 458 1264 458 1264 452.5 1244 c 128,-1,37
 447 1224 447 1224 446.5 1213 c 128,-1,38
 446 1202 446 1202 446 1184 c 2,39,-1
 446 895 l 1,40,-1
 452 906 l 2,41,42
 458 916 458 916 472 931 c 0,43,44
 487 946 487 946 508 960.5 c 128,-1,45
 529 975 529 975 565 985.5 c 128,-1,46
 601 996 601 996 643 996 c 0,47,48
 845 996 845 996 925.5 882 c 128,-1,49
 1006 768 1006 768 1006 517 c 0,50,51
 1006 422 1006 422 995.5 348.5 c 128,-1,52
 985 275 985 275 955.5 203 c 128,-1,53
 926 131 926 131 876 84 c 128,-1,54
 826 37 826 37 743 8 c 128,-1,55
 660 -21 660 -21 547 -21 c 0,0,1
446 573 m 2,56,57
 446 573 446 573 446 419 c 0,58,59
 446 293 446 293 534 293 c 0,60,61
 588 293 588 293 607 343 c 0,62,63
 620 377 620 377 620 475 c 2,64,-1
 620 554 l 2,65,66
 620 694 620 694 539 694 c 0,67,68
 446 694 446 694 446 573 c 2,56,57
EndSplineSet
EndChar

StartChar: seven
Encoding: 55 55 26
Width: 920
Flags: W
LayerCount: 2
Fore
SplineSet
95 1 m 1,0,1
 105 121 105 121 128 235.5 c 128,-1,2
 151 350 151 350 183.5 461 c 128,-1,3
 216 572 216 572 257.5 679.5 c 128,-1,4
 299 787 299 787 346 893 c 1,5,6
 380 965 380 965 405 1018 c 128,-1,7
 430 1071 430 1071 447.5 1110 c 128,-1,8
 465 1149 465 1149 477 1175.5 c 128,-1,9
 489 1202 489 1202 497 1221 c 128,-1,10
 505 1240 505 1240 509.5 1252.5 c 128,-1,11
 514 1265 514 1265 517 1276 c 1,12,-1
 20 1276 l 1,13,-1
 20 1593 l 1,14,-1
 908 1593 l 1,15,-1
 908 1338 l 1,16,17
 902 1290 902 1290 882.5 1238.5 c 128,-1,18
 863 1187 863 1187 836 1128.5 c 128,-1,19
 809 1070 809 1070 775.5 1003 c 128,-1,20
 742 936 742 936 708 858 c 1,21,22
 674 777 674 777 639.5 687 c 128,-1,23
 605 597 605 597 575.5 492.5 c 128,-1,24
 546 388 546 388 524 266.5 c 128,-1,25
 502 145 502 145 493 1 c 1,26,27
 403 1 403 1 340 1 c 128,-1,28
 277 1 277 1 234 1 c 128,-1,29
 191 1 191 1 165 1 c 128,-1,30
 139 1 139 1 124.5 1 c 128,-1,31
 110 1 110 1 104.5 1 c 128,-1,32
 99 1 99 1 95 1 c 1,0,1
EndSplineSet
EndChar

StartChar: eight
Encoding: 56 56 27
Width: 1056
Flags: W
LayerCount: 2
Fore
SplineSet
528 299 m 256,0,1
 624 299 624 299 624 468 c 0,2,3
 624 522 624 522 622.5 570 c 128,-1,4
 621 618 621 618 612 653 c 128,-1,5
 603 688 603 688 583.5 708.5 c 128,-1,6
 564 729 564 729 528 729 c 256,7,8
 492 729 492 729 472.5 708.5 c 128,-1,9
 453 688 453 688 444 653 c 128,-1,10
 435 618 435 618 433.5 570 c 128,-1,11
 432 522 432 522 432 468 c 0,12,13
 432 299 432 299 528 299 c 256,0,1
528 1608 m 256,14,15
 640 1608 640 1608 725.5 1584.5 c 128,-1,16
 811 1561 811 1561 869.5 1509.5 c 128,-1,17
 928 1458 928 1458 958 1377 c 128,-1,18
 988 1296 988 1296 988 1181 c 0,19,20
 988 1144 988 1144 986 1099.5 c 128,-1,21
 984 1055 984 1055 970.5 1012 c 128,-1,22
 957 969 957 969 926.5 932 c 128,-1,23
 896 895 896 895 839 873 c 1,24,25
 896 848 896 848 926.5 811 c 128,-1,26
 957 774 957 774 971 725.5 c 128,-1,27
 985 677 985 677 987.5 618 c 128,-1,28
 990 559 990 559 990 490 c 0,29,30
 990 358 990 358 965 262 c 128,-1,31
 940 166 940 166 884.5 104 c 128,-1,32
 829 42 829 42 741 12 c 128,-1,33
 653 -18 653 -18 528 -18 c 256,34,35
 403 -18 403 -18 315 12 c 128,-1,36
 227 42 227 42 171.5 104 c 128,-1,37
 116 166 116 166 91 262 c 128,-1,38
 66 358 66 358 66 490 c 0,39,40
 66 559 66 559 68.5 618 c 128,-1,41
 71 677 71 677 85 725.5 c 128,-1,42
 99 774 99 774 129.5 811 c 128,-1,43
 160 848 160 848 217 873 c 1,44,45
 160 895 160 895 129.5 932 c 128,-1,46
 99 969 99 969 85.5 1012 c 128,-1,47
 72 1055 72 1055 70 1099.5 c 128,-1,48
 68 1144 68 1144 68 1181 c 0,49,50
 68 1296 68 1296 98 1377 c 128,-1,51
 128 1458 128 1458 186.5 1509.5 c 128,-1,52
 245 1561 245 1561 330.5 1584.5 c 128,-1,53
 416 1608 416 1608 528 1608 c 256,14,15
528 1314 m 256,54,55
 500 1314 500 1314 482 1299 c 128,-1,56
 464 1284 464 1284 453.5 1261.5 c 128,-1,57
 443 1239 443 1239 439 1212.5 c 128,-1,58
 435 1186 435 1186 435 1162 c 0,59,60
 435 999 435 999 528 999 c 256,61,62
 621 999 621 999 621 1162 c 0,63,64
 621 1186 621 1186 617 1212.5 c 128,-1,65
 613 1239 613 1239 602.5 1261.5 c 128,-1,66
 592 1284 592 1284 574 1299 c 128,-1,67
 556 1314 556 1314 528 1314 c 256,54,55
EndSplineSet
EndChar

StartChar: nine
Encoding: 57 57 28
Width: 1065
Flags: W
LayerCount: 2
Fore
SplineSet
530 -18 m 0,0,1
 440 -18 440 -18 355 3.5 c 128,-1,2
 270 25 270 25 204 70 c 128,-1,3
 138 115 138 115 98 183.5 c 128,-1,4
 58 252 58 252 58 346 c 2,5,-1
 58 476 l 1,6,-1
 430 476 l 1,7,-1
 429 417 l 2,8,9
 429 397 429 397 436 379.5 c 128,-1,10
 443 362 443 362 455 348.5 c 128,-1,11
 467 335 467 335 483.5 327.5 c 128,-1,12
 500 320 500 320 518 320 c 0,13,14
 534 320 534 320 550.5 326.5 c 128,-1,15
 567 333 567 333 580.5 347 c 128,-1,16
 594 361 594 361 602 381.5 c 128,-1,17
 610 402 610 402 610 431 c 2,18,-1
 610 656 l 1,19,20
 575 618 575 618 522 598 c 128,-1,21
 469 578 469 578 415 578 c 0,22,23
 334 578 334 578 276 596 c 128,-1,24
 218 614 218 614 178.5 646 c 128,-1,25
 139 678 139 678 116 722 c 128,-1,26
 93 766 93 766 80.5 819 c 128,-1,27
 68 872 68 872 64.5 932 c 128,-1,28
 61 992 61 992 61 1055 c 0,29,30
 61 1131 61 1131 69.5 1201 c 128,-1,31
 78 1271 78 1271 99 1332.5 c 128,-1,32
 120 1394 120 1394 154.5 1444.5 c 128,-1,33
 189 1495 189 1495 241.5 1530.5 c 128,-1,34
 294 1566 294 1566 366 1586 c 128,-1,35
 438 1606 438 1606 533 1606 c 0,36,37
 672 1606 672 1606 761.5 1565 c 128,-1,38
 851 1524 851 1524 902.5 1449.5 c 128,-1,39
 954 1375 954 1375 973.5 1271.5 c 128,-1,40
 993 1168 993 1168 993 1043 c 2,41,-1
 993 707 l 2,42,43
 993 623 993 623 989 537 c 128,-1,44
 985 451 985 451 970 370.5 c 128,-1,45
 955 290 955 290 925.5 219 c 128,-1,46
 896 148 896 148 844.5 95.5 c 128,-1,47
 793 43 793 43 716 12.5 c 128,-1,48
 639 -18 639 -18 530 -18 c 0,0,1
441 1046 m 0,49,50
 442 1009 442 1009 444.5 977 c 128,-1,51
 447 945 447 945 455.5 922 c 128,-1,52
 464 899 464 899 481.5 887 c 128,-1,53
 499 875 499 875 531 878 c 1,54,55
 621 878 621 878 621 1029 c 2,56,-1
 621 1131 l 2,57,58
 621 1207 621 1207 602.5 1249.5 c 128,-1,59
 584 1292 584 1292 533 1292 c 0,60,61
 504 1292 504 1292 486 1278.5 c 128,-1,62
 468 1265 468 1265 458 1243.5 c 128,-1,63
 448 1222 448 1222 444 1194.5 c 128,-1,64
 440 1167 440 1167 439.5 1140 c 128,-1,65
 439 1113 439 1113 440 1088 c 128,-1,66
 441 1063 441 1063 441 1046 c 0,49,50
EndSplineSet
EndChar

StartChar: colon
Encoding: 58 58 29
Width: 531
Flags: W
LayerCount: 2
Fore
SplineSet
86 237 m 1,0,-1
 86 535 l 1,1,-1
 444 535 l 1,2,-1
 444 237 l 1,3,-1
 86 237 l 1,0,-1
86 976 m 1,4,-1
 86 1274 l 1,5,-1
 444 1274 l 1,6,-1
 444 976 l 1,7,-1
 86 976 l 1,4,-1
EndSplineSet
EndChar

StartChar: semicolon
Encoding: 59 59 30
Width: 544
Flags: W
LayerCount: 2
Fore
SplineSet
87 236 m 1,0,-1
 87 534 l 1,1,-1
 461 534 l 1,2,-1
 461 245 l 1,3,-1
 359 0 l 1,4,-1
 148 0 l 1,5,-1
 214 236 l 1,6,-1
 87 236 l 1,0,-1
87 976 m 1,7,-1
 87 1274 l 1,8,-1
 445 1274 l 1,9,-1
 445 976 l 1,10,-1
 87 976 l 1,7,-1
EndSplineSet
EndChar

StartChar: less
Encoding: 60 60 31
Width: 710
Flags: W
LayerCount: 2
Fore
SplineSet
53 545 m 1,0,-1
 53 959 l 1,1,-1
 623 1300 l 1,2,-1
 623 941 l 1,3,-1
 281 749 l 1,4,-1
 623 558 l 1,5,-1
 623 200 l 1,6,-1
 53 545 l 1,0,-1
EndSplineSet
EndChar

StartChar: equal
Encoding: 61 61 32
Width: 690
Flags: W
LayerCount: 2
Fore
SplineSet
88 509 m 1,0,-1
 88 741 l 1,1,-1
 602 741 l 1,2,-1
 602 509 l 1,3,-1
 88 509 l 1,0,-1
88 892 m 1,4,-1
 88 1116 l 1,5,-1
 602 1116 l 1,6,-1
 602 892 l 1,7,-1
 88 892 l 1,4,-1
EndSplineSet
EndChar

StartChar: greater
Encoding: 62 62 33
Width: 711
Flags: W
LayerCount: 2
Fore
SplineSet
658 545 m 1,0,-1
 88 200 l 1,1,-1
 88 558 l 1,2,-1
 430 749 l 1,3,-1
 88 941 l 1,4,-1
 88 1300 l 1,5,-1
 658 959 l 1,6,-1
 658 545 l 1,0,-1
EndSplineSet
EndChar

StartChar: question
Encoding: 63 63 34
Width: 1041
Flags: W
LayerCount: 2
Fore
SplineSet
523 1690 m 0,0,1
 609 1690 609 1690 678.5 1674 c 128,-1,2
 748 1658 748 1658 796.5 1631 c 128,-1,3
 845 1604 845 1604 881 1562.5 c 128,-1,4
 917 1521 917 1521 938 1476 c 128,-1,5
 959 1431 959 1431 971.5 1372.5 c 128,-1,6
 984 1314 984 1314 988.5 1260 c 128,-1,7
 993 1206 993 1206 993 1140 c 0,8,9
 993 1019 993 1019 964 920 c 128,-1,10
 935 821 935 821 875 743 c 128,-1,11
 815 665 815 665 713.5 622 c 128,-1,12
 612 579 612 579 475 579 c 1,13,-1
 475 409 l 1,14,-1
 142 409 l 1,15,-1
 142 825 l 1,16,17
 225 825 225 825 288 829 c 128,-1,18
 351 833 351 833 400.5 844 c 128,-1,19
 450 855 450 855 484 868.5 c 128,-1,20
 518 882 518 882 542.5 907 c 128,-1,21
 567 932 567 932 581 957.5 c 128,-1,22
 595 983 595 983 603 1025 c 128,-1,23
 611 1067 611 1067 613.5 1107 c 128,-1,24
 616 1147 616 1147 616 1208 c 0,25,26
 616 1284 616 1284 596.5 1327.5 c 128,-1,27
 577 1371 577 1371 523 1371 c 0,28,29
 509 1371 509 1371 499 1369.5 c 128,-1,30
 489 1368 489 1368 474.5 1357.5 c 128,-1,31
 460 1347 460 1347 451 1328.5 c 128,-1,32
 442 1310 442 1310 435.5 1273.5 c 128,-1,33
 429 1237 429 1237 429 1185 c 2,34,-1
 429 1039 l 1,35,-1
 63 1039 l 1,36,-1
 63 1293 l 2,37,38
 63 1491 63 1491 188.5 1590.5 c 128,-1,39
 314 1690 314 1690 523 1690 c 0,0,1
131 1 m 1,40,-1
 131 299 l 1,41,-1
 489 299 l 1,42,-1
 489 1 l 1,43,-1
 131 1 l 1,40,-1
EndSplineSet
EndChar

StartChar: at
Encoding: 64 64 35
Width: 1842
Flags: W
LayerCount: 2
Fore
SplineSet
834 718 m 0,0,1
 834 646 834 646 855 608 c 128,-1,2
 876 570 876 570 914 570 c 0,3,4
 936 570 936 570 952 582 c 128,-1,5
 968 594 968 594 976 613 c 128,-1,6
 984 632 984 632 987 650 c 128,-1,7
 990 668 990 668 990 687 c 2,8,-1
 990 972 l 1,9,10
 957 972 957 972 932.5 965.5 c 128,-1,11
 908 959 908 959 891 950 c 128,-1,12
 874 941 874 941 863 920.5 c 128,-1,13
 852 900 852 900 846 885 c 128,-1,14
 840 870 840 870 837.5 836.5 c 128,-1,15
 835 803 835 803 834.5 782.5 c 128,-1,16
 834 762 834 762 834 718 c 0,0,1
1163 224 m 1,17,18
 1163 224 1163 224 1207 -37 c 1,19,20
 1020 -64 1020 -64 882 -64 c 0,21,22
 458 -64 458 -64 255.5 134.5 c 128,-1,23
 53 333 53 333 53 726 c 0,24,25
 53 878 53 878 76.5 1002.5 c 128,-1,26
 100 1127 100 1127 142.5 1220 c 128,-1,27
 185 1313 185 1313 250.5 1383.5 c 128,-1,28
 316 1454 316 1454 395 1501 c 128,-1,29
 474 1548 474 1548 575.5 1577 c 128,-1,30
 677 1606 677 1606 785 1618 c 128,-1,31
 893 1630 893 1630 1024 1630 c 0,32,33
 1188 1630 1188 1630 1320.5 1586 c 128,-1,34
 1453 1542 1453 1542 1539.5 1468.5 c 128,-1,35
 1626 1395 1626 1395 1684.5 1295 c 128,-1,36
 1743 1195 1743 1195 1768 1088.5 c 128,-1,37
 1793 982 1793 982 1793 867 c 0,38,39
 1793 577 1793 577 1684.5 422.5 c 128,-1,40
 1576 268 1576 268 1377 268 c 0,41,42
 1225 268 1225 268 1138.5 322 c 128,-1,43
 1052 376 1052 376 1016 494 c 1,44,45
 956 326 956 326 760 326 c 0,46,47
 709 326 709 326 664.5 347 c 128,-1,48
 620 368 620 368 581.5 411.5 c 128,-1,49
 543 455 543 455 521 534 c 128,-1,50
 499 613 499 613 499 718 c 0,51,52
 499 963 499 963 579.5 1086 c 128,-1,53
 660 1209 660 1209 798 1209 c 0,54,55
 903 1209 903 1209 1011 1114 c 1,56,-1
 1051 1226 l 1,57,-1
 1312 1226 l 1,58,-1
 1312 621 l 2,59,60
 1312 566 1312 566 1337 531.5 c 128,-1,61
 1362 497 1362 497 1393 497 c 0,62,63
 1443 497 1443 497 1475 612 c 128,-1,64
 1507 727 1507 727 1507 888 c 0,65,66
 1507 959 1507 959 1494 1023 c 128,-1,67
 1481 1087 1481 1087 1447 1151 c 128,-1,68
 1413 1215 1413 1215 1361 1261 c 128,-1,69
 1309 1307 1309 1307 1223 1336 c 128,-1,70
 1137 1365 1137 1365 1027 1365 c 0,71,72
 964 1365 964 1365 917.5 1363 c 128,-1,73
 871 1361 871 1361 812 1354 c 128,-1,74
 753 1347 753 1347 710 1334 c 128,-1,75
 667 1321 667 1321 618.5 1297 c 128,-1,76
 570 1273 570 1273 535.5 1240.5 c 128,-1,77
 501 1208 501 1208 468 1159 c 128,-1,78
 435 1110 435 1110 415 1048.5 c 128,-1,79
 395 987 395 987 382.5 904.5 c 128,-1,80
 370 822 370 822 370 723 c 0,81,82
 370 569 370 569 403 466.5 c 128,-1,83
 436 364 436 364 505 307.5 c 128,-1,84
 574 251 574 251 664.5 228.5 c 128,-1,85
 755 206 755 206 887 206 c 0,86,87
 998 206 998 206 1163 224 c 1,17,18
EndSplineSet
EndChar

StartChar: A
Encoding: 65 65 36
Width: 947
Flags: W
LayerCount: 2
Fore
SplineSet
750 1593 m 1,0,-1
 926 0 l 1,1,-1
 586 0 l 1,2,-1
 561 240 l 1,3,-1
 383 240 l 1,4,-1
 361 0 l 1,5,-1
 19 0 l 1,6,-1
 199 1593 l 1,7,-1
 750 1593 l 1,0,-1
487 1294 m 1,8,-1
 455 1294 l 1,9,-1
 408 530 l 1,10,-1
 534 530 l 1,11,-1
 487 1294 l 1,8,-1
EndSplineSet
EndChar

StartChar: B
Encoding: 66 66 37
Width: 988
Flags: W
LayerCount: 2
Fore
SplineSet
87 0 m 1,0,-1
 87 1593 l 1,1,-1
 564 1593 l 2,2,3
 751 1593 751 1593 841 1510.5 c 128,-1,4
 931 1428 931 1428 931 1229 c 0,5,6
 931 1223 931 1223 931 1212 c 0,7,8
 931 1177 931 1177 931 1160 c 128,-1,9
 931 1143 931 1143 927.5 1107 c 128,-1,10
 924 1071 924 1071 917.5 1050.5 c 128,-1,11
 911 1030 911 1030 898 1000 c 128,-1,12
 885 970 885 970 866 951 c 128,-1,13
 847 932 847 932 818 914 c 128,-1,14
 789 896 789 896 751 887 c 1,15,16
 806 874 806 874 845 842 c 128,-1,17
 884 810 884 810 904 774.5 c 128,-1,18
 924 739 924 739 935.5 687 c 128,-1,19
 947 635 947 635 949 600 c 128,-1,20
 951 565 951 565 951 516 c 0,21,22
 951 390 951 390 933.5 300 c 128,-1,23
 916 210 916 210 873 139.5 c 128,-1,24
 830 69 830 69 753.5 34.5 c 128,-1,25
 677 0 677 0 564 0 c 2,26,-1
 87 0 l 1,0,-1
431 745 m 1,27,-1
 431 283 l 1,28,29
 455 281 455 281 466 281 c 0,30,31
 603 281 603 281 603 399 c 2,32,33
 603 399 603 399 603 598 c 0,34,35
 603 674 603 674 577.5 709.5 c 128,-1,36
 552 745 552 745 496 745 c 2,37,-1
 431 745 l 1,27,-1
431 993 m 1,38,-1
 503 993 l 2,39,40
 529 993 529 993 545.5 1004 c 128,-1,41
 562 1015 562 1015 569 1035.5 c 128,-1,42
 576 1056 576 1056 578 1072.5 c 128,-1,43
 580 1089 580 1089 580 1112 c 2,44,-1
 580 1270 l 2,45,46
 580 1346 580 1346 505 1346 c 2,47,-1
 431 1346 l 1,48,-1
 431 993 l 1,38,-1
EndSplineSet
EndChar

StartChar: C
Encoding: 67 67 38
Width: 993
Flags: W
LayerCount: 2
Fore
SplineSet
937 686 m 1,0,-1
 937 385 l 2,1,2
 937 177 937 177 819 79.5 c 128,-1,3
 701 -18 701 -18 489 -18 c 0,4,5
 301 -18 301 -18 183 89.5 c 128,-1,6
 65 197 65 197 65 395 c 2,7,-1
 65 1134 l 2,8,9
 65 1371 65 1371 169.5 1488.5 c 128,-1,10
 274 1606 274 1606 497 1606 c 0,11,12
 588 1606 588 1606 665 1583.5 c 128,-1,13
 742 1561 742 1561 801.5 1517 c 128,-1,14
 861 1473 861 1473 895 1401.5 c 128,-1,15
 929 1330 929 1330 929 1237 c 2,16,-1
 929 956 l 1,17,-1
 581 956 l 1,18,-1
 581 1141 l 2,19,20
 581 1284 581 1284 497 1284 c 0,21,22
 447 1284 447 1284 431 1252.5 c 128,-1,23
 415 1221 415 1221 415 1165 c 2,24,-1
 415 412 l 2,25,26
 415 363 415 363 437.5 327 c 128,-1,27
 460 291 460 291 497 291 c 0,28,29
 531 291 531 291 556 317.5 c 128,-1,30
 581 344 581 344 581 412 c 2,31,-1
 581 686 l 1,32,-1
 937 686 l 1,0,-1
EndSplineSet
EndChar

StartChar: D
Encoding: 68 68 39
Width: 1020
Flags: W
LayerCount: 2
Fore
SplineSet
87 0 m 1,0,-1
 87 1593 l 1,1,-1
 572 1593 l 2,2,3
 769 1593 769 1593 859.5 1492.5 c 128,-1,4
 950 1392 950 1392 951 1217 c 2,5,6
 951 1217 951 1217 955 473 c 1,7,8
 955 234 955 234 861.5 117 c 128,-1,9
 768 0 768 0 560 0 c 2,10,-1
 87 0 l 1,0,-1
441 1311 m 1,11,-1
 441 291 l 1,12,13
 444 292 444 292 453 292 c 0,14,15
 459 292 459 292 475.5 291 c 128,-1,16
 492 290 492 290 502 290 c 0,17,18
 603 290 603 290 603 375 c 2,19,-1
 603 1161 l 2,20,21
 603 1248 603 1248 575.5 1280.5 c 128,-1,22
 548 1313 548 1313 480 1313 c 0,23,24
 469 1313 469 1313 441 1311 c 1,11,-1
EndSplineSet
EndChar

StartChar: E
Encoding: 69 69 40
Width: 862
Flags: W
LayerCount: 2
Fore
SplineSet
87 0 m 1,0,-1
 87 1593 l 1,1,-1
 791 1593 l 1,2,-1
 791 1284 l 1,3,-1
 445 1284 l 1,4,-1
 445 973 l 1,5,-1
 777 973 l 1,6,-1
 777 674 l 1,7,-1
 445 674 l 1,8,-1
 445 311 l 1,9,-1
 814 311 l 1,10,-1
 814 0 l 1,11,-1
 87 0 l 1,0,-1
EndSplineSet
EndChar

StartChar: F
Encoding: 70 70 41
Width: 824
Flags: W
LayerCount: 2
Fore
SplineSet
87 0 m 1,0,-1
 87 1593 l 1,1,-1
 791 1593 l 1,2,-1
 791 1282 l 1,3,-1
 441 1282 l 1,4,-1
 441 1030 l 1,5,-1
 773 1030 l 1,6,-1
 773 723 l 1,7,-1
 441 723 l 1,8,-1
 441 0 l 1,9,-1
 87 0 l 1,0,-1
EndSplineSet
EndChar

StartChar: G
Encoding: 71 71 42
Width: 1003
Flags: W
LayerCount: 2
Fore
SplineSet
796 0 m 1,0,-1
 736 135 l 1,1,2
 642 -18 642 -18 446 -18 c 0,3,4
 65 -18 65 -18 65 475 c 2,5,-1
 65 1165 l 2,6,7
 65 1278 65 1278 95 1362 c 128,-1,8
 125 1446 125 1446 168.5 1491.5 c 128,-1,9
 212 1537 212 1537 275 1564 c 128,-1,10
 338 1591 338 1591 389.5 1598.5 c 128,-1,11
 441 1606 441 1606 501 1606 c 0,12,13
 575 1606 575 1606 635 1595.5 c 128,-1,14
 695 1585 695 1585 738.5 1563 c 128,-1,15
 782 1541 782 1541 815 1513.5 c 128,-1,16
 848 1486 848 1486 869.5 1445.5 c 128,-1,17
 891 1405 891 1405 904.5 1365.5 c 128,-1,18
 918 1326 918 1326 925 1270.5 c 128,-1,19
 932 1215 932 1215 934.5 1167 c 128,-1,20
 937 1119 937 1119 937 1054 c 1,21,-1
 601 1054 l 1,22,-1
 601 1180 l 2,23,24
 601 1218 601 1218 593 1243 c 128,-1,25
 585 1268 585 1268 570.5 1278.5 c 128,-1,26
 556 1289 556 1289 544 1292.5 c 128,-1,27
 532 1296 532 1296 517 1296 c 0,28,29
 487 1296 487 1296 468.5 1288 c 128,-1,30
 450 1280 450 1280 439.5 1268 c 128,-1,31
 429 1256 429 1256 424 1224.5 c 128,-1,32
 419 1193 419 1193 418 1165 c 128,-1,33
 417 1137 417 1137 417 1077 c 2,34,-1
 417 461 l 2,35,36
 417 426 417 426 419.5 402 c 128,-1,37
 422 378 422 378 431 350 c 128,-1,38
 440 322 440 322 460.5 307.5 c 128,-1,39
 481 293 481 293 513 293 c 0,40,41
 566 293 566 293 583.5 334.5 c 128,-1,42
 601 376 601 376 601 469 c 2,43,-1
 601 653 l 1,44,-1
 507 653 l 1,45,-1
 507 928 l 1,46,-1
 933 928 l 1,47,-1
 933 0 l 1,48,-1
 796 0 l 1,0,-1
EndSplineSet
EndChar

StartChar: H
Encoding: 72 72 43
Width: 1040
Flags: W
LayerCount: 2
Fore
SplineSet
437 723 m 1,0,-1
 437 0 l 1,1,-1
 87 0 l 1,2,-1
 87 1593 l 1,3,-1
 437 1593 l 1,4,-1
 437 1024 l 1,5,-1
 603 1024 l 1,6,-1
 603 1593 l 1,7,-1
 953 1593 l 1,8,-1
 953 0 l 1,9,-1
 603 0 l 1,10,-1
 603 723 l 1,11,-1
 437 723 l 1,0,-1
EndSplineSet
EndChar

StartChar: I
Encoding: 73 73 44
Width: 514
Flags: W
LayerCount: 2
Fore
SplineSet
87 0 m 1,0,-1
 87 1593 l 1,1,-1
 427 1593 l 1,2,-1
 427 0 l 1,3,-1
 87 0 l 1,0,-1
EndSplineSet
EndChar

StartChar: J
Encoding: 74 74 45
Width: 965
Flags: W
LayerCount: 2
Fore
SplineSet
454 -18 m 0,0,1
 370 -18 370 -18 293.5 6 c 128,-1,2
 217 30 217 30 156.5 75 c 128,-1,3
 96 120 96 120 60 192 c 128,-1,4
 24 264 24 264 24 352 c 2,5,-1
 24 752 l 1,6,-1
 372 752 l 1,7,-1
 372 403 l 2,8,9
 372 360 372 360 391 332.5 c 128,-1,10
 410 305 410 305 450 305 c 0,11,12
 530 305 530 305 530 444 c 0,13,14
 530 455 530 455 529.5 472.5 c 128,-1,15
 529 490 529 490 529 496 c 2,16,-1
 529 1593 l 1,17,-1
 884 1593 l 1,18,-1
 884 399 l 2,19,20
 884 207 884 207 763 94.5 c 128,-1,21
 642 -18 642 -18 454 -18 c 0,0,1
EndSplineSet
EndChar

StartChar: K
Encoding: 75 75 46
Width: 982
Flags: W
LayerCount: 2
Fore
SplineSet
599 1593 m 1,0,-1
 953 1593 l 1,1,-1
 756 864 l 1,2,-1
 994 0 l 1,3,-1
 629 0 l 1,4,-1
 437 772 l 1,5,-1
 437 0 l 1,6,-1
 87 0 l 1,7,-1
 87 1593 l 1,8,-1
 435 1593 l 1,9,-1
 435 956 l 1,10,-1
 599 1593 l 1,0,-1
EndSplineSet
EndChar

StartChar: L
Encoding: 76 76 47
Width: 809
Flags: W
LayerCount: 2
Fore
SplineSet
87 0 m 1,0,-1
 87 1593 l 1,1,-1
 439 1593 l 1,2,-1
 439 311 l 1,3,-1
 801 311 l 1,4,-1
 801 0 l 1,5,-1
 87 0 l 1,0,-1
EndSplineSet
EndChar

StartChar: M
Encoding: 77 77 48
Width: 1546
Flags: W
LayerCount: 2
Fore
SplineSet
935 0 m 1,0,-1
 619 0 l 1,1,-1
 425 1149 l 1,2,-1
 425 0 l 1,3,-1
 87 0 l 1,4,-1
 87 1593 l 1,5,-1
 623 1593 l 1,6,-1
 771 762 l 1,7,-1
 918 1593 l 1,8,-1
 1459 1593 l 1,9,-1
 1459 0 l 1,10,-1
 1117 0 l 1,11,-1
 1117 1149 l 1,12,-1
 935 0 l 1,0,-1
EndSplineSet
EndChar

StartChar: N
Encoding: 78 78 49
Width: 1038
Flags: W
LayerCount: 2
Fore
SplineSet
951 1593 m 1,0,-1
 951 0 l 1,1,-1
 607 0 l 1,2,-1
 431 797 l 1,3,-1
 431 0 l 1,4,-1
 87 0 l 1,5,-1
 87 1593 l 1,6,-1
 449 1593 l 1,7,-1
 611 831 l 1,8,-1
 611 1593 l 1,9,-1
 951 1593 l 1,0,-1
EndSplineSet
EndChar

StartChar: O
Encoding: 79 79 50
Width: 1000
Flags: W
LayerCount: 2
Fore
SplineSet
66 430 m 2,0,-1
 66 1189 l 2,1,2
 66 1388 66 1388 173.5 1497.5 c 128,-1,3
 281 1607 281 1607 497 1610 c 1,4,5
 719 1607 719 1607 826.5 1497.5 c 128,-1,6
 934 1388 934 1388 934 1189 c 2,7,-1
 934 430 l 2,8,9
 934 333 934 333 909.5 253.5 c 128,-1,10
 885 174 885 174 835 112 c 128,-1,11
 785 50 785 50 699.5 16 c 128,-1,12
 614 -18 614 -18 503 -15 c 1,13,14
 386 -18 386 -18 300.5 16 c 128,-1,15
 215 50 215 50 165 112 c 128,-1,16
 115 174 115 174 90.5 253.5 c 128,-1,17
 66 333 66 333 66 430 c 2,0,-1
500 297 m 0,18,19
 519 297 519 297 533.5 304.5 c 128,-1,20
 548 312 548 312 556.5 327.5 c 128,-1,21
 565 343 565 343 570 357 c 128,-1,22
 575 371 575 371 577 394.5 c 128,-1,23
 579 418 579 418 579.5 430.5 c 128,-1,24
 580 443 580 443 580 465 c 0,25,26
 580 470 580 470 580 473 c 2,27,-1
 580 1113 l 2,28,29
 580 1119 580 1119 580.5 1137 c 128,-1,30
 581 1155 581 1155 580.5 1164 c 128,-1,31
 580 1173 580 1173 579.5 1190.5 c 128,-1,32
 579 1208 579 1208 576.5 1217.5 c 128,-1,33
 574 1227 574 1227 570.5 1241.5 c 128,-1,34
 567 1256 567 1256 561 1263.5 c 128,-1,35
 555 1271 555 1271 547 1279.5 c 128,-1,36
 539 1288 539 1288 527 1291.5 c 128,-1,37
 515 1295 515 1295 500 1295 c 0,38,39
 479 1295 479 1295 463.5 1288 c 128,-1,40
 448 1281 448 1281 439 1265.5 c 128,-1,41
 430 1250 430 1250 424 1237.5 c 128,-1,42
 418 1225 418 1225 416 1200.5 c 128,-1,43
 414 1176 414 1176 414 1165.5 c 128,-1,44
 414 1155 414 1155 414 1130 c 0,45,46
 414 1126 414 1126 414 1123 c 128,-1,47
 414 1120 414 1120 414 1117 c 2,48,-1
 414 477 l 2,49,50
 414 455 414 455 414.5 442 c 128,-1,51
 415 429 415 429 417 404 c 128,-1,52
 419 379 419 379 424.5 363.5 c 128,-1,53
 430 348 430 348 439 331 c 128,-1,54
 448 314 448 314 463.5 305.5 c 128,-1,55
 479 297 479 297 500 297 c 0,18,19
EndSplineSet
EndChar

StartChar: P
Encoding: 80 80 51
Width: 960
Flags: W
LayerCount: 2
Fore
SplineSet
87 0 m 1,0,-1
 87 1593 l 1,1,-1
 552 1593 l 2,2,3
 644 1593 644 1593 713 1569 c 128,-1,4
 782 1545 782 1545 835 1491 c 128,-1,5
 888 1437 888 1437 915.5 1341.5 c 128,-1,6
 943 1246 943 1246 943 1110 c 0,7,8
 943 993 943 993 926.5 909.5 c 128,-1,9
 910 826 910 826 870 761 c 128,-1,10
 830 696 830 696 756.5 663.5 c 128,-1,11
 683 631 683 631 576 631 c 2,12,-1
 433 631 l 1,13,-1
 433 0 l 1,14,-1
 87 0 l 1,0,-1
433 1303 m 1,15,-1
 433 918 l 1,16,-1
 453 918 l 2,17,18
 481 918 481 918 495.5 919.5 c 128,-1,19
 510 921 510 921 529.5 926.5 c 128,-1,20
 549 932 549 932 558.5 944.5 c 128,-1,21
 568 957 568 957 578 978.5 c 128,-1,22
 588 1000 588 1000 591.5 1034 c 128,-1,23
 595 1068 595 1068 595 1116 c 0,24,25
 595 1221 595 1221 567.5 1262 c 128,-1,26
 540 1303 540 1303 472 1303 c 2,27,-1
 433 1303 l 1,15,-1
EndSplineSet
EndChar

StartChar: Q
Encoding: 81 81 52
Width: 1001
Flags: W
LayerCount: 2
Fore
SplineSet
500 -18 m 0,0,1
 386 -18 386 -18 301 14 c 128,-1,2
 216 46 216 46 165.5 105.5 c 128,-1,3
 115 165 115 165 90.5 243 c 128,-1,4
 66 321 66 321 66 418 c 2,5,-1
 66 1186 l 2,6,7
 66 1385 66 1385 174 1495.5 c 128,-1,8
 282 1606 282 1606 501 1606 c 0,9,10
 718 1606 718 1606 826 1495.5 c 128,-1,11
 934 1385 934 1385 934 1186 c 2,12,-1
 934 418 l 2,13,14
 934 222 934 222 836 109 c 1,15,-1
 987 20 l 1,16,-1
 868 -170 l 1,17,-1
 588 -8 l 1,18,19
 520 -18 520 -18 500 -18 c 0,0,1
500 299 m 0,20,21
 544 299 544 299 563 341 c 0,22,23
 580 377 580 377 580 475 c 2,24,-1
 580 1110 l 2,25,26
 580 1113 580 1113 580 1133.5 c 128,-1,27
 580 1154 580 1154 580 1160.5 c 128,-1,28
 580 1167 580 1167 579 1186.5 c 128,-1,29
 578 1206 578 1206 575.5 1214.5 c 128,-1,30
 573 1223 573 1223 569.5 1238 c 128,-1,31
 566 1253 566 1253 559.5 1260.5 c 128,-1,32
 553 1268 553 1268 545 1276.5 c 128,-1,33
 537 1285 537 1285 525 1288.5 c 128,-1,34
 513 1292 513 1292 498 1292 c 128,-1,35
 483 1292 483 1292 470.5 1288.5 c 128,-1,36
 458 1285 458 1285 449.5 1276.5 c 128,-1,37
 441 1268 441 1268 434.5 1260 c 128,-1,38
 428 1252 428 1252 424.5 1237.5 c 128,-1,39
 421 1223 421 1223 418.5 1214 c 128,-1,40
 416 1205 416 1205 415 1187 c 128,-1,41
 414 1169 414 1169 414 1161.5 c 128,-1,42
 414 1154 414 1154 414 1135.5 c 128,-1,43
 414 1117 414 1117 414 1114 c 2,44,-1
 414 479 l 2,45,46
 414 457 414 457 414.5 444 c 128,-1,47
 415 431 415 431 417 406 c 128,-1,48
 419 381 419 381 424.5 365.5 c 128,-1,49
 430 350 430 350 439 333 c 128,-1,50
 448 316 448 316 463.5 307.5 c 128,-1,51
 479 299 479 299 500 299 c 0,20,21
EndSplineSet
EndChar

StartChar: R
Encoding: 82 82 53
Width: 997
Flags: W
LayerCount: 2
Fore
SplineSet
443 725 m 1,0,1
 443 725 443 725 443 0 c 1,2,-1
 87 0 l 1,3,-1
 87 1593 l 1,4,-1
 627 1593 l 2,5,6
 710 1593 710 1593 769 1570.5 c 128,-1,7
 828 1548 828 1548 862 1511.5 c 128,-1,8
 896 1475 896 1475 915.5 1414.5 c 128,-1,9
 935 1354 935 1354 941 1293.5 c 128,-1,10
 947 1233 947 1233 947 1147 c 0,11,12
 947 1102 947 1102 945.5 1073.5 c 128,-1,13
 944 1045 944 1045 934.5 1001.5 c 128,-1,14
 925 958 925 958 908 929 c 128,-1,15
 891 900 891 900 856.5 872 c 128,-1,16
 822 844 822 844 773 829 c 1,17,18
 822 820 822 820 854 795.5 c 128,-1,19
 886 771 886 771 900 735 c 128,-1,20
 914 699 914 699 919 668.5 c 128,-1,21
 924 638 924 638 924 600 c 0,22,23
 924 205 924 205 920 0 c 1,24,-1
 576 0 l 1,25,-1
 576 621 l 2,26,27
 576 658 576 658 568.5 680 c 128,-1,28
 561 702 561 702 540.5 711.5 c 128,-1,29
 520 721 520 721 501 723 c 128,-1,30
 482 725 482 725 443 725 c 1,0,1
445 1298 m 1,31,-1
 445 1001 l 1,32,-1
 533 1001 l 2,33,34
 603 1001 603 1001 603 1147 c 0,35,36
 603 1244 603 1244 575.5 1271 c 128,-1,37
 548 1298 548 1298 464 1298 c 2,38,-1
 445 1298 l 1,31,-1
EndSplineSet
EndChar

StartChar: S
Encoding: 83 83 54
Width: 951
Flags: W
LayerCount: 2
Fore
SplineSet
502 -18 m 0,0,1
 257 -18 257 -18 152.5 94 c 128,-1,2
 48 206 48 206 48 440 c 2,3,-1
 48 596 l 1,4,-1
 396 596 l 1,5,-1
 396 453 l 2,6,7
 396 299 396 299 480 299 c 0,8,9
 519 299 519 299 541.5 329 c 128,-1,10
 564 359 564 359 564 408 c 0,11,12
 564 472 564 472 546.5 516 c 128,-1,13
 529 560 529 560 493.5 599.5 c 128,-1,14
 458 639 458 639 377 709 c 2,15,-1
 228 838 l 2,16,17
 48 993 48 993 48 1188 c 0,18,19
 48 1400 48 1400 156.5 1503.5 c 128,-1,20
 265 1607 265 1607 455 1607 c 0,21,22
 460 1607 460 1607 464 1607 c 128,-1,23
 468 1607 468 1607 517 1607 c 128,-1,24
 566 1607 566 1607 643 1584.5 c 128,-1,25
 720 1562 720 1562 780 1509.5 c 128,-1,26
 840 1457 840 1457 870 1363.5 c 128,-1,27
 900 1270 900 1270 900 1135 c 1,28,-1
 543 1135 l 1,29,-1
 541 1231 l 2,30,31
 540 1258 540 1258 518 1279 c 128,-1,32
 496 1300 496 1300 469 1300 c 0,33,34
 434 1300 434 1300 409.5 1278.5 c 128,-1,35
 385 1257 385 1257 385 1223 c 0,36,37
 385 1155 385 1155 484 1075 c 2,38,-1
 697 903 l 2,39,40
 749 861 749 861 787.5 817.5 c 128,-1,41
 826 774 826 774 848.5 731.5 c 128,-1,42
 871 689 871 689 885 654.5 c 128,-1,43
 899 620 899 620 904.5 579.5 c 128,-1,44
 910 539 910 539 911 518.5 c 128,-1,45
 912 498 912 498 912 465 c 0,46,47
 912 381 912 381 901 312.5 c 128,-1,48
 890 244 890 244 862 180.5 c 128,-1,49
 834 117 834 117 788.5 74.5 c 128,-1,50
 743 32 743 32 670.5 7 c 128,-1,51
 598 -18 598 -18 502 -18 c 0,0,1
EndSplineSet
EndChar

StartChar: T
Encoding: 84 84 55
Width: 811
Flags: W
LayerCount: 2
Fore
SplineSet
20 1593 m 1,0,-1
 790 1593 l 1,1,-1
 790 1286 l 1,2,-1
 581 1286 l 1,3,-1
 581 0 l 1,4,-1
 229 0 l 1,5,-1
 229 1286 l 1,6,-1
 20 1286 l 1,7,-1
 20 1593 l 1,0,-1
EndSplineSet
EndChar

StartChar: U
Encoding: 85 85 56
Width: 1020
Flags: W
LayerCount: 2
Fore
SplineSet
82 422 m 2,0,-1
 82 1593 l 1,1,-1
 424 1593 l 1,2,-1
 424 453 l 2,3,4
 424 451 424 451 424 446 c 0,5,6
 424 420 424 420 424.5 405 c 128,-1,7
 425 390 425 390 429.5 364 c 128,-1,8
 434 338 434 338 442.5 323 c 128,-1,9
 451 308 451 308 468 296.5 c 128,-1,10
 485 285 485 285 510 285 c 0,11,12
 531 285 531 285 546.5 292 c 128,-1,13
 562 299 562 299 571 313.5 c 128,-1,14
 580 328 580 328 585.5 341.5 c 128,-1,15
 591 355 591 355 593 377.5 c 128,-1,16
 595 400 595 400 595.5 412 c 128,-1,17
 596 424 596 424 596 446 c 0,18,19
 596 451 596 451 596 453 c 2,20,-1
 596 1593 l 1,21,-1
 938 1593 l 1,22,-1
 938 422 l 2,23,24
 938 206 938 206 834.5 94 c 128,-1,25
 731 -18 731 -18 512 -17 c 1,26,27
 289 -18 289 -18 185.5 94 c 128,-1,28
 82 206 82 206 82 422 c 2,0,-1
EndSplineSet
EndChar

StartChar: V
Encoding: 86 86 57
Width: 932
Flags: W
LayerCount: 2
Fore
SplineSet
706 0 m 1,0,-1
 226 0 l 1,1,-1
 9 1593 l 1,2,-1
 364 1593 l 1,3,-1
 463 537 l 1,4,-1
 568 1593 l 1,5,-1
 923 1593 l 1,6,-1
 706 0 l 1,0,-1
EndSplineSet
EndChar

StartChar: W
Encoding: 87 87 58
Width: 1431
Flags: W
LayerCount: 2
Fore
SplineSet
455 588 m 1,0,-1
 554 1593 l 1,1,-1
 882 1593 l 1,2,-1
 976 588 l 1,3,-1
 1070 1593 l 1,4,-1
 1418 1593 l 1,5,-1
 1226 0 l 1,6,-1
 804 0 l 1,7,-1
 716 768 l 1,8,-1
 632 0 l 1,9,-1
 203 0 l 1,10,-1
 14 1593 l 1,11,-1
 358 1593 l 1,12,-1
 455 588 l 1,0,-1
EndSplineSet
EndChar

StartChar: X
Encoding: 88 88 59
Width: 952
Flags: W
LayerCount: 2
Fore
SplineSet
477 623 m 1,0,-1
 363 0 l 1,1,-1
 6 0 l 1,2,-1
 195 846 l 1,3,-1
 45 1593 l 1,4,-1
 389 1593 l 1,5,-1
 480 1049 l 1,6,-1
 561 1593 l 1,7,-1
 906 1593 l 1,8,-1
 756 846 l 1,9,-1
 944 0 l 1,10,-1
 588 0 l 1,11,-1
 477 623 l 1,0,-1
EndSplineSet
EndChar

StartChar: Y
Encoding: 89 89 60
Width: 859
Flags: W
LayerCount: 2
Fore
SplineSet
596 0 m 1,0,-1
 264 0 l 1,1,-1
 264 524 l 1,2,-1
 -17 1593 l 1,3,-1
 332 1593 l 1,4,-1
 430 1053 l 1,5,-1
 528 1593 l 1,6,-1
 876 1593 l 1,7,-1
 596 524 l 1,8,-1
 596 0 l 1,0,-1
EndSplineSet
EndChar

StartChar: Z
Encoding: 90 90 61
Width: 886
Flags: W
LayerCount: 2
Fore
SplineSet
34 0 m 1,0,-1
 34 303 l 1,1,-1
 456 1284 l 1,2,-1
 73 1284 l 1,3,-1
 73 1593 l 1,4,-1
 847 1593 l 1,5,-1
 847 1296 l 1,6,-1
 417 307 l 1,7,-1
 830 307 l 1,8,-1
 830 0 l 1,9,-1
 34 0 l 1,0,-1
EndSplineSet
EndChar

StartChar: bracketleft
Encoding: 91 91 62
Width: 699
Flags: W
LayerCount: 2
Fore
SplineSet
448 1312 m 1,0,-1
 448 281 l 1,1,-1
 650 281 l 1,2,-1
 650 0 l 1,3,-1
 96 0 l 1,4,-1
 96 1593 l 1,5,-1
 650 1593 l 1,6,-1
 650 1312 l 1,7,-1
 448 1312 l 1,0,-1
EndSplineSet
EndChar

StartChar: backslash
Encoding: 92 92 63
Width: 851
Flags: W
LayerCount: 2
Fore
SplineSet
440 0 m 1,0,-1
 29 1767 l 1,1,-1
 393 1767 l 1,2,-1
 803 0 l 1,3,-1
 440 0 l 1,0,-1
EndSplineSet
EndChar

StartChar: bracketright
Encoding: 93 93 64
Width: 699
Flags: W
LayerCount: 2
Fore
SplineSet
251 1312 m 1,0,-1
 49 1312 l 1,1,-1
 49 1593 l 1,2,-1
 603 1593 l 1,3,-1
 603 0 l 1,4,-1
 49 0 l 1,5,-1
 49 281 l 1,6,-1
 251 281 l 1,7,-1
 251 1312 l 1,0,-1
EndSplineSet
EndChar

StartChar: asciicircum
Encoding: 94 94 65
Width: 970
Flags: W
LayerCount: 2
Fore
SplineSet
689 1355 m 1,0,-1
 930 432 l 1,1,-1
 571 432 l 1,2,-1
 485 1027 l 1,3,-1
 399 432 l 1,4,-1
 40 432 l 1,5,-1
 281 1355 l 1,6,-1
 689 1355 l 1,0,-1
EndSplineSet
EndChar

StartChar: underscore
Encoding: 95 95 66
Width: 671
Flags: W
LayerCount: 2
Fore
SplineSet
10 -232 m 1,0,-1
 10 0 l 1,1,-1
 661 0 l 1,2,-1
 661 -232 l 1,3,-1
 10 -232 l 1,0,-1
EndSplineSet
EndChar

StartChar: grave
Encoding: 96 96 67
Width: 650
Flags: W
LayerCount: 2
Fore
SplineSet
526 1553 m 1,0,-1
 51 1647 l 1,1,-1
 51 1994 l 1,2,-1
 526 1776 l 1,3,-1
 526 1553 l 1,0,-1
EndSplineSet
EndChar

StartChar: a
Encoding: 97 97 68
Width: 1004
Flags: W
LayerCount: 2
Fore
SplineSet
41 430 m 0,0,1
 41 629 41 629 100 729 c 0,2,3
 151 815 151 815 277 874 c 0,4,5
 341 904 341 904 563 980 c 0,6,7
 563 981 563 981 563 983 c 0,8,9
 563 1015 563 1015 562.5 1035 c 128,-1,10
 562 1055 562 1055 561.5 1080 c 128,-1,11
 561 1105 561 1105 560 1120 c 128,-1,12
 559 1135 559 1135 557 1153 c 128,-1,13
 555 1171 555 1171 552.5 1180.5 c 128,-1,14
 550 1190 550 1190 545.5 1201.5 c 128,-1,15
 541 1213 541 1213 535.5 1219 c 128,-1,16
 530 1225 530 1225 523 1230 c 128,-1,17
 516 1235 516 1235 506.5 1237 c 128,-1,18
 497 1239 497 1239 486 1239 c 0,19,20
 412 1239 412 1239 412 1157 c 2,21,-1
 412 1056 l 1,22,-1
 64 1056 l 1,23,24
 63 1073 63 1073 63 1105 c 0,25,26
 63 1319 63 1319 164.5 1418.5 c 128,-1,27
 266 1518 266 1518 504 1518 c 0,28,29
 581 1518 581 1518 653 1496.5 c 128,-1,30
 725 1475 725 1475 787 1432.5 c 128,-1,31
 849 1390 849 1390 886.5 1315 c 128,-1,32
 924 1240 924 1240 924 1143 c 2,33,-1
 924 0 l 1,34,-1
 568 0 l 1,35,-1
 568 156 l 1,36,37
 550 90 550 90 485 36 c 128,-1,38
 420 -18 420 -18 345 -18 c 0,39,40
 291 -18 291 -18 250 -8.5 c 128,-1,41
 209 1 209 1 168 30 c 128,-1,42
 127 59 127 59 100.5 107.5 c 128,-1,43
 74 156 74 156 57.5 237.5 c 128,-1,44
 41 319 41 319 41 430 c 0,0,1
406 570 m 2,45,46
 406 570 406 570 406 395 c 0,47,48
 406 262 406 262 486 262 c 0,49,50
 508 262 508 262 524 274 c 128,-1,51
 540 286 540 286 548 305 c 128,-1,52
 556 324 556 324 559 342 c 128,-1,53
 562 360 562 360 562 379 c 2,54,-1
 562 774 l 1,55,56
 470 737 470 737 438 687.5 c 128,-1,57
 406 638 406 638 406 570 c 2,45,46
EndSplineSet
EndChar

StartChar: b
Encoding: 98 98 69
Width: 1044
Flags: W
LayerCount: 2
Fore
SplineSet
452 160 m 1,0,1
 452 160 452 160 452 0 c 1,2,-1
 84 0 l 1,3,-1
 84 1769 l 1,4,-1
 452 1769 l 1,5,-1
 452 1427 l 1,6,7
 542 1519 542 1519 652 1519 c 0,8,9
 673 1519 673 1519 688.5 1518.5 c 128,-1,10
 704 1518 704 1518 731.5 1514 c 128,-1,11
 759 1510 759 1510 779.5 1502.5 c 128,-1,12
 800 1495 800 1495 827 1481 c 128,-1,13
 854 1467 854 1467 874 1447 c 128,-1,14
 894 1427 894 1427 915 1396 c 128,-1,15
 936 1365 936 1365 949 1326 c 128,-1,16
 962 1287 962 1287 970.5 1232.5 c 128,-1,17
 979 1178 979 1178 979 1114 c 2,18,-1
 979 391 l 2,19,20
 979 312 979 312 965 248 c 128,-1,21
 951 184 951 184 929.5 142.5 c 128,-1,22
 908 101 908 101 877 69.5 c 128,-1,23
 846 38 846 38 818 22 c 128,-1,24
 790 6 790 6 757 -3.5 c 128,-1,25
 724 -13 724 -13 703.5 -15.5 c 128,-1,26
 683 -18 683 -18 663 -18 c 0,27,28
 518 -18 518 -18 452 160 c 1,0,1
452 1085 m 2,29,-1
 452 457 l 2,30,31
 452 344 452 344 474.5 303.5 c 128,-1,32
 497 263 497 263 542 263 c 0,33,34
 586 263 586 263 601 301 c 128,-1,35
 616 339 616 339 616 457 c 2,36,-1
 616 1081 l 2,37,38
 616 1174 616 1174 597 1206.5 c 128,-1,39
 578 1239 578 1239 540 1239 c 0,40,41
 501 1239 501 1239 476.5 1207 c 128,-1,42
 452 1175 452 1175 452 1085 c 2,29,-1
EndSplineSet
EndChar

StartChar: c
Encoding: 99 99 70
Width: 1004
Flags: W
LayerCount: 2
Fore
SplineSet
59 492 m 2,0,1
 59 492 59 492 59 954 c 0,2,3
 59 1258 59 1258 164 1388 c 128,-1,4
 269 1518 269 1518 517 1518 c 0,5,6
 710 1518 710 1518 831 1416 c 128,-1,7
 952 1314 952 1314 952 1135 c 2,8,-1
 952 879 l 1,9,-1
 587 879 l 1,10,-1
 587 1116 l 2,11,12
 587 1172 587 1172 570.5 1205.5 c 128,-1,13
 554 1239 554 1239 507 1239 c 0,14,15
 419 1239 419 1239 419 1114 c 2,16,-1
 419 387 l 2,17,18
 419 341 419 341 439 302.5 c 128,-1,19
 459 264 459 264 505 264 c 0,20,21
 518 264 518 264 530.5 269 c 128,-1,22
 543 274 543 274 557.5 286 c 128,-1,23
 572 298 572 298 580.5 324.5 c 128,-1,24
 589 351 589 351 589 389 c 2,25,-1
 587 614 l 1,26,-1
 952 614 l 1,27,-1
 952 379 l 2,28,29
 952 194 952 194 832.5 88 c 128,-1,30
 713 -18 713 -18 522 -18 c 0,31,32
 434 -18 434 -18 363 -1 c 128,-1,33
 292 16 292 16 244.5 43.5 c 128,-1,34
 197 71 197 71 162 113 c 128,-1,35
 127 155 127 155 107.5 197 c 128,-1,36
 88 239 88 239 76.5 293.5 c 128,-1,37
 65 348 65 348 62 392.5 c 128,-1,38
 59 437 59 437 59 492 c 2,0,1
EndSplineSet
EndChar

StartChar: d
Encoding: 100 100 71
Width: 1036
Flags: W
LayerCount: 2
Fore
SplineSet
64 477 m 2,0,1
 64 477 64 477 68 1153 c 0,2,3
 68 1225 68 1225 87 1289.5 c 128,-1,4
 106 1354 106 1354 143 1405.5 c 128,-1,5
 180 1457 180 1457 240.5 1487.5 c 128,-1,6
 301 1518 301 1518 377 1518 c 0,7,8
 520 1518 520 1518 594 1419 c 1,9,-1
 594 1767 l 1,10,-1
 952 1767 l 1,11,-1
 952 0 l 1,12,-1
 594 0 l 1,13,-1
 594 159 l 1,14,15
 556 58 556 58 499.5 20 c 128,-1,16
 443 -18 443 -18 371 -18 c 0,17,18
 319 -18 319 -18 276.5 -8.5 c 128,-1,19
 234 1 234 1 203.5 21.5 c 128,-1,20
 173 42 173 42 149.5 66.5 c 128,-1,21
 126 91 126 91 111 128 c 128,-1,22
 96 165 96 165 86.5 200.5 c 128,-1,23
 77 236 77 236 72 285.5 c 128,-1,24
 67 335 67 335 65.5 377.5 c 128,-1,25
 64 420 64 420 64 477 c 2,0,1
422 1083 m 2,26,-1
 422 520 l 2,27,28
 422 515 422 515 422 494 c 0,29,30
 422 466 422 466 422 460 c 0,31,32
 422 458 422 458 422 456 c 128,-1,33
 422 454 422 454 422 452 c 0,34,35
 422 264 422 264 508 264 c 0,36,37
 524 264 524 264 536.5 270 c 128,-1,38
 549 276 549 276 558 288.5 c 128,-1,39
 567 301 567 301 573.5 313 c 128,-1,40
 580 325 580 325 584 346 c 128,-1,41
 588 367 588 367 590.5 381.5 c 128,-1,42
 593 396 593 396 593.5 420.5 c 128,-1,43
 594 445 594 445 594.5 456.5 c 128,-1,44
 595 468 595 468 594.5 491.5 c 128,-1,45
 594 515 594 515 594 520 c 2,46,-1
 594 1083 l 2,47,48
 594 1106 594 1106 591.5 1128 c 128,-1,49
 589 1150 589 1150 581 1177.5 c 128,-1,50
 573 1205 573 1205 555 1222 c 128,-1,51
 537 1239 537 1239 510 1239 c 0,52,53
 482 1239 482 1239 463 1225 c 128,-1,54
 444 1211 444 1211 436 1185.5 c 128,-1,55
 428 1160 428 1160 425 1137 c 128,-1,56
 422 1114 422 1114 422 1083 c 2,26,-1
EndSplineSet
EndChar

StartChar: e
Encoding: 101 101 72
Width: 1000
Flags: W
LayerCount: 2
Fore
SplineSet
494 -18 m 0,0,1
 414 -18 414 -18 349 -1.5 c 128,-1,2
 284 15 284 15 239.5 41.5 c 128,-1,3
 195 68 195 68 162.5 108.5 c 128,-1,4
 130 149 130 149 111 191 c 128,-1,5
 92 233 92 233 80.5 287 c 128,-1,6
 69 341 69 341 65.5 387 c 128,-1,7
 62 433 62 433 62 489 c 2,8,-1
 62 1092 l 2,9,10
 62 1299 62 1299 180.5 1408.5 c 128,-1,11
 299 1518 299 1518 512 1518 c 0,12,13
 944 1518 944 1518 944 1092 c 2,14,-1
 944 983 l 2,15,16
 944 780 944 780 940 704 c 1,17,-1
 420 704 l 1,18,-1
 420 494 l 2,19,20
 420 484 420 484 419.5 461.5 c 128,-1,21
 419 439 419 439 419 427 c 0,22,23
 419 391 419 391 422 365.5 c 128,-1,24
 425 340 425 340 433 313.5 c 128,-1,25
 441 287 441 287 459.5 273.5 c 128,-1,26
 478 260 478 260 506 260 c 0,27,28
 535 260 535 260 553 280.5 c 128,-1,29
 571 301 571 301 578.5 339.5 c 128,-1,30
 586 378 586 378 588 408 c 128,-1,31
 590 438 590 438 590 483 c 0,32,33
 590 571 590 571 588 579 c 1,34,-1
 944 579 l 1,35,-1
 944 494 l 2,36,37
 944 369 944 369 925 281 c 128,-1,38
 906 193 906 193 857.5 122.5 c 128,-1,39
 809 52 809 52 719 17 c 128,-1,40
 629 -18 629 -18 494 -18 c 0,0,1
508 1249 m 0,41,42
 480 1249 480 1249 461 1234.5 c 128,-1,43
 442 1220 442 1220 433 1191 c 128,-1,44
 424 1162 424 1162 421 1131.5 c 128,-1,45
 418 1101 418 1101 418 1057 c 0,46,47
 418 1036 418 1036 419 994 c 128,-1,48
 420 952 420 952 420 931 c 1,49,-1
 588 931 l 1,50,-1
 588 1087 l 2,51,52
 588 1249 588 1249 508 1249 c 0,41,42
EndSplineSet
EndChar

StartChar: f
Encoding: 102 102 73
Width: 574
Flags: W
LayerCount: 2
Fore
SplineSet
107 0 m 1,0,-1
 107 1161 l 1,1,-1
 42 1161 l 1,2,3
 42 1208 42 1208 46 1434 c 1,4,-1
 107 1434 l 1,5,-1
 107 1536 l 2,6,7
 107 1778 107 1778 349 1778 c 0,8,9
 464 1778 464 1778 533 1749 c 1,10,-1
 533 1528 l 1,11,12
 511 1533 511 1533 500 1533 c 0,13,14
 472 1533 472 1533 463.5 1514 c 128,-1,15
 455 1495 455 1495 455 1453 c 2,16,-1
 455 1434 l 1,17,-1
 533 1434 l 1,18,-1
 533 1157 l 1,19,-1
 462 1157 l 1,20,-1
 462 0 l 1,21,-1
 107 0 l 1,0,-1
EndSplineSet
EndChar

StartChar: g
Encoding: 103 103 74
Width: 1040
Flags: W
LayerCount: 2
Fore
SplineSet
470 -220 m 0,0,1
 323 -220 323 -220 226.5 -195.5 c 128,-1,2
 130 -171 130 -171 40 -96 c 1,3,-1
 161 111 l 1,4,5
 292 33 292 33 423 33 c 0,6,7
 505 33 505 33 549 85 c 128,-1,8
 593 137 593 137 593 231 c 2,9,-1
 593 314 l 1,10,11
 549 160 549 160 364 160 c 0,12,13
 285 160 285 160 225.5 191 c 128,-1,14
 166 222 166 222 132 276 c 128,-1,15
 98 330 98 330 81.5 397 c 128,-1,16
 65 464 65 464 65 543 c 2,17,-1
 65 1106 l 2,18,19
 65 1223 65 1223 86 1304.5 c 128,-1,20
 107 1386 107 1386 148 1432 c 128,-1,21
 189 1478 189 1478 241.5 1498 c 128,-1,22
 294 1518 294 1518 364 1518 c 0,23,24
 400 1518 400 1518 432 1510 c 128,-1,25
 464 1502 464 1502 497 1482.5 c 128,-1,26
 530 1463 530 1463 555.5 1424.5 c 128,-1,27
 581 1386 581 1386 593 1331 c 1,28,-1
 593 1500 l 1,29,-1
 958 1500 l 1,30,-1
 958 254 l 2,31,32
 958 117 958 117 926.5 24 c 128,-1,33
 895 -69 895 -69 830.5 -122 c 128,-1,34
 766 -175 766 -175 679.5 -197.5 c 128,-1,35
 593 -220 593 -220 470 -220 c 0,0,1
505 1243 m 0,36,37
 478 1243 478 1243 460.5 1231 c 128,-1,38
 443 1219 443 1219 436.5 1195.5 c 128,-1,39
 430 1172 430 1172 428.5 1157 c 128,-1,40
 427 1142 427 1142 427 1116 c 2,41,-1
 427 582 l 2,42,43
 427 554 427 554 429 534.5 c 128,-1,44
 431 515 431 515 438 487.5 c 128,-1,45
 445 460 445 460 463 445 c 128,-1,46
 481 430 481 430 509 430 c 0,47,48
 593 430 593 430 593 582 c 2,49,-1
 593 1116 l 2,50,51
 593 1159 593 1159 569.5 1201 c 128,-1,52
 546 1243 546 1243 505 1243 c 0,36,37
EndSplineSet
EndChar

StartChar: h
Encoding: 104 104 75
Width: 1059
Flags: W
LayerCount: 2
Fore
SplineSet
84 0 m 1,0,-1
 84 1767 l 1,1,-1
 452 1767 l 1,2,-1
 452 1351 l 1,3,4
 510 1519 510 1519 671 1519 c 0,5,6
 813 1519 813 1519 896 1427.5 c 128,-1,7
 979 1336 979 1336 979 1155 c 2,8,-1
 979 0 l 1,9,-1
 620 0 l 1,10,-1
 620 1034 l 2,11,12
 620 1040 620 1040 620.5 1057.5 c 128,-1,13
 621 1075 621 1075 621 1085 c 0,14,15
 621 1243 621 1243 532 1243 c 0,16,17
 506 1243 506 1243 479 1217.5 c 128,-1,18
 452 1192 452 1192 452 1135 c 2,19,-1
 452 0 l 1,20,-1
 84 0 l 1,0,-1
EndSplineSet
EndChar

StartChar: i
Encoding: 105 105 76
Width: 526
Flags: W
LayerCount: 2
Fore
SplineSet
84 0 m 1,0,-1
 84 1501 l 1,1,-1
 442 1501 l 1,2,-1
 442 0 l 1,3,-1
 84 0 l 1,0,-1
84 1593 m 1,4,-1
 84 1769 l 1,5,-1
 442 1769 l 1,6,-1
 442 1593 l 1,7,-1
 84 1593 l 1,4,-1
EndSplineSet
EndChar

StartChar: j
Encoding: 106 106 77
Width: 550
Flags: W
LayerCount: 2
Fore
SplineSet
113 1500 m 1,0,-1
 471 1500 l 1,1,-1
 471 166 l 2,2,3
 471 -3 471 -3 403.5 -89.5 c 128,-1,4
 336 -176 336 -176 189 -176 c 0,5,6
 74 -176 74 -176 37 -150 c 1,7,8
 37 -150 37 -150 37 90 c 1,9,10
 53 85 53 85 70 85 c 0,11,12
 95 85 95 85 104 102.5 c 128,-1,13
 113 120 113 120 113 156 c 2,14,-1
 113 1500 l 1,0,-1
113 1593 m 1,15,-1
 113 1769 l 1,16,-1
 471 1769 l 1,17,-1
 471 1593 l 1,18,-1
 113 1593 l 1,15,-1
EndSplineSet
EndChar

StartChar: k
Encoding: 107 107 78
Width: 1017
Flags: W
LayerCount: 2
Fore
SplineSet
84 0 m 1,0,-1
 84 1769 l 1,1,-1
 438 1769 l 1,2,-1
 438 983 l 1,3,-1
 610 1500 l 1,4,-1
 981 1500 l 1,5,-1
 756 848 l 1,6,-1
 1042 0 l 1,7,-1
 661 0 l 1,8,-1
 438 707 l 1,9,-1
 438 0 l 1,10,-1
 84 0 l 1,0,-1
EndSplineSet
EndChar

StartChar: l
Encoding: 108 108 79
Width: 532
Flags: W
LayerCount: 2
Fore
SplineSet
448 0 m 1,0,-1
 84 0 l 1,1,-1
 84 1767 l 1,2,-1
 448 1767 l 1,3,-1
 448 0 l 1,0,-1
EndSplineSet
EndChar

StartChar: m
Encoding: 109 109 80
Width: 1575
Flags: W
LayerCount: 2
Fore
SplineSet
84 1501 m 1,0,-1
 434 1501 l 1,1,-1
 434 1326 l 1,2,3
 447 1376 447 1376 469 1412.5 c 128,-1,4
 491 1449 491 1449 515.5 1469 c 128,-1,5
 540 1489 540 1489 571.5 1501 c 128,-1,6
 603 1513 603 1513 629 1516 c 128,-1,7
 655 1519 655 1519 686 1519 c 0,8,9
 732 1519 732 1519 776 1506 c 128,-1,10
 820 1493 820 1493 864 1456.5 c 128,-1,11
 908 1420 908 1420 929 1365 c 1,12,13
 976 1450 976 1450 1035.5 1484.5 c 128,-1,14
 1095 1519 1095 1519 1184 1519 c 0,15,16
 1251 1519 1251 1519 1303.5 1502 c 128,-1,17
 1356 1485 1356 1485 1389.5 1452.5 c 128,-1,18
 1423 1420 1423 1420 1445.5 1381.5 c 128,-1,19
 1468 1343 1468 1343 1478.5 1292 c 128,-1,20
 1489 1241 1489 1241 1493 1196 c 128,-1,21
 1497 1151 1497 1151 1497 1096 c 2,22,-1
 1493 0 l 1,23,-1
 1132 0 l 1,24,-1
 1132 1102 l 2,25,26
 1132 1247 1132 1247 1059 1247 c 0,27,28
 1031 1247 1031 1247 1010.5 1229.5 c 128,-1,29
 990 1212 990 1212 980 1184 c 128,-1,30
 970 1156 970 1156 966 1129.5 c 128,-1,31
 962 1103 962 1103 962 1077 c 2,32,-1
 962 0 l 1,33,-1
 604 0 l 1,34,-1
 604 1059 l 2,35,36
 604 1062 604 1062 604 1077.5 c 128,-1,37
 604 1093 604 1093 604 1101.5 c 128,-1,38
 604 1110 604 1110 603.5 1127.5 c 128,-1,39
 603 1145 603 1145 601 1155.5 c 128,-1,40
 599 1166 599 1166 596 1181.5 c 128,-1,41
 593 1197 593 1197 587.5 1206.5 c 128,-1,42
 582 1216 582 1216 575 1225 c 128,-1,43
 568 1234 568 1234 557.5 1238.5 c 128,-1,44
 547 1243 547 1243 534 1243 c 0,45,46
 505 1243 505 1243 484.5 1225 c 128,-1,47
 464 1207 464 1207 453.5 1177 c 128,-1,48
 443 1147 443 1147 438.5 1118 c 128,-1,49
 434 1089 434 1089 434 1059 c 2,50,-1
 434 0 l 1,51,-1
 84 0 l 1,52,-1
 84 1501 l 1,0,-1
EndSplineSet
EndChar

StartChar: n
Encoding: 110 110 81
Width: 1045
Flags: W
LayerCount: 2
Fore
SplineSet
84 0 m 1,0,-1
 84 1501 l 1,1,-1
 442 1501 l 1,2,-1
 442 1329 l 1,3,4
 464 1426 464 1426 523.5 1472 c 128,-1,5
 583 1518 583 1518 668 1518 c 0,6,7
 809 1518 809 1518 887 1429.5 c 128,-1,8
 965 1341 965 1341 965 1157 c 2,9,-1
 965 0 l 1,10,-1
 612 0 l 1,11,-1
 612 1120 l 2,12,13
 612 1167 612 1167 593 1203 c 128,-1,14
 574 1239 574 1239 532 1239 c 0,15,16
 506 1239 506 1239 488 1224.5 c 128,-1,17
 470 1210 470 1210 461.5 1191.5 c 128,-1,18
 453 1173 453 1173 448 1143 c 128,-1,19
 443 1113 443 1113 442.5 1097 c 128,-1,20
 442 1081 442 1081 442 1055 c 2,21,-1
 442 0 l 1,22,-1
 84 0 l 1,0,-1
EndSplineSet
EndChar

StartChar: o
Encoding: 111 111 82
Width: 1018
Flags: W
LayerCount: 2
Fore
SplineSet
509 -18 m 0,0,1
 61 -18 61 -18 61 449 c 2,2,-1
 61 1051 l 2,3,4
 61 1266 61 1266 181 1392 c 128,-1,5
 301 1518 301 1518 509 1518 c 0,6,7
 718 1518 718 1518 838 1392 c 128,-1,8
 958 1266 958 1266 958 1051 c 2,9,-1
 958 449 l 2,10,11
 958 214 958 214 843.5 98 c 128,-1,12
 729 -18 729 -18 509 -18 c 0,0,1
425 1108 m 2,13,-1
 425 375 l 2,14,15
 425 315 425 315 448.5 287.5 c 128,-1,16
 472 260 472 260 509 260 c 128,-1,17
 546 260 546 260 569.5 287.5 c 128,-1,18
 593 315 593 315 593 375 c 2,19,-1
 593 1108 l 2,20,21
 593 1239 593 1239 509 1239 c 128,-1,22
 425 1239 425 1239 425 1108 c 2,13,-1
EndSplineSet
EndChar

StartChar: p
Encoding: 112 112 83
Width: 1037
Flags: W
LayerCount: 2
Fore
SplineSet
446 -186 m 1,0,-1
 82 -186 l 1,1,-1
 82 1500 l 1,2,-1
 446 1500 l 1,3,-1
 446 1419 l 1,4,5
 527 1518 527 1518 661 1518 c 0,6,7
 733 1518 733 1518 788.5 1495 c 128,-1,8
 844 1472 844 1472 878.5 1433 c 128,-1,9
 913 1394 913 1394 934.5 1336 c 128,-1,10
 956 1278 956 1278 964.5 1215 c 128,-1,11
 973 1152 973 1152 973 1075 c 2,12,-1
 973 526 l 2,13,14
 973 524 973 524 973 521 c 0,15,16
 973 449 973 449 972 411.5 c 128,-1,17
 971 374 971 374 965 307 c 128,-1,18
 959 240 959 240 947.5 203 c 128,-1,19
 936 166 936 166 912.5 117.5 c 128,-1,20
 889 69 889 69 855.5 44 c 128,-1,21
 822 19 822 19 770 0.5 c 128,-1,22
 718 -18 718 -18 651 -18 c 0,23,24
 516 -18 516 -18 446 59 c 1,25,-1
 446 -186 l 1,0,-1
446 1079 m 2,26,27
 446 1079 446 1079 446 422 c 0,28,29
 446 341 446 341 465.5 301.5 c 128,-1,30
 485 262 485 262 532 262 c 0,31,32
 574 262 574 262 592 302.5 c 128,-1,33
 610 343 610 343 610 438 c 2,34,-1
 610 1075 l 2,35,36
 610 1098 610 1098 609.5 1108 c 128,-1,37
 609 1118 609 1118 607.5 1141.5 c 128,-1,38
 606 1165 606 1165 601 1177.5 c 128,-1,39
 596 1190 596 1190 587.5 1205.5 c 128,-1,40
 579 1221 579 1221 564.5 1228 c 128,-1,41
 550 1235 550 1235 530 1235 c 0,42,43
 446 1235 446 1235 446 1079 c 2,26,27
EndSplineSet
EndChar

StartChar: q
Encoding: 113 113 84
Width: 1039
Flags: W
LayerCount: 2
Fore
SplineSet
591 -186 m 1,0,-1
 591 90 l 1,1,2
 552 37 552 37 497.5 9.5 c 128,-1,3
 443 -18 443 -18 386 -18 c 0,4,5
 319 -18 319 -18 267 -2 c 128,-1,6
 215 14 215 14 181.5 36.5 c 128,-1,7
 148 59 148 59 125 102.5 c 128,-1,8
 102 146 102 146 90.5 180 c 128,-1,9
 79 214 79 214 73 276.5 c 128,-1,10
 67 339 67 339 66 375.5 c 128,-1,11
 65 412 65 412 65 482 c 0,12,13
 65 485 65 485 65 487 c 2,14,-1
 65 1075 l 2,15,16
 65 1152 65 1152 73.5 1215 c 128,-1,17
 82 1278 82 1278 103.5 1336 c 128,-1,18
 125 1394 125 1394 159.5 1433 c 128,-1,19
 194 1472 194 1472 249 1495 c 128,-1,20
 304 1518 304 1518 376 1518 c 0,21,22
 511 1518 511 1518 591 1419 c 1,23,-1
 591 1500 l 1,24,-1
 956 1500 l 1,25,-1
 956 -186 l 1,26,-1
 591 -186 l 1,0,-1
591 1079 m 2,27,28
 591 1235 591 1235 507 1235 c 0,29,30
 487 1235 487 1235 472.5 1228 c 128,-1,31
 458 1221 458 1221 449.5 1205.5 c 128,-1,32
 441 1190 441 1190 436 1177.5 c 128,-1,33
 431 1165 431 1165 429.5 1141.5 c 128,-1,34
 428 1118 428 1118 427.5 1108 c 128,-1,35
 427 1098 427 1098 427 1075 c 2,36,-1
 427 438 l 2,37,38
 427 343 427 343 445 302.5 c 128,-1,39
 463 262 463 262 505 262 c 0,40,41
 553 262 553 262 572 301.5 c 128,-1,42
 591 341 591 341 591 422 c 2,43,-1
 591 1079 l 2,27,28
EndSplineSet
EndChar

StartChar: r
Encoding: 114 114 85
Width: 945
Flags: W
LayerCount: 2
Fore
SplineSet
84 0 m 1,0,-1
 84 1500 l 1,1,-1
 442 1500 l 1,2,-1
 442 1333 l 1,3,4
 472 1436 472 1436 526 1477 c 128,-1,5
 580 1518 580 1518 663 1518 c 0,6,7
 763 1518 763 1518 839 1456.5 c 128,-1,8
 915 1395 915 1395 915 1278 c 2,9,-1
 915 776 l 1,10,-1
 565 776 l 1,11,-1
 565 1135 l 2,12,13
 565 1162 565 1162 562.5 1180.5 c 128,-1,14
 560 1199 560 1199 546.5 1216 c 128,-1,15
 533 1233 533 1233 508 1233 c 0,16,17
 482 1233 482 1233 462 1210 c 128,-1,18
 442 1187 442 1187 442 1147 c 2,19,-1
 442 0 l 1,20,-1
 84 0 l 1,0,-1
EndSplineSet
EndChar

StartChar: s
Encoding: 115 115 86
Width: 974
Flags: W
LayerCount: 2
Fore
SplineSet
559 1053 m 1,0,-1
 557 1110 l 2,1,2
 557 1130 557 1130 554 1150 c 128,-1,3
 551 1170 551 1170 543 1191.5 c 128,-1,4
 535 1213 535 1213 519 1226 c 128,-1,5
 503 1239 503 1239 481 1239 c 0,6,7
 444 1239 444 1239 424.5 1218 c 128,-1,8
 405 1197 405 1197 405 1159 c 0,9,10
 405 1079 405 1079 469 1032 c 2,11,-1
 690 870 l 2,12,13
 756 821 756 821 804 767 c 128,-1,14
 852 713 852 713 876.5 668.5 c 128,-1,15
 901 624 901 624 915.5 573 c 128,-1,16
 930 522 930 522 933 490 c 128,-1,17
 936 458 936 458 936 418 c 0,18,19
 936 203 936 203 814.5 92.5 c 128,-1,20
 693 -18 693 -18 485 -18 c 0,21,22
 41 -18 41 -18 41 434 c 1,23,-1
 43 553 l 1,24,-1
 401 553 l 1,25,-1
 403 377 l 2,26,27
 403 341 403 341 411.5 317.5 c 128,-1,28
 420 294 420 294 435 284 c 128,-1,29
 450 274 450 274 462.5 271 c 128,-1,30
 475 268 475 268 491 268 c 0,31,32
 563 268 563 268 563 385 c 0,33,34
 563 415 563 415 562 428.5 c 128,-1,35
 561 442 561 442 554.5 468.5 c 128,-1,36
 548 495 548 495 533.5 515 c 128,-1,37
 519 535 519 535 491.5 564 c 128,-1,38
 464 593 464 593 422 625 c 2,39,-1
 231 772 l 2,40,41
 169 820 169 820 130.5 865.5 c 128,-1,42
 92 911 92 911 74.5 961.5 c 128,-1,43
 57 1012 57 1012 52 1052.5 c 128,-1,44
 47 1093 47 1093 47 1157 c 0,45,46
 47 1272 47 1272 113 1356 c 128,-1,47
 179 1440 179 1440 277.5 1479 c 128,-1,48
 376 1518 376 1518 491 1518 c 0,49,50
 702 1518 702 1518 814.5 1411 c 128,-1,51
 927 1304 927 1304 927 1081 c 2,52,-1
 927 1053 l 1,53,-1
 559 1053 l 1,0,-1
EndSplineSet
EndChar

StartChar: t
Encoding: 116 116 87
Width: 569
Flags: W
LayerCount: 2
Fore
SplineSet
101 1761 m 1,0,-1
 449 1761 l 1,1,-1
 449 1442 l 1,2,-1
 513 1442 l 1,3,-1
 513 1169 l 1,4,-1
 449 1169 l 1,5,-1
 449 325 l 2,6,7
 449 306 449 306 450 295 c 128,-1,8
 451 284 451 284 454 271.5 c 128,-1,9
 457 259 457 259 465.5 253.5 c 128,-1,10
 474 248 474 248 487 248 c 128,-1,11
 500 248 500 248 513 252 c 1,12,-1
 513 8 l 1,13,14
 437 -18 437 -18 322 -18 c 0,15,16
 264 -18 264 -18 222.5 -2.5 c 128,-1,17
 181 13 181 13 158 35.5 c 128,-1,18
 135 58 135 58 121.5 93.5 c 128,-1,19
 108 129 108 129 104.5 160 c 128,-1,20
 101 191 101 191 101 231 c 2,21,-1
 101 1169 l 1,22,-1
 46 1169 l 1,23,-1
 46 1442 l 1,24,-1
 101 1442 l 1,25,-1
 101 1761 l 1,0,-1
EndSplineSet
EndChar

StartChar: u
Encoding: 117 117 88
Width: 1046
Flags: W
LayerCount: 2
Fore
SplineSet
606 1500 m 1,0,-1
 962 1500 l 1,1,-1
 962 0 l 1,2,-1
 604 0 l 1,3,-1
 604 160 l 1,4,5
 562 54 562 54 507.5 18 c 128,-1,6
 453 -18 453 -18 373 -18 c 0,7,8
 297 -18 297 -18 242 4.5 c 128,-1,9
 187 27 187 27 156 61.5 c 128,-1,10
 125 96 125 96 107.5 151.5 c 128,-1,11
 90 207 90 207 85 259 c 128,-1,12
 80 311 80 311 80 383 c 2,13,-1
 80 1500 l 1,14,-1
 440 1500 l 1,15,-1
 440 455 l 2,16,17
 440 341 440 341 453.5 302.5 c 128,-1,18
 467 264 467 264 520 264 c 0,19,20
 540 264 540 264 555.5 271.5 c 128,-1,21
 571 279 571 279 579.5 295 c 128,-1,22
 588 311 588 311 593.5 326 c 128,-1,23
 599 341 599 341 601 365.5 c 128,-1,24
 603 390 603 390 603.5 404 c 128,-1,25
 604 418 604 418 604 443 c 0,26,27
 604 451 604 451 604 455 c 2,28,-1
 606 1500 l 1,0,-1
EndSplineSet
EndChar

StartChar: v
Encoding: 118 118 89
Width: 904
Flags: W
LayerCount: 2
Fore
SplineSet
657 0 m 1,0,-1
 243 0 l 1,1,-1
 2 1500 l 1,2,-1
 361 1500 l 1,3,-1
 435 741 l 1,4,-1
 447 498 l 1,5,-1
 461 743 l 1,6,-1
 544 1500 l 1,7,-1
 902 1500 l 1,8,-1
 657 0 l 1,0,-1
EndSplineSet
EndChar

StartChar: w
Encoding: 119 119 90
Width: 1444
Flags: W
LayerCount: 2
Fore
SplineSet
902 1500 m 1,0,-1
 986 583 l 1,1,-1
 1078 1500 l 1,2,-1
 1435 1500 l 1,3,-1
 1219 0 l 1,4,-1
 813 0 l 1,5,-1
 720 921 l 1,6,-1
 631 0 l 1,7,-1
 225 0 l 1,8,-1
 9 1500 l 1,9,-1
 366 1500 l 1,10,-1
 455 583 l 1,11,-1
 542 1500 l 1,12,-1
 902 1500 l 1,0,-1
EndSplineSet
EndChar

StartChar: x
Encoding: 120 120 91
Width: 982
Flags: W
LayerCount: 2
Fore
SplineSet
488 684 m 1,0,-1
 367 0 l 1,1,-1
 17 0 l 1,2,-1
 181 843 l 1,3,-1
 53 1501 l 1,4,-1
 401 1501 l 1,5,-1
 489 989 l 1,6,-1
 577 1501 l 1,7,-1
 931 1501 l 1,8,-1
 804 834 l 1,9,-1
 954 0 l 1,10,-1
 603 0 l 1,11,-1
 488 684 l 1,0,-1
EndSplineSet
EndChar

StartChar: y
Encoding: 121 121 92
Width: 905
Flags: W
LayerCount: 2
Fore
SplineSet
31 -186 m 1,0,-1
 31 41 l 1,1,-1
 143 41 l 2,2,3
 199 41 199 41 219.5 55 c 128,-1,4
 240 69 240 69 240 103 c 0,5,6
 240 122 240 122 235 155 c 2,7,-1
 4 1501 l 1,8,-1
 357 1501 l 1,9,-1
 423 821 l 1,10,-1
 447 489 l 1,11,-1
 475 821 l 1,12,-1
 555 1501 l 1,13,-1
 910 1501 l 1,14,-1
 632 -14 l 1,15,16
 628 -42 628 -42 620.5 -65 c 128,-1,17
 613 -88 613 -88 605.5 -105 c 128,-1,18
 598 -122 598 -122 585 -135 c 128,-1,19
 572 -148 572 -148 562 -156.5 c 128,-1,20
 552 -165 552 -165 534 -171 c 128,-1,21
 516 -177 516 -177 504.5 -180 c 128,-1,22
 493 -183 493 -183 470.5 -184.5 c 128,-1,23
 448 -186 448 -186 435 -186 c 128,-1,24
 422 -186 422 -186 396 -186 c 2,25,-1
 31 -186 l 1,0,-1
EndSplineSet
EndChar

StartChar: z
Encoding: 122 122 93
Width: 878
Flags: W
LayerCount: 2
Fore
SplineSet
32 0 m 1,0,-1
 32 272 l 1,1,-1
 445 1194 l 1,2,-1
 71 1194 l 1,3,-1
 71 1500 l 1,4,-1
 841 1500 l 1,5,-1
 841 1194 l 1,6,-1
 439 301 l 1,7,-1
 816 301 l 1,8,-1
 816 0 l 1,9,-1
 32 0 l 1,0,-1
EndSplineSet
EndChar

StartChar: braceleft
Encoding: 123 123 94
Width: 698
Flags: W
LayerCount: 2
Fore
SplineSet
161 1225 m 0,0,1
 161 1416 161 1416 287 1516 c 128,-1,2
 413 1616 413 1616 652 1623 c 1,3,-1
 652 1356 l 1,4,5
 604 1353 604 1353 573.5 1344.5 c 128,-1,6
 543 1336 543 1336 531 1322.5 c 128,-1,7
 519 1309 519 1309 516 1299 c 128,-1,8
 513 1289 513 1289 513 1272 c 0,9,10
 513 1179 513 1179 505 1110 c 128,-1,11
 497 1041 497 1041 486 998.5 c 128,-1,12
 475 956 475 956 449 917.5 c 128,-1,13
 423 879 423 879 404 859 c 128,-1,14
 385 839 385 839 343 802 c 1,15,16
 384 766 384 766 404 746 c 128,-1,17
 424 726 424 726 449.5 688 c 128,-1,18
 475 650 475 650 486 608 c 128,-1,19
 497 566 497 566 505 498 c 128,-1,20
 513 430 513 430 513 338 c 1,21,22
 512 323 512 323 513 316 c 128,-1,23
 514 309 514 309 521 295 c 128,-1,24
 528 281 528 281 541.5 274 c 128,-1,25
 555 267 555 267 583 259.5 c 128,-1,26
 611 252 611 252 652 249 c 1,27,-1
 652 -18 l 1,28,29
 413 -11 413 -11 287 86 c 128,-1,30
 161 183 161 183 161 370 c 0,31,32
 161 376 161 376 161 387 c 0,33,34
 161 427 161 427 161 444.5 c 128,-1,35
 161 462 161 462 160 491.5 c 128,-1,36
 159 521 159 521 157.5 532.5 c 128,-1,37
 156 544 156 544 152.5 565 c 128,-1,38
 149 586 149 586 144 594 c 128,-1,39
 139 602 139 602 131 615.5 c 128,-1,40
 123 629 123 629 113.5 634 c 128,-1,41
 104 639 104 639 90 647.5 c 128,-1,42
 76 656 76 656 59.5 660.5 c 128,-1,43
 43 665 43 665 22 669 c 1,44,-1
 22 936 l 1,45,46
 49 941 49 941 68 946.5 c 128,-1,47
 87 952 87 952 102.5 963 c 128,-1,48
 118 974 118 974 127.5 981.5 c 128,-1,49
 137 989 137 989 144 1008.5 c 128,-1,50
 151 1028 151 1028 154 1041 c 128,-1,51
 157 1054 157 1054 159 1086 c 128,-1,52
 161 1118 161 1118 161 1139.5 c 128,-1,53
 161 1161 161 1161 161 1208 c 0,54,55
 161 1219 161 1219 161 1225 c 0,0,1
EndSplineSet
EndChar

StartChar: bar
Encoding: 124 124 95
Width: 509
Flags: W
LayerCount: 2
Fore
SplineSet
414 -84 m 1,0,-1
 95 -84 l 1,1,-1
 95 1683 l 1,2,-1
 414 1683 l 1,3,-1
 414 -84 l 1,0,-1
EndSplineSet
EndChar

StartChar: braceright
Encoding: 125 125 96
Width: 699
Flags: W
LayerCount: 2
Fore
SplineSet
538 1225 m 0,0,1
 538 1219 538 1219 538 1208 c 0,2,3
 538 1161 538 1161 538 1139.5 c 128,-1,4
 538 1118 538 1118 540 1086 c 128,-1,5
 542 1054 542 1054 545 1041 c 128,-1,6
 548 1028 548 1028 555 1008.5 c 128,-1,7
 562 989 562 989 571.5 981.5 c 128,-1,8
 581 974 581 974 596.5 963 c 128,-1,9
 612 952 612 952 631 946.5 c 128,-1,10
 650 941 650 941 677 936 c 1,11,-1
 677 669 l 1,12,13
 656 665 656 665 639.5 660.5 c 128,-1,14
 623 656 623 656 609 647.5 c 128,-1,15
 595 639 595 639 585.5 634 c 128,-1,16
 576 629 576 629 568 615.5 c 128,-1,17
 560 602 560 602 555 594 c 128,-1,18
 550 586 550 586 546.5 565 c 128,-1,19
 543 544 543 544 541.5 532.5 c 128,-1,20
 540 521 540 521 539 491.5 c 128,-1,21
 538 462 538 462 538 444.5 c 128,-1,22
 538 427 538 427 538 387 c 0,23,24
 538 376 538 376 538 370 c 0,25,26
 538 183 538 183 412 86 c 128,-1,27
 286 -11 286 -11 47 -18 c 1,28,-1
 47 249 l 1,29,30
 88 252 88 252 116 259.5 c 128,-1,31
 144 267 144 267 157.5 274 c 128,-1,32
 171 281 171 281 178 295 c 128,-1,33
 185 309 185 309 185.5 316 c 128,-1,34
 186 323 186 323 186 338 c 0,35,36
 186 430 186 430 194 498 c 128,-1,37
 202 566 202 566 213 608 c 128,-1,38
 224 650 224 650 249.5 688 c 128,-1,39
 275 726 275 726 295 746 c 128,-1,40
 315 766 315 766 356 802 c 1,41,42
 314 839 314 839 295 859 c 128,-1,43
 276 879 276 879 250 917.5 c 128,-1,44
 224 956 224 956 213 998.5 c 128,-1,45
 202 1041 202 1041 194 1110 c 128,-1,46
 186 1179 186 1179 186 1272 c 0,47,48
 186 1289 186 1289 183 1299 c 128,-1,49
 180 1309 180 1309 168 1322.5 c 128,-1,50
 156 1336 156 1336 125.5 1344.5 c 128,-1,51
 95 1353 95 1353 47 1356 c 1,52,-1
 47 1623 l 1,53,54
 286 1616 286 1616 412 1516 c 128,-1,55
 538 1416 538 1416 538 1225 c 0,0,1
EndSplineSet
EndChar

StartChar: asciitilde
Encoding: 126 126 97
Width: 959
Flags: W
LayerCount: 2
Fore
SplineSet
332 886 m 0,0,1
 288 886 288 886 254 807 c 1,2,-1
 12 923 l 1,3,4
 133 1222 133 1222 342 1222 c 0,5,6
 387 1222 387 1222 438.5 1195 c 128,-1,7
 490 1168 490 1168 538.5 1141 c 128,-1,8
 587 1114 587 1114 625 1114 c 0,9,10
 669 1114 669 1114 704 1193 c 1,11,-1
 946 1077 l 1,12,13
 823 776 823 776 614 776 c 0,14,15
 573 776 573 776 531.5 793 c 128,-1,16
 490 810 490 810 461 831 c 128,-1,17
 432 852 432 852 396.5 869 c 128,-1,18
 361 886 361 886 332 886 c 0,0,1
EndSplineSet
EndChar

StartChar: exclamdown
Encoding: 161 161 99
Width: 506
Flags: W
LayerCount: 2
Fore
SplineSet
74 1 m 1,0,-1
 144 1155 l 1,1,-1
 362 1155 l 1,2,-1
 432 1 l 1,3,-1
 74 1 l 1,0,-1
74 1593 m 1,4,-1
 432 1593 l 1,5,-1
 432 1295 l 1,6,-1
 74 1295 l 1,7,-1
 74 1593 l 1,4,-1
EndSplineSet
EndChar

StartChar: cent
Encoding: 162 162 100
Width: 1014
Flags: W
LayerCount: 2
Fore
SplineSet
434 -113 m 1,0,-1
 434 -13 l 1,1,2
 363 -5 363 -5 306 16.5 c 128,-1,3
 249 38 249 38 210.5 67 c 128,-1,4
 172 96 172 96 143.5 137 c 128,-1,5
 115 178 115 178 99.5 217.5 c 128,-1,6
 84 257 84 257 74.5 308 c 128,-1,7
 65 359 65 359 62.5 400 c 128,-1,8
 60 441 60 441 60 492 c 2,9,-1
 60 954 l 2,10,11
 60 1232 60 1232 146.5 1363 c 128,-1,12
 233 1494 233 1494 434 1514 c 1,13,-1
 434 1607 l 1,14,-1
 607 1607 l 1,15,-1
 607 1511 l 1,16,17
 764 1489 764 1489 858.5 1390.5 c 128,-1,18
 953 1292 953 1292 953 1135 c 2,19,-1
 953 879 l 1,20,-1
 588 879 l 1,21,-1
 588 1116 l 2,22,23
 588 1172 588 1172 571.5 1205.5 c 128,-1,24
 555 1239 555 1239 508 1239 c 0,25,26
 420 1239 420 1239 420 1114 c 2,27,-1
 420 387 l 2,28,29
 420 341 420 341 440 302.5 c 128,-1,30
 460 264 460 264 506 264 c 0,31,32
 519 264 519 264 531.5 269 c 128,-1,33
 544 274 544 274 558.5 286 c 128,-1,34
 573 298 573 298 581.5 324.5 c 128,-1,35
 590 351 590 351 590 389 c 2,36,-1
 588 614 l 1,37,-1
 953 614 l 1,38,-1
 953 379 l 2,39,40
 953 216 953 216 858.5 113 c 128,-1,41
 764 10 764 10 607 -12 c 1,42,-1
 607 -113 l 1,43,-1
 434 -113 l 1,0,-1
EndSplineSet
EndChar

StartChar: sterling
Encoding: 163 163 101
Width: 1006
Flags: W
LayerCount: 2
Fore
SplineSet
64 673 m 1,0,-1
 64 905 l 1,1,-1
 199 905 l 1,2,-1
 185 964 l 2,3,4
 171 1024 171 1024 157.5 1104 c 128,-1,5
 144 1184 144 1184 144 1224 c 0,6,7
 144 1315 144 1315 168.5 1384 c 128,-1,8
 193 1453 193 1453 232.5 1494.5 c 128,-1,9
 272 1536 272 1536 328 1562.5 c 128,-1,10
 384 1589 384 1589 440 1598.5 c 128,-1,11
 496 1608 496 1608 561 1608 c 0,12,13
 622 1608 622 1608 672 1598.5 c 128,-1,14
 722 1589 722 1589 776 1558 c 128,-1,15
 830 1527 830 1527 866.5 1476 c 128,-1,16
 903 1425 903 1425 926.5 1335.5 c 128,-1,17
 950 1246 950 1246 950 1125 c 1,18,-1
 631 1125 l 1,19,20
 631 1221 631 1221 618.5 1266.5 c 128,-1,21
 606 1312 606 1312 567 1312 c 0,22,23
 550 1312 550 1312 539.5 1306.5 c 128,-1,24
 529 1301 529 1301 523 1294 c 128,-1,25
 517 1287 517 1287 514.5 1267.5 c 128,-1,26
 512 1248 512 1248 511.5 1233.5 c 128,-1,27
 511 1219 511 1219 511 1186 c 0,28,29
 511 1178 511 1178 511 1173 c 0,30,31
 511 1127 511 1127 567 905 c 1,32,-1
 851 905 l 1,33,-1
 851 673 l 1,34,-1
 602 673 l 1,35,-1
 613 541 l 1,36,37
 610 490 610 490 593.5 445 c 128,-1,38
 577 400 577 400 558.5 374 c 128,-1,39
 540 348 540 348 517 326.5 c 128,-1,40
 494 305 494 305 485 299.5 c 128,-1,41
 476 294 476 294 471 291 c 1,42,-1
 941 291 l 1,43,-1
 941 0 l 1,44,-1
 59 0 l 1,45,-1
 59 281 l 1,46,47
 165 344 165 344 200 405 c 128,-1,48
 235 466 235 466 235 568 c 0,49,50
 235 634 235 634 226 673 c 1,51,-1
 64 673 l 1,0,-1
EndSplineSet
EndChar

StartChar: currency
Encoding: 164 164 102
Width: 1015
Flags: W
LayerCount: 2
Fore
SplineSet
507 545 m 0,0,1
 383 545 383 545 291 598 c 1,2,-1
 202 509 l 1,3,-1
 53 659 l 1,4,-1
 144 750 l 1,5,6
 91 848 91 848 91 964 c 0,7,8
 91 1081 91 1081 143 1178 c 1,9,-1
 53 1268 l 1,10,-1
 202 1418 l 1,11,-1
 289 1330 l 1,12,13
 386 1385 386 1385 507 1385 c 0,14,15
 627 1385 627 1385 725 1331 c 1,16,-1
 812 1418 l 1,17,-1
 962 1269 l 1,18,-1
 872 1179 l 1,19,20
 926 1082 926 1082 926 964 c 128,-1,21
 926 846 926 846 872 748 c 1,22,-1
 962 658 l 1,23,-1
 812 509 l 1,24,-1
 723 597 l 1,25,26
 630 545 630 545 507 545 c 0,0,1
507 1186 m 0,27,28
 409 1186 409 1186 354 1120 c 128,-1,29
 299 1054 299 1054 299 964 c 0,30,31
 299 873 299 873 354 807 c 128,-1,32
 409 741 409 741 507 741 c 128,-1,33
 605 741 605 741 660.5 808 c 128,-1,34
 716 875 716 875 716 966 c 0,35,36
 716 1059 716 1059 661 1122.5 c 128,-1,37
 606 1186 606 1186 507 1186 c 0,27,28
EndSplineSet
EndChar

StartChar: yen
Encoding: 165 165 103
Width: 969
Flags: W
LayerCount: 2
Fore
SplineSet
181 475 m 1,0,-1
 181 699 l 1,1,-1
 273 699 l 1,2,-1
 38 1593 l 1,3,-1
 387 1593 l 1,4,-1
 485 1053 l 1,5,-1
 583 1593 l 1,6,-1
 931 1593 l 1,7,-1
 697 699 l 1,8,-1
 785 699 l 1,9,-1
 785 475 l 1,10,-1
 651 475 l 1,11,-1
 651 408 l 1,12,-1
 785 408 l 1,13,-1
 785 176 l 1,14,-1
 651 176 l 1,15,-1
 651 0 l 1,16,-1
 319 0 l 1,17,-1
 319 176 l 1,18,-1
 181 176 l 1,19,-1
 181 408 l 1,20,-1
 319 408 l 1,21,-1
 319 475 l 1,22,-1
 181 475 l 1,0,-1
EndSplineSet
EndChar

StartChar: brokenbar
Encoding: 166 166 104
Width: 513
Flags: W
LayerCount: 2
Fore
SplineSet
416 -84 m 1,0,-1
 97 -84 l 1,1,-1
 97 676 l 1,2,-1
 416 676 l 1,3,-1
 416 -84 l 1,0,-1
416 923 m 1,4,-1
 97 923 l 1,5,-1
 97 1683 l 1,6,-1
 416 1683 l 1,7,-1
 416 923 l 1,4,-1
EndSplineSet
EndChar

StartChar: section
Encoding: 167 167 105
Width: 954
Flags: W
LayerCount: 2
Fore
SplineSet
569 324 m 0,0,1
 569 339 569 339 555.5 354.5 c 128,-1,2
 542 370 542 370 513.5 386.5 c 128,-1,3
 485 403 485 403 458 416.5 c 128,-1,4
 431 430 431 430 385 451.5 c 128,-1,5
 339 473 339 473 311 488 c 0,6,7
 199 545 199 545 137 626 c 128,-1,8
 75 707 75 707 75 795 c 0,9,10
 75 927 75 927 213 1031 c 1,11,12
 75 1132 75 1132 75 1275 c 0,13,14
 75 1414 75 1414 186 1510.5 c 128,-1,15
 297 1607 297 1607 481 1607 c 0,16,17
 680 1607 680 1607 785 1514.5 c 128,-1,18
 890 1422 890 1422 890 1221 c 1,19,-1
 585 1221 l 1,20,21
 581 1346 581 1346 492 1346 c 0,22,23
 448 1346 448 1346 422 1323 c 128,-1,24
 396 1300 396 1300 396 1264 c 0,25,26
 396 1249 396 1249 409.5 1234 c 128,-1,27
 423 1219 423 1219 451.5 1202.5 c 128,-1,28
 480 1186 480 1186 506.5 1172.5 c 128,-1,29
 533 1159 533 1159 578.5 1137.5 c 128,-1,30
 624 1116 624 1116 652 1101 c 0,31,32
 764 1043 764 1043 826.5 961.5 c 128,-1,33
 889 880 889 880 889 792 c 0,34,35
 889 660 889 660 751 557 c 1,36,37
 890 454 890 454 890 313 c 0,38,39
 890 174 890 174 779 77.5 c 128,-1,40
 668 -19 668 -19 484 -19 c 0,41,42
 275 -19 275 -19 165 73.5 c 128,-1,43
 55 166 55 166 55 367 c 1,44,-1
 390 367 l 1,45,46
 394 242 394 242 483 242 c 0,47,48
 523 242 523 242 546 265 c 128,-1,49
 569 288 569 288 569 324 c 0,0,1
573 681 m 1,50,51
 614 735 614 735 614 780 c 0,52,53
 614 849 614 849 412 917 c 1,54,55
 362 858 362 858 362 813 c 0,56,57
 362 776 362 776 415 745.5 c 128,-1,58
 468 715 468 715 573 681 c 1,50,51
EndSplineSet
EndChar

StartChar: dieresis
Encoding: 168 168 106
Width: 976
Flags: W
LayerCount: 2
Fore
SplineSet
67 1591 m 1,0,-1
 67 1889 l 1,1,-1
 425 1889 l 1,2,-1
 425 1591 l 1,3,-1
 67 1591 l 1,0,-1
551 1591 m 1,4,-1
 551 1889 l 1,5,-1
 909 1889 l 1,6,-1
 909 1591 l 1,7,-1
 551 1591 l 1,4,-1
EndSplineSet
EndChar

StartChar: copyright
Encoding: 169 169 107
Width: 1410
Flags: W
LayerCount: 2
Fore
SplineSet
274 1126 m 0,0,1
 207 1005 207 1005 207 862 c 128,-1,2
 207 719 207 719 274 597.5 c 128,-1,3
 341 476 341 476 455.5 405 c 128,-1,4
 570 334 570 334 705 334 c 128,-1,5
 840 334 840 334 954.5 405 c 128,-1,6
 1069 476 1069 476 1136 597.5 c 128,-1,7
 1203 719 1203 719 1203 862 c 128,-1,8
 1203 1005 1203 1005 1136 1126.5 c 128,-1,9
 1069 1248 1069 1248 954.5 1319 c 128,-1,10
 840 1390 840 1390 705 1390 c 128,-1,11
 570 1390 570 1390 455.5 1319 c 128,-1,12
 341 1248 341 1248 274 1126 c 0,0,1
136 532 m 256,13,14
 48 683 48 683 48 862 c 128,-1,15
 48 1041 48 1041 136 1192 c 128,-1,16
 224 1343 224 1343 375 1431 c 128,-1,17
 526 1519 526 1519 705 1519 c 128,-1,18
 884 1519 884 1519 1035 1431 c 128,-1,19
 1186 1343 1186 1343 1274 1192 c 128,-1,20
 1362 1041 1362 1041 1362 862 c 128,-1,21
 1362 683 1362 683 1274 532 c 128,-1,22
 1186 381 1186 381 1035 293 c 128,-1,23
 884 205 884 205 705 205 c 128,-1,24
 526 205 526 205 375 293 c 128,-1,25
 224 381 224 381 136 532 c 256,13,14
942 806 m 1,26,-1
 942 643 l 2,27,28
 942 424 942 424 699 424 c 0,29,30
 597 424 597 424 533 482 c 128,-1,31
 469 540 469 540 469 648 c 2,32,-1
 469 1049 l 2,33,34
 469 1178 469 1178 525.5 1241.5 c 128,-1,35
 582 1305 582 1305 703 1305 c 0,36,37
 806 1305 806 1305 872 1254.5 c 128,-1,38
 938 1204 938 1204 938 1105 c 2,39,-1
 938 952 l 1,40,-1
 749 952 l 1,41,-1
 749 1053 l 2,42,43
 749 1130 749 1130 703 1130 c 0,44,45
 676 1130 676 1130 667.5 1113 c 128,-1,46
 659 1096 659 1096 659 1066 c 2,47,-1
 659 657 l 2,48,49
 659 631 659 631 671.5 611.5 c 128,-1,50
 684 592 684 592 703 592 c 0,51,52
 749 592 749 592 749 657 c 2,53,-1
 749 806 l 1,54,-1
 942 806 l 1,26,-1
EndSplineSet
EndChar

StartChar: ordfeminine
Encoding: 170 170 108
Width: 828
Flags: W
LayerCount: 2
Fore
SplineSet
43 744 m 0,0,1
 43 902 43 902 90 982 c 0,2,3
 131 1050 131 1050 231 1097 c 0,4,5
 282 1121 282 1121 458 1181 c 0,6,7
 458 1182 458 1182 458 1183 c 0,8,9
 458 1209 458 1209 457.5 1224.5 c 128,-1,10
 457 1240 457 1240 456.5 1260 c 128,-1,11
 456 1280 456 1280 455.5 1292 c 128,-1,12
 455 1304 455 1304 453 1318 c 128,-1,13
 451 1332 451 1332 449.5 1339.5 c 128,-1,14
 448 1347 448 1347 444 1356.5 c 128,-1,15
 440 1366 440 1366 436 1370.5 c 128,-1,16
 432 1375 432 1375 426.5 1379 c 128,-1,17
 421 1383 421 1383 413.5 1384.5 c 128,-1,18
 406 1386 406 1386 397 1386 c 0,19,20
 338 1386 338 1386 338 1321 c 2,21,-1
 338 1241 l 1,22,-1
 62 1241 l 1,23,24
 61 1255 61 1255 61 1280 c 0,25,26
 61 1450 61 1450 141.5 1528.5 c 128,-1,27
 222 1607 222 1607 411 1607 c 0,28,29
 414 1607 414 1607 418 1607 c 0,30,31
 475 1607 475 1607 529 1591 c 0,32,33
 586 1574 586 1574 635.5 1540 c 128,-1,34
 685 1506 685 1506 714.5 1446.5 c 128,-1,35
 744 1387 744 1387 744 1310 c 2,36,-1
 744 403 l 1,37,-1
 462 403 l 1,38,-1
 462 527 l 1,39,40
 448 474 448 474 396.5 431.5 c 128,-1,41
 345 389 345 389 285 389 c 0,42,43
 242 389 242 389 209.5 396.5 c 128,-1,44
 177 404 177 404 144.5 427 c 128,-1,45
 112 450 112 450 91 488.5 c 128,-1,46
 70 527 70 527 56.5 591.5 c 128,-1,47
 43 656 43 656 43 744 c 0,0,1
333 855 m 2,48,-1
 333 716 l 2,49,50
 333 611 333 611 397 611 c 0,51,52
 414 611 414 611 427 620.5 c 128,-1,53
 440 630 440 630 446 645 c 128,-1,54
 452 660 452 660 454.5 674.5 c 128,-1,55
 457 689 457 689 457 704 c 2,56,-1
 457 1017 l 1,57,58
 384 988 384 988 358.5 948.5 c 128,-1,59
 333 909 333 909 333 855 c 2,48,-1
EndSplineSet
EndChar

StartChar: guillemotleft
Encoding: 171 171 109
Width: 1218
Flags: W
LayerCount: 2
Fore
SplineSet
624 545 m 1,0,-1
 624 959 l 1,1,-1
 1134 1230 l 1,2,-1
 1134 871 l 1,3,-1
 822 749 l 1,4,-1
 1134 618 l 1,5,-1
 1134 260 l 1,6,-1
 624 545 l 1,0,-1
46 545 m 1,7,-1
 46 959 l 1,8,-1
 556 1230 l 1,9,-1
 556 871 l 1,10,-1
 244 749 l 1,11,-1
 556 618 l 1,12,-1
 556 260 l 1,13,-1
 46 545 l 1,7,-1
EndSplineSet
EndChar

StartChar: logicalnot
Encoding: 172 172 110
Width: 868
Flags: W
LayerCount: 2
Fore
SplineSet
52 979 m 1,0,-1
 781 979 l 1,1,-1
 781 439 l 1,2,-1
 470 439 l 1,3,-1
 470 801 l 1,4,-1
 52 801 l 1,5,-1
 52 979 l 1,0,-1
EndSplineSet
EndChar

StartChar: registered
Encoding: 174 174 111
Width: 1410
Flags: W
LayerCount: 2
Fore
SplineSet
136 532 m 256,0,1
 48 683 48 683 48 862 c 128,-1,2
 48 1041 48 1041 136 1192 c 128,-1,3
 224 1343 224 1343 375 1431 c 128,-1,4
 526 1519 526 1519 705 1519 c 128,-1,5
 884 1519 884 1519 1035 1431 c 128,-1,6
 1186 1343 1186 1343 1274 1192 c 128,-1,7
 1362 1041 1362 1041 1362 862 c 128,-1,8
 1362 683 1362 683 1274 532 c 128,-1,9
 1186 381 1186 381 1035 293 c 128,-1,10
 884 205 884 205 705 205 c 128,-1,11
 526 205 526 205 375 293 c 128,-1,12
 224 381 224 381 136 532 c 256,0,1
274 1126 m 0,13,14
 207 1005 207 1005 207 862 c 128,-1,15
 207 719 207 719 274 597.5 c 128,-1,16
 341 476 341 476 455.5 405 c 128,-1,17
 570 334 570 334 705 334 c 128,-1,18
 840 334 840 334 954.5 405 c 128,-1,19
 1069 476 1069 476 1136 597.5 c 128,-1,20
 1203 719 1203 719 1203 862 c 128,-1,21
 1203 1005 1203 1005 1136 1126.5 c 128,-1,22
 1069 1248 1069 1248 954.5 1319 c 128,-1,23
 840 1390 840 1390 705 1390 c 128,-1,24
 570 1390 570 1390 455.5 1319 c 128,-1,25
 341 1248 341 1248 274 1126 c 0,13,14
673 818 m 1,26,-1
 673 430 l 1,27,-1
 483 430 l 1,28,-1
 483 1282 l 1,29,-1
 772 1282 l 2,30,31
 816 1282 816 1282 847.5 1270 c 128,-1,32
 879 1258 879 1258 897.5 1238.5 c 128,-1,33
 916 1219 916 1219 926.5 1186.5 c 128,-1,34
 937 1154 937 1154 940 1121.5 c 128,-1,35
 943 1089 943 1089 943 1043 c 0,36,37
 943 1013 943 1013 941 993.5 c 128,-1,38
 939 974 939 974 931 947 c 128,-1,39
 923 920 923 920 902.5 901.5 c 128,-1,40
 882 883 882 883 850 873 c 1,41,42
 929 858 929 858 929 751 c 2,43,-1
 929 430 l 1,44,-1
 745 430 l 1,45,-1
 745 762 l 2,46,47
 745 782 745 782 741 794 c 128,-1,48
 737 806 737 806 725.5 811 c 128,-1,49
 714 816 714 816 704 817 c 128,-1,50
 694 818 694 818 673 818 c 1,26,-1
674 1124 m 1,51,-1
 674 965 l 1,52,-1
 722 965 l 2,53,54
 759 965 759 965 759 1043 c 0,55,56
 759 1096 759 1096 742.5 1110 c 128,-1,57
 726 1124 726 1124 674 1124 c 1,51,-1
EndSplineSet
EndChar

StartChar: macron
Encoding: 175 175 112
Width: 491
Flags: W
LayerCount: 2
Fore
SplineSet
-40 1592 m 1,0,-1
 -40 1840 l 1,1,-1
 530 1840 l 1,2,-1
 530 1592 l 1,3,-1
 -40 1592 l 1,0,-1
EndSplineSet
EndChar

StartChar: degree
Encoding: 176 176 113
Width: 782
Flags: W
LayerCount: 2
Fore
SplineSet
285 1379 m 0,0,1
 249 1332 249 1332 249 1269 c 128,-1,2
 249 1206 249 1206 285.5 1159 c 128,-1,3
 322 1112 322 1112 391 1112 c 128,-1,4
 460 1112 460 1112 496.5 1159 c 128,-1,5
 533 1206 533 1206 533 1269 c 128,-1,6
 533 1332 533 1332 496.5 1379 c 128,-1,7
 460 1426 460 1426 391 1426 c 128,-1,8
 322 1426 322 1426 285 1379 c 0,0,1
131 1022 m 0,9,10
 37 1113 37 1113 37 1269 c 128,-1,11
 37 1425 37 1425 131.5 1516 c 128,-1,12
 226 1607 226 1607 390 1607 c 128,-1,13
 554 1607 554 1607 649 1516 c 128,-1,14
 744 1425 744 1425 744 1269 c 128,-1,15
 744 1113 744 1113 649 1022 c 128,-1,16
 554 931 554 931 390 931 c 128,-1,17
 226 931 226 931 131 1022 c 0,9,10
EndSplineSet
EndChar

StartChar: plusminus
Encoding: 177 177 114
Width: 761
Flags: W
LayerCount: 2
Fore
SplineSet
60 622 m 1,0,-1
 60 854 l 1,1,-1
 268 854 l 1,2,-1
 268 1062 l 1,3,-1
 500 1062 l 1,4,-1
 500 854 l 1,5,-1
 708 854 l 1,6,-1
 708 622 l 1,7,-1
 500 622 l 1,8,-1
 500 414 l 1,9,-1
 268 414 l 1,10,-1
 268 622 l 1,11,-1
 60 622 l 1,0,-1
101 -1 m 1,12,-1
 101 231 l 1,13,-1
 617 231 l 1,14,-1
 617 -1 l 1,15,-1
 101 -1 l 1,12,-1
EndSplineSet
EndChar

StartChar: uni00B2
Encoding: 178 178 115
Width: 646
Flags: W
LayerCount: 2
Fore
SplineSet
61 631 m 1,0,-1
 61 678 l 2,1,2
 61 823 61 823 165 976 c 0,3,4
 203 1032 203 1032 324 1178 c 0,5,6
 375 1238 375 1238 375 1341 c 0,7,8
 375 1424 375 1424 322 1424 c 0,9,10
 271 1424 271 1424 271 1337 c 2,11,-1
 271 1218 l 1,12,-1
 61 1218 l 1,13,-1
 59 1278 l 1,14,15
 59 1450 59 1450 116.5 1528 c 128,-1,16
 174 1606 174 1606 324 1606 c 0,17,18
 446 1606 446 1606 516.5 1539 c 128,-1,19
 587 1472 587 1472 587 1344 c 0,20,21
 587 1273 587 1273 567 1210 c 128,-1,22
 547 1147 547 1147 513 1096.5 c 128,-1,23
 479 1046 479 1046 444 1003 c 128,-1,24
 409 960 409 960 369.5 909 c 128,-1,25
 330 858 330 858 307 814 c 1,26,-1
 580 814 l 1,27,-1
 580 631 l 1,28,-1
 61 631 l 1,0,-1
EndSplineSet
EndChar

StartChar: uni00B3
Encoding: 179 179 116
Width: 629
Flags: W
LayerCount: 2
Fore
SplineSet
302 635 m 0,0,1
 178 635 178 635 115.5 699 c 128,-1,2
 53 763 53 763 53 904 c 2,3,-1
 53 1004 l 1,4,-1
 255 1004 l 1,5,-1
 255 903 l 2,6,7
 255 871 255 871 260.5 851 c 128,-1,8
 266 831 266 831 276.5 824 c 128,-1,9
 287 817 287 817 294 815 c 128,-1,10
 301 813 301 813 312 813 c 0,11,12
 340 813 340 813 351.5 837 c 128,-1,13
 363 861 363 861 363 935 c 0,14,15
 363 954 363 954 362.5 963 c 128,-1,16
 362 972 362 972 360.5 993.5 c 128,-1,17
 359 1015 359 1015 353.5 1027 c 128,-1,18
 348 1039 348 1039 339 1053.5 c 128,-1,19
 330 1068 330 1068 315 1075 c 128,-1,20
 300 1082 300 1082 279 1082 c 0,21,22
 266 1082 266 1082 259 1081 c 1,23,-1
 259 1254 l 1,24,25
 310 1254 310 1254 337 1275 c 128,-1,26
 364 1296 364 1296 364 1349 c 0,27,28
 364 1430 364 1430 316 1430 c 0,29,30
 292 1430 292 1430 280 1419 c 128,-1,31
 268 1408 268 1408 266.5 1391.5 c 128,-1,32
 265 1375 265 1375 264.5 1355 c 128,-1,33
 264 1335 264 1335 263 1317 c 1,34,-1
 59 1317 l 1,35,-1
 58 1351 l 1,36,37
 59 1494 59 1494 126 1550 c 128,-1,38
 193 1606 193 1606 315 1606 c 0,39,40
 567 1606 567 1606 567 1351 c 0,41,42
 567 1318 567 1318 563.5 1293 c 128,-1,43
 560 1268 560 1268 551 1242.5 c 128,-1,44
 542 1217 542 1217 523 1198.5 c 128,-1,45
 504 1180 504 1180 475 1170 c 1,46,47
 513 1153 513 1153 530.5 1134 c 128,-1,48
 548 1115 548 1115 559 1068.5 c 128,-1,49
 570 1022 570 1022 570 935 c 0,50,51
 570 789 570 789 507 712 c 128,-1,52
 444 635 444 635 302 635 c 0,0,1
EndSplineSet
EndChar

StartChar: acute
Encoding: 180 180 117
Width: 650
Flags: HW
LayerCount: 2
Fore
SplineSet
1 1593 m 5,0,-1
 1 1816 l 5,1,-1
 476 2034 l 5,2,-1
 476 1687 l 5,3,-1
 1 1593 l 5,0,-1
EndSplineSet
EndChar

StartChar: uni00B5
Encoding: 181 181 118
Width: 1070
Flags: W
LayerCount: 2
Fore
SplineSet
619 1500 m 1,0,-1
 975 1500 l 1,1,-1
 975 0 l 1,2,-1
 617 0 l 1,3,-1
 617 160 l 1,4,5
 585 78 585 78 544.5 38.5 c 128,-1,6
 504 -1 504 -1 453 -11 c 1,7,-1
 453 -186 l 1,8,-1
 93 -186 l 1,9,-1
 93 1500 l 1,10,-1
 453 1500 l 1,11,-1
 453 455 l 2,12,13
 453 341 453 341 466.5 302.5 c 128,-1,14
 480 264 480 264 533 264 c 0,15,16
 553 264 553 264 568.5 271.5 c 128,-1,17
 584 279 584 279 592.5 295 c 128,-1,18
 601 311 601 311 606.5 326 c 128,-1,19
 612 341 612 341 614 365.5 c 128,-1,20
 616 390 616 390 616.5 404 c 128,-1,21
 617 418 617 418 617 443 c 0,22,23
 617 451 617 451 617 455 c 2,24,-1
 619 1500 l 1,0,-1
EndSplineSet
EndChar

StartChar: paragraph
Encoding: 182 182 119
Width: 1080
Flags: W
LayerCount: 2
Fore
SplineSet
391 0 m 1,0,-1
 391 797 l 1,1,2
 290 808 290 808 221 842 c 128,-1,3
 152 876 152 876 114 931.5 c 128,-1,4
 76 987 76 987 60 1053.5 c 128,-1,5
 44 1120 44 1120 44 1210 c 0,6,7
 44 1296 44 1296 70 1361.5 c 128,-1,8
 96 1427 96 1427 142.5 1470.5 c 128,-1,9
 189 1514 189 1514 258.5 1541.5 c 128,-1,10
 328 1569 328 1569 410 1581 c 128,-1,11
 492 1593 492 1593 595 1593 c 2,12,-1
 970 1593 l 1,13,-1
 970 0 l 1,14,-1
 731 0 l 1,15,-1
 731 1287 l 1,16,-1
 637 1287 l 1,17,-1
 637 0 l 1,18,-1
 391 0 l 1,0,-1
EndSplineSet
EndChar

StartChar: periodcentered
Encoding: 183 183 120
Width: 491
Flags: W
LayerCount: 2
Fore
SplineSet
67 723 m 1,0,-1
 67 1021 l 1,1,-1
 425 1021 l 1,2,-1
 425 723 l 1,3,-1
 67 723 l 1,0,-1
EndSplineSet
EndChar

StartChar: cedilla
Encoding: 184 184 121
Width: 1015
Flags: W
LayerCount: 2
Fore
SplineSet
306 -591 m 1,0,1
 306 -591 306 -591 306 -368 c 1,2,3
 372 -391 372 -391 422 -391 c 0,4,5
 475 -391 475 -391 506 -364 c 128,-1,6
 537 -337 537 -337 537 -279 c 0,7,8
 537 -223 537 -223 494.5 -172.5 c 128,-1,9
 452 -122 452 -122 377 -106 c 1,10,-1
 377 0 l 1,11,-1
 588 0 l 1,12,-1
 588 -76 l 1,13,14
 715 -93 715 -93 783.5 -165 c 128,-1,15
 852 -237 852 -237 852 -330 c 0,16,17
 852 -469 852 -469 751.5 -550 c 128,-1,18
 651 -631 651 -631 504 -631 c 0,19,20
 402 -631 402 -631 306 -591 c 1,0,1
EndSplineSet
EndChar

StartChar: uni00B9
Encoding: 185 185 122
Width: 441
Flags: W
LayerCount: 2
Fore
SplineSet
200 1607 m 1,0,-1
 359 1607 l 1,1,-1
 359 656 l 1,2,-1
 149 656 l 1,3,-1
 149 1364 l 1,4,5
 90 1334 90 1334 26 1334 c 1,6,7
 28 1398 28 1398 28 1444 c 0,8,9
 28 1481 28 1481 26 1487 c 1,10,11
 68 1487 68 1487 134 1522.5 c 128,-1,12
 200 1558 200 1558 200 1607 c 1,0,-1
EndSplineSet
EndChar

StartChar: ordmasculine
Encoding: 186 186 123
Width: 844
Flags: W
LayerCount: 2
Fore
SplineSet
422 387 m 0,0,1
 66 387 66 387 66 757 c 2,2,-1
 66 1235 l 2,3,4
 66 1405 66 1405 162 1506 c 0,5,6
 256 1605 256 1605 419 1605 c 0,7,8
 420 1605 420 1605 422 1605 c 0,9,10
 588 1605 588 1605 683 1505.5 c 128,-1,11
 778 1406 778 1406 778 1235 c 2,12,-1
 778 757 l 2,13,14
 778 571 778 571 687.5 479 c 128,-1,15
 597 387 597 387 422 387 c 0,0,1
355 1280 m 2,16,-1
 355 699 l 2,17,18
 355 651 355 651 373.5 629 c 128,-1,19
 392 607 392 607 421.5 607.5 c 128,-1,20
 451 608 451 608 469.5 629.5 c 128,-1,21
 488 651 488 651 488 699 c 2,22,-1
 488 1280 l 2,23,24
 488 1384 488 1384 421.5 1384 c 128,-1,25
 355 1384 355 1384 355 1280 c 2,16,-1
EndSplineSet
EndChar

StartChar: guillemotright
Encoding: 187 187 124
Width: 1216
Flags: W
LayerCount: 2
Fore
SplineSet
593 545 m 1,0,-1
 83 260 l 1,1,-1
 83 618 l 1,2,-1
 395 749 l 1,3,-1
 83 871 l 1,4,-1
 83 1230 l 1,5,-1
 593 959 l 1,6,-1
 593 545 l 1,0,-1
1170 545 m 1,7,-1
 660 260 l 1,8,-1
 660 618 l 1,9,-1
 972 749 l 1,10,-1
 660 871 l 1,11,-1
 660 1230 l 1,12,-1
 1170 959 l 1,13,-1
 1170 545 l 1,7,-1
EndSplineSet
EndChar

StartChar: onequarter
Encoding: 188 188 125
Width: 1435
Flags: W
LayerCount: 2
Fore
SplineSet
216 1607 m 1,0,-1
 375 1607 l 1,1,-1
 375 656 l 1,2,-1
 165 656 l 1,3,-1
 165 1364 l 1,4,5
 106 1334 106 1334 42 1334 c 1,6,7
 44 1398 44 1398 44 1444 c 0,8,9
 44 1481 44 1481 42 1487 c 1,10,11
 84 1487 84 1487 150 1522.5 c 128,-1,12
 216 1558 216 1558 216 1607 c 1,0,-1
616 0 m 1,13,-1
 333 0 l 1,14,-1
 823 1767 l 1,15,-1
 1107 1767 l 1,16,-1
 616 0 l 1,13,-1
1379 322 m 1,17,-1
 1379 151 l 1,18,-1
 1340 151 l 1,19,-1
 1340 -1 l 1,20,-1
 1133 -1 l 1,21,-1
 1133 151 l 1,22,-1
 830 151 l 1,23,-1
 830 300 l 1,24,-1
 1017 941 l 1,25,-1
 1340 941 l 1,26,-1
 1340 322 l 1,27,-1
 1379 322 l 1,17,-1
1023 322 m 1,28,-1
 1133 322 l 1,29,-1
 1133 727 l 1,30,-1
 1023 322 l 1,28,-1
EndSplineSet
EndChar

StartChar: onehalf
Encoding: 189 189 126
Width: 1601
Flags: W
LayerCount: 2
Fore
SplineSet
215 1607 m 1,0,-1
 374 1607 l 1,1,-1
 374 656 l 1,2,-1
 164 656 l 1,3,-1
 164 1364 l 1,4,5
 105 1334 105 1334 41 1334 c 1,6,7
 43 1398 43 1398 43 1444 c 0,8,9
 43 1481 43 1481 41 1487 c 1,10,11
 83 1487 83 1487 149 1522.5 c 128,-1,12
 215 1558 215 1558 215 1607 c 1,0,-1
673 0 m 1,13,-1
 390 0 l 1,14,-1
 880 1767 l 1,15,-1
 1164 1767 l 1,16,-1
 673 0 l 1,13,-1
1019 -1 m 1,17,-1
 1019 46 l 2,18,19
 1019 191 1019 191 1123 344 c 0,20,21
 1161 400 1161 400 1282 546 c 0,22,23
 1333 606 1333 606 1333 709 c 0,24,25
 1333 792 1333 792 1280 792 c 0,26,27
 1229 792 1229 792 1229 705 c 2,28,-1
 1229 586 l 1,29,-1
 1019 586 l 1,30,-1
 1017 646 l 1,31,32
 1017 818 1017 818 1074.5 896 c 128,-1,33
 1132 974 1132 974 1282 974 c 0,34,35
 1404 974 1404 974 1474.5 907 c 128,-1,36
 1545 840 1545 840 1545 712 c 0,37,38
 1545 641 1545 641 1525 578 c 128,-1,39
 1505 515 1505 515 1471 464.5 c 128,-1,40
 1437 414 1437 414 1402 371 c 128,-1,41
 1367 328 1367 328 1327.5 277 c 128,-1,42
 1288 226 1288 226 1265 182 c 1,43,-1
 1538 182 l 1,44,-1
 1538 -1 l 1,45,-1
 1019 -1 l 1,17,-1
EndSplineSet
EndChar

StartChar: threequarters
Encoding: 190 190 127
Width: 1546
Flags: W
LayerCount: 2
Fore
SplineSet
301 635 m 0,0,1
 177 635 177 635 114.5 699 c 128,-1,2
 52 763 52 763 52 904 c 2,3,-1
 52 1004 l 1,4,-1
 254 1004 l 1,5,-1
 254 903 l 2,6,7
 254 871 254 871 259.5 851 c 128,-1,8
 265 831 265 831 275.5 824 c 128,-1,9
 286 817 286 817 293 815 c 128,-1,10
 300 813 300 813 311 813 c 0,11,12
 339 813 339 813 350.5 837 c 128,-1,13
 362 861 362 861 362 935 c 0,14,15
 362 954 362 954 361.5 963 c 128,-1,16
 361 972 361 972 359.5 993.5 c 128,-1,17
 358 1015 358 1015 352.5 1027 c 128,-1,18
 347 1039 347 1039 338 1053.5 c 128,-1,19
 329 1068 329 1068 314 1075 c 128,-1,20
 299 1082 299 1082 278 1082 c 0,21,22
 265 1082 265 1082 258 1081 c 1,23,-1
 258 1254 l 1,24,25
 309 1254 309 1254 336 1275 c 128,-1,26
 363 1296 363 1296 363 1349 c 0,27,28
 363 1430 363 1430 315 1430 c 0,29,30
 291 1430 291 1430 279 1419 c 128,-1,31
 267 1408 267 1408 265.5 1391.5 c 128,-1,32
 264 1375 264 1375 263.5 1355 c 128,-1,33
 263 1335 263 1335 262 1317 c 1,34,-1
 58 1317 l 1,35,-1
 57 1351 l 1,36,37
 58 1494 58 1494 125 1550 c 128,-1,38
 192 1606 192 1606 314 1606 c 0,39,40
 566 1606 566 1606 566 1351 c 0,41,42
 566 1318 566 1318 562.5 1293 c 128,-1,43
 559 1268 559 1268 550 1242.5 c 128,-1,44
 541 1217 541 1217 522 1198.5 c 128,-1,45
 503 1180 503 1180 474 1170 c 1,46,47
 512 1153 512 1153 529.5 1134 c 128,-1,48
 547 1115 547 1115 558 1068.5 c 128,-1,49
 569 1022 569 1022 569 935 c 0,50,51
 569 789 569 789 506 712 c 128,-1,52
 443 635 443 635 301 635 c 0,0,1
762 0 m 1,53,-1
 479 0 l 1,54,-1
 969 1767 l 1,55,-1
 1253 1767 l 1,56,-1
 762 0 l 1,53,-1
1497 324 m 1,57,-1
 1497 153 l 1,58,-1
 1458 153 l 1,59,-1
 1458 1 l 1,60,-1
 1251 1 l 1,61,-1
 1251 153 l 1,62,-1
 948 153 l 1,63,-1
 948 302 l 1,64,-1
 1135 943 l 1,65,-1
 1458 943 l 1,66,-1
 1458 324 l 1,67,-1
 1497 324 l 1,57,-1
1141 324 m 1,68,-1
 1251 324 l 1,69,-1
 1251 729 l 1,70,-1
 1141 324 l 1,68,-1
EndSplineSet
EndChar

StartChar: questiondown
Encoding: 191 191 128
Width: 1041
Flags: W
LayerCount: 2
Fore
SplineSet
519 -17 m 0,0,1
 433 -17 433 -17 363.5 -1 c 128,-1,2
 294 15 294 15 245.5 42 c 128,-1,3
 197 69 197 69 161 110.5 c 128,-1,4
 125 152 125 152 104 197 c 128,-1,5
 83 242 83 242 70.5 300.5 c 128,-1,6
 58 359 58 359 53.5 413 c 128,-1,7
 49 467 49 467 49 533 c 0,8,9
 49 654 49 654 78 753 c 128,-1,10
 107 852 107 852 167 930 c 128,-1,11
 227 1008 227 1008 328.5 1051 c 128,-1,12
 430 1094 430 1094 567 1094 c 1,13,-1
 567 1264 l 1,14,-1
 900 1264 l 1,15,-1
 900 848 l 1,16,17
 817 848 817 848 754 844 c 128,-1,18
 691 840 691 840 641.5 829 c 128,-1,19
 592 818 592 818 558 804.5 c 128,-1,20
 524 791 524 791 499.5 766 c 128,-1,21
 475 741 475 741 461 715.5 c 128,-1,22
 447 690 447 690 439 648 c 128,-1,23
 431 606 431 606 428.5 566 c 128,-1,24
 426 526 426 526 426 465 c 0,25,26
 426 389 426 389 445.5 345.5 c 128,-1,27
 465 302 465 302 519 302 c 0,28,29
 533 302 533 302 543 303.5 c 128,-1,30
 553 305 553 305 567.5 315.5 c 128,-1,31
 582 326 582 326 591 344.5 c 128,-1,32
 600 363 600 363 606.5 399.5 c 128,-1,33
 613 436 613 436 613 488 c 2,34,-1
 613 634 l 1,35,-1
 979 634 l 1,36,-1
 979 380 l 2,37,38
 979 182 979 182 853.5 82.5 c 128,-1,39
 728 -17 728 -17 519 -17 c 0,0,1
911 1672 m 1,40,-1
 911 1374 l 1,41,-1
 553 1374 l 1,42,-1
 553 1672 l 1,43,-1
 911 1672 l 1,40,-1
EndSplineSet
EndChar

StartChar: AE
Encoding: 198 198 135
Width: 1294
Flags: W
LayerCount: 2
Fore
SplineSet
579 0 m 1,0,-1
 578 120 l 1,1,-1
 578 240 l 1,2,-1
 370 240 l 1,3,-1
 331 0 l 1,4,-1
 -10 0 l 1,5,-1
 311 1593 l 1,6,-1
 1223 1593 l 1,7,-1
 1223 1284 l 1,8,-1
 937 1284 l 1,9,-1
 937 973 l 1,10,-1
 1209 973 l 1,11,-1
 1209 674 l 1,12,-1
 937 674 l 1,13,-1
 937 311 l 1,14,-1
 1246 311 l 1,15,-1
 1246 0 l 1,16,-1
 579 0 l 1,0,-1
574 1294 m 1,17,-1
 546 1294 l 1,18,-1
 416 530 l 1,19,-1
 574 530 l 1,20,-1
 574 1294 l 1,17,-1
EndSplineSet
EndChar

StartChar: Ccedilla
Encoding: 199 199 136
Width: 994
Flags: W
LayerCount: 2
Fore
SplineSet
938 385 m 2,0,1
 938 177 938 177 820 79.5 c 128,-1,2
 702 -18 702 -18 490 -18 c 0,3,4
 302 -18 302 -18 184 89.5 c 128,-1,5
 66 197 66 197 66 395 c 2,6,-1
 66 1134 l 2,7,8
 66 1371 66 1371 170.5 1488.5 c 128,-1,9
 275 1606 275 1606 498 1606 c 0,10,11
 589 1606 589 1606 666 1583.5 c 128,-1,12
 743 1561 743 1561 802.5 1517 c 128,-1,13
 862 1473 862 1473 896 1401.5 c 128,-1,14
 930 1330 930 1330 930 1237 c 2,15,-1
 930 956 l 1,16,-1
 582 956 l 1,17,-1
 582 1141 l 2,18,19
 582 1284 582 1284 498 1284 c 0,20,21
 448 1284 448 1284 432 1252.5 c 128,-1,22
 416 1221 416 1221 416 1165 c 2,23,-1
 416 412 l 2,24,25
 416 363 416 363 438.5 327 c 128,-1,26
 461 291 461 291 498 291 c 0,27,28
 532 291 532 291 557 317.5 c 128,-1,29
 582 344 582 344 582 412 c 2,30,-1
 582 686 l 1,31,-1
 938 686 l 1,32,-1
 938 385 l 2,0,1
229 -591 m 1,33,34
 229 -591 229 -591 229 -368 c 1,35,36
 295 -391 295 -391 345 -391 c 0,37,38
 398 -391 398 -391 429 -364 c 128,-1,39
 460 -337 460 -337 460 -279 c 0,40,41
 460 -223 460 -223 417.5 -172.5 c 128,-1,42
 375 -122 375 -122 300 -106 c 1,43,-1
 300 0 l 1,44,-1
 511 0 l 1,45,-1
 511 -76 l 1,46,47
 638 -93 638 -93 706.5 -165 c 128,-1,48
 775 -237 775 -237 775 -330 c 0,49,50
 775 -469 775 -469 674.5 -550 c 128,-1,51
 574 -631 574 -631 427 -631 c 0,52,53
 325 -631 325 -631 229 -591 c 1,33,34
EndSplineSet
EndChar

StartChar: Eth
Encoding: 208 208 145
Width: 1020
Flags: W
LayerCount: 2
Fore
SplineSet
87 0 m 1,0,-1
 87 762 l 1,1,-1
 0 762 l 1,2,-1
 0 994 l 1,3,-1
 87 994 l 1,4,-1
 87 1593 l 1,5,-1
 572 1593 l 2,6,7
 769 1593 769 1593 859.5 1492.5 c 128,-1,8
 950 1392 950 1392 951 1217 c 2,9,-1
 955 473 l 1,10,11
 955 234 955 234 861.5 117 c 128,-1,12
 768 0 768 0 560 0 c 2,13,-1
 87 0 l 1,0,-1
441 1311 m 1,14,-1
 441 994 l 1,15,-1
 516 994 l 1,16,-1
 516 762 l 1,17,-1
 441 762 l 1,18,-1
 441 291 l 1,19,20
 444 292 444 292 453 292 c 0,21,22
 459 292 459 292 475.5 291 c 128,-1,23
 492 290 492 290 502 290 c 0,24,25
 603 290 603 290 603 375 c 2,26,-1
 603 1161 l 2,27,28
 603 1248 603 1248 575.5 1280.5 c 128,-1,29
 548 1313 548 1313 480 1313 c 0,30,31
 469 1313 469 1313 441 1311 c 1,14,-1
EndSplineSet
EndChar

StartChar: multiply
Encoding: 215 215 152
Width: 720
Flags: W
LayerCount: 2
Fore
SplineSet
213 314 m 1,0,-1
 49 478 l 1,1,-1
 196 625 l 1,2,-1
 49 772 l 1,3,-1
 213 936 l 1,4,-1
 360 789 l 1,5,-1
 507 936 l 1,6,-1
 671 772 l 1,7,-1
 524 625 l 1,8,-1
 671 478 l 1,9,-1
 507 314 l 1,10,-1
 360 461 l 1,11,-1
 213 314 l 1,0,-1
EndSplineSet
EndChar

StartChar: Oslash
Encoding: 216 216 153
Width: 1000
Flags: W
LayerCount: 2
Fore
SplineSet
500 -18 m 0,0,1
 416 -18 416 -18 345 1 c 1,2,-1
 311 -120 l 1,3,-1
 211 -92 l 1,4,-1
 248 42 l 1,5,6
 66 151 66 151 66 430 c 2,7,-1
 66 1189 l 2,8,9
 66 1388 66 1388 173.5 1497.5 c 128,-1,10
 281 1607 281 1607 500 1607 c 0,11,12
 598 1607 598 1607 676 1584 c 1,13,-1
 708 1699 l 1,14,-1
 809 1671 l 1,15,-1
 772 1540 l 1,16,17
 934 1437 934 1437 934 1189 c 2,18,-1
 934 430 l 2,19,20
 934 333 934 333 909.5 253.5 c 128,-1,21
 885 174 885 174 835 112 c 128,-1,22
 785 50 785 50 699.5 16 c 128,-1,23
 614 -18 614 -18 500 -18 c 0,0,1
500 1295 m 0,24,25
 479 1295 479 1295 463.5 1288 c 128,-1,26
 448 1281 448 1281 439 1265.5 c 128,-1,27
 430 1250 430 1250 424 1237.5 c 128,-1,28
 418 1225 418 1225 416 1200.5 c 128,-1,29
 414 1176 414 1176 414 1165.5 c 128,-1,30
 414 1155 414 1155 414 1130 c 0,31,32
 414 1126 414 1126 414 1123 c 128,-1,33
 414 1120 414 1120 414 1117 c 2,34,-1
 414 639 l 1,35,-1
 576 1222 l 1,36,37
 562 1295 562 1295 500 1295 c 0,24,25
500 297 m 0,38,39
 519 297 519 297 533.5 304.5 c 128,-1,40
 548 312 548 312 556.5 327.5 c 128,-1,41
 565 343 565 343 570 357 c 128,-1,42
 575 371 575 371 577 394.5 c 128,-1,43
 579 418 579 418 579.5 430.5 c 128,-1,44
 580 443 580 443 580 465 c 0,45,46
 580 470 580 470 580 473 c 2,47,-1
 580 846 l 1,48,-1
 437 333 l 1,49,50
 458 297 458 297 500 297 c 0,38,39
EndSplineSet
EndChar

StartChar: Thorn
Encoding: 222 222 159
Width: 972
Flags: W
LayerCount: 2
Fore
SplineSet
87 0 m 1,0,-1
 87 1593 l 1,1,-1
 432 1593 l 1,2,-1
 432 1418 l 1,3,-1
 552 1418 l 2,4,5
 644 1418 644 1418 713 1391.5 c 128,-1,6
 782 1365 782 1365 835 1304.5 c 128,-1,7
 888 1244 888 1244 915.5 1136 c 128,-1,8
 943 1028 943 1028 943 875 c 0,9,10
 943 771 943 771 933 691.5 c 128,-1,11
 923 612 923 612 898 543 c 128,-1,12
 873 474 873 474 832 430 c 128,-1,13
 791 386 791 386 726.5 361 c 128,-1,14
 662 336 662 336 576 336 c 2,15,-1
 433 336 l 1,16,-1
 433 0 l 1,17,-1
 87 0 l 1,0,-1
433 1128 m 1,18,-1
 433 623 l 1,19,-1
 453 623 l 2,20,21
 487 623 487 623 503.5 625.5 c 128,-1,22
 520 628 520 628 541.5 641 c 128,-1,23
 563 654 563 654 572 680.5 c 128,-1,24
 581 707 581 707 588 756.5 c 128,-1,25
 595 806 595 806 595 881 c 0,26,27
 595 1021 595 1021 567.5 1074.5 c 128,-1,28
 540 1128 540 1128 472 1128 c 2,29,-1
 433 1128 l 1,18,-1
EndSplineSet
EndChar

StartChar: germandbls
Encoding: 223 223 160
Width: 1027
Flags: W
LayerCount: 2
Fore
SplineSet
505 1593 m 0,0,1
 599 1593 599 1593 673.5 1574 c 128,-1,2
 748 1555 748 1555 807.5 1514 c 128,-1,3
 867 1473 867 1473 899 1401 c 128,-1,4
 931 1329 931 1329 931 1229 c 0,5,6
 931 1224 931 1224 931 1214 c 0,7,8
 931 1179 931 1179 931 1162 c 128,-1,9
 931 1145 931 1145 928 1109 c 128,-1,10
 925 1073 925 1073 919.5 1051.5 c 128,-1,11
 914 1030 914 1030 903 1000 c 128,-1,12
 892 970 892 970 876.5 951 c 128,-1,13
 861 932 861 932 836.5 914.5 c 128,-1,14
 812 897 812 897 781 887 c 1,15,16
 823 877 823 877 856 855.5 c 128,-1,17
 889 834 889 834 910.5 808.5 c 128,-1,18
 932 783 932 783 948 747.5 c 128,-1,19
 964 712 964 712 972 681 c 128,-1,20
 980 650 980 650 984.5 609 c 128,-1,21
 989 568 989 568 990 540.5 c 128,-1,22
 991 513 991 513 991 476 c 0,23,24
 991 359 991 359 973.5 276 c 128,-1,25
 956 193 956 193 913 128.5 c 128,-1,26
 870 64 870 64 793.5 32 c 128,-1,27
 717 0 717 0 604 0 c 2,28,-1
 500 0 l 1,29,-1
 500 281 l 1,30,31
 643 281 643 281 643 399 c 2,32,-1
 643 598 l 2,33,34
 643 677 643 677 611 711 c 128,-1,35
 579 745 579 745 496 745 c 1,36,-1
 496 993 l 1,37,38
 525 993 525 993 543.5 1004 c 128,-1,39
 562 1015 562 1015 569 1036 c 128,-1,40
 576 1057 576 1057 578 1072.5 c 128,-1,41
 580 1088 580 1088 580 1112 c 2,42,-1
 580 1270 l 2,43,44
 580 1346 580 1346 505 1346 c 128,-1,45
 430 1346 430 1346 430 1270 c 2,46,-1
 430 0 l 1,47,-1
 80 0 l 1,48,-1
 80 1229 l 2,49,50
 80 1593 80 1593 505 1593 c 0,0,1
EndSplineSet
EndChar

StartChar: ae
Encoding: 230 230 167
Width: 1500
Flags: W
LayerCount: 2
Fore
SplineSet
1034 -18 m 0,0,1
 973 -18 973 -18 920.5 0 c 128,-1,2
 868 18 868 18 838 40 c 128,-1,3
 808 62 808 62 784.5 90.5 c 128,-1,4
 761 119 761 119 755 130 c 128,-1,5
 749 141 749 141 746 148 c 1,6,-1
 738 131 l 2,7,8
 730 114 730 114 707 90 c 0,9,10
 685 66 685 66 653 41 c 128,-1,11
 621 16 621 16 566.5 -1 c 128,-1,12
 512 -18 512 -18 447 -18 c 0,13,14
 397 -18 397 -18 348 -8.5 c 128,-1,15
 299 1 299 1 240.5 30.5 c 128,-1,16
 182 60 182 60 138.5 107 c 128,-1,17
 95 154 95 154 65.5 237.5 c 128,-1,18
 36 321 36 321 36 430 c 0,19,20
 36 630 36 630 95 729 c 0,21,22
 146 815 146 815 272 874 c 0,23,24
 336 904 336 904 558 980 c 0,25,26
 558 981 558 981 558 983 c 0,27,28
 558 1015 558 1015 557.5 1035 c 128,-1,29
 557 1055 557 1055 556.5 1080 c 128,-1,30
 556 1105 556 1105 555 1120 c 128,-1,31
 554 1135 554 1135 552 1153 c 128,-1,32
 550 1171 550 1171 547.5 1180.5 c 128,-1,33
 545 1190 545 1190 540.5 1201.5 c 128,-1,34
 536 1213 536 1213 530.5 1219 c 128,-1,35
 525 1225 525 1225 518 1230 c 128,-1,36
 511 1235 511 1235 501.5 1237 c 128,-1,37
 492 1239 492 1239 481 1239 c 0,38,39
 407 1239 407 1239 407 1157 c 2,40,-1
 407 1056 l 1,41,-1
 59 1056 l 1,42,43
 58 1073 58 1073 58 1105 c 0,44,45
 58 1319 58 1319 159.5 1418.5 c 128,-1,46
 261 1518 261 1518 499 1518 c 0,47,48
 663 1518 663 1518 745 1396 c 1,49,50
 825 1518 825 1518 1012 1518 c 0,51,52
 1444 1518 1444 1518 1444 1092 c 2,53,-1
 1444 983 l 2,54,55
 1444 780 1444 780 1440 704 c 1,56,-1
 919 704 l 1,57,-1
 919 494 l 2,58,59
 919 260 919 260 1006 260 c 0,60,61
 1025 260 1025 260 1040 269.5 c 128,-1,62
 1055 279 1055 279 1064 298 c 128,-1,63
 1073 317 1073 317 1078.5 336.5 c 128,-1,64
 1084 356 1084 356 1086.5 385 c 128,-1,65
 1089 414 1089 414 1089.5 434 c 128,-1,66
 1090 454 1090 454 1090 483 c 0,67,68
 1090 571 1090 571 1088 579 c 1,69,-1
 1444 579 l 1,70,-1
 1444 494 l 2,71,72
 1444 395 1444 395 1434 320.5 c 128,-1,73
 1424 246 1424 246 1396.5 179.5 c 128,-1,74
 1369 113 1369 113 1323.5 71.5 c 128,-1,75
 1278 30 1278 30 1205.5 6 c 128,-1,76
 1133 -18 1133 -18 1034 -18 c 0,0,1
401 570 m 2,77,78
 401 570 401 570 401 395 c 0,79,80
 401 262 401 262 481 262 c 0,81,82
 503 262 503 262 519 274 c 128,-1,83
 535 286 535 286 543 305 c 128,-1,84
 551 324 551 324 554 342 c 128,-1,85
 557 360 557 360 557 379 c 2,86,-1
 557 774 l 1,87,88
 465 737 465 737 433 687.5 c 128,-1,89
 401 638 401 638 401 570 c 2,77,78
1008 1249 m 0,90,91
 957 1249 957 1249 938 1209 c 128,-1,92
 919 1169 919 1169 919 1052 c 2,93,-1
 919 931 l 1,94,-1
 1088 931 l 1,95,-1
 1088 1087 l 2,96,97
 1088 1249 1088 1249 1008 1249 c 0,90,91
EndSplineSet
EndChar

StartChar: ccedilla
Encoding: 231 231 168
Width: 1004
Flags: HW
LayerCount: 2
Fore
SplineSet
60 954 m 2,0,1
 60 1258 60 1258 165 1388 c 128,-1,2
 270 1518 270 1518 518 1518 c 0,3,4
 711 1518 711 1518 832 1416 c 128,-1,5
 953 1314 953 1314 953 1135 c 2,6,-1
 953 879 l 1,7,-1
 588 879 l 1,8,-1
 588 1116 l 2,9,10
 588 1172 588 1172 571.5 1205.5 c 128,-1,11
 555 1239 555 1239 508 1239 c 0,12,13
 420 1239 420 1239 420 1114 c 2,14,-1
 420 387 l 2,15,16
 420 341 420 341 440 302.5 c 128,-1,17
 460 264 460 264 506 264 c 0,18,19
 519 264 519 264 531.5 269 c 128,-1,20
 544 274 544 274 558.5 286 c 128,-1,21
 573 298 573 298 581.5 324.5 c 128,-1,22
 590 351 590 351 590 389 c 2,23,-1
 588 614 l 1,24,-1
 953 614 l 1,25,-1
 953 379 l 2,26,27
 953 194 953 194 833.5 88 c 128,-1,28
 714 -18 714 -18 523 -18 c 0,29,30
 435 -18 435 -18 364 -1 c 128,-1,31
 293 16 293 16 245.5 43.5 c 128,-1,32
 198 71 198 71 163 113 c 128,-1,33
 128 155 128 155 108.5 197 c 128,-1,34
 89 239 89 239 77.5 293.5 c 128,-1,35
 66 348 66 348 63 392.5 c 128,-1,36
 60 437 60 437 60 492 c 2,37,-1
 60 954 l 2,0,1
233 -591 m 1,38,39
 233 -591 233 -591 233 -368 c 1,40,41
 299 -391 299 -391 349 -391 c 0,42,43
 402 -391 402 -391 433 -364 c 128,-1,44
 464 -337 464 -337 464 -279 c 0,45,46
 464 -223 464 -223 421.5 -172.5 c 128,-1,47
 379 -122 379 -122 304 -106 c 1,48,-1
 304 0 l 1,49,-1
 515 0 l 1,50,-1
 515 -76 l 1,51,52
 642 -93 642 -93 710.5 -165 c 128,-1,53
 779 -237 779 -237 779 -330 c 0,54,55
 779 -469 779 -469 678.5 -550 c 128,-1,56
 578 -631 578 -631 431 -631 c 0,57,58
 329 -631 329 -631 233 -591 c 1,38,39
EndSplineSet
EndChar

StartChar: eth
Encoding: 240 240 177
Width: 1036
Flags: W
LayerCount: 2
Fore
SplineSet
64 477 m 2,0,-1
 68 1053 l 2,1,2
 68 1125 68 1125 87 1189.5 c 128,-1,3
 106 1254 106 1254 143 1305.5 c 128,-1,4
 180 1357 180 1357 240.5 1387.5 c 128,-1,5
 301 1418 301 1418 377 1418 c 0,6,7
 520 1418 520 1418 594 1319 c 1,8,-1
 594 1502 l 1,9,-1
 489 1502 l 1,10,-1
 489 1674 l 1,11,-1
 594 1674 l 1,12,-1
 594 1767 l 1,13,-1
 952 1767 l 1,14,-1
 952 1674 l 1,15,-1
 1005 1674 l 1,16,-1
 1005 1502 l 1,17,-1
 952 1502 l 1,18,-1
 952 0 l 1,19,-1
 594 0 l 1,20,-1
 594 159 l 1,21,22
 556 58 556 58 499.5 20 c 128,-1,23
 443 -18 443 -18 371 -18 c 0,24,25
 319 -18 319 -18 276.5 -8.5 c 128,-1,26
 234 1 234 1 203.5 21.5 c 128,-1,27
 173 42 173 42 149.5 66.5 c 128,-1,28
 126 91 126 91 111 128 c 128,-1,29
 96 165 96 165 86.5 200.5 c 128,-1,30
 77 236 77 236 72 285.5 c 128,-1,31
 67 335 67 335 65.5 377.5 c 128,-1,32
 64 420 64 420 64 477 c 2,0,-1
422 983 m 2,33,-1
 422 452 l 2,34,35
 422 264 422 264 508 264 c 0,36,37
 524 264 524 264 536.5 270 c 128,-1,38
 549 276 549 276 558 288.5 c 128,-1,39
 567 301 567 301 573.5 313 c 128,-1,40
 580 325 580 325 584 346 c 128,-1,41
 588 367 588 367 590.5 381.5 c 128,-1,42
 593 396 593 396 593.5 420.5 c 128,-1,43
 594 445 594 445 594.5 456.5 c 128,-1,44
 595 468 595 468 594.5 491.5 c 128,-1,45
 594 515 594 515 594 520 c 2,46,-1
 594 983 l 2,47,48
 594 1006 594 1006 591.5 1028 c 128,-1,49
 589 1050 589 1050 581 1077.5 c 128,-1,50
 573 1105 573 1105 555 1122 c 128,-1,51
 537 1139 537 1139 510 1139 c 0,52,53
 482 1139 482 1139 463 1125 c 128,-1,54
 444 1111 444 1111 436 1085.5 c 128,-1,55
 428 1060 428 1060 425 1037 c 128,-1,56
 422 1014 422 1014 422 983 c 2,33,-1
EndSplineSet
EndChar

StartChar: divide
Encoding: 247 247 184
Width: 721
Flags: W
LayerCount: 2
Fore
SplineSet
52 638 m 1,0,-1
 52 870 l 1,1,-1
 668 870 l 1,2,-1
 668 638 l 1,3,-1
 52 638 l 1,0,-1
211 237 m 1,4,-1
 211 535 l 1,5,-1
 509 535 l 1,6,-1
 509 237 l 1,7,-1
 211 237 l 1,4,-1
211 976 m 1,8,-1
 211 1274 l 1,9,-1
 509 1274 l 1,10,-1
 509 976 l 1,11,-1
 211 976 l 1,8,-1
EndSplineSet
EndChar

StartChar: oslash
Encoding: 248 248 185
Width: 1018
Flags: W
LayerCount: 2
Fore
SplineSet
509 -18 m 0,0,1
 419 -18 419 -18 342 2 c 1,2,-1
 293 -173 l 1,3,-1
 193 -145 l 1,4,-1
 245 42 l 1,5,6
 61 151 61 151 61 449 c 2,7,-1
 61 1051 l 2,8,9
 61 1266 61 1266 181 1392 c 128,-1,10
 301 1518 301 1518 509 1518 c 0,11,12
 583 1518 583 1518 653 1499 c 1,13,-1
 702 1672 l 1,14,-1
 803 1644 l 1,15,-1
 751 1459 l 1,16,17
 851 1402 851 1402 904.5 1297.5 c 128,-1,18
 958 1193 958 1193 958 1051 c 2,19,-1
 958 449 l 2,20,21
 958 214 958 214 843.5 98 c 128,-1,22
 729 -18 729 -18 509 -18 c 0,0,1
509 260 m 0,23,24
 546 260 546 260 569.5 287.5 c 128,-1,25
 593 315 593 315 593 375 c 2,26,-1
 593 895 l 1,27,-1
 432 321 l 1,28,29
 450 260 450 260 509 260 c 0,23,24
509 1239 m 0,30,31
 425 1239 425 1239 425 1108 c 2,32,-1
 425 683 l 1,33,-1
 571 1206 l 1,34,35
 550 1239 550 1239 509 1239 c 0,30,31
EndSplineSet
EndChar

StartChar: thorn
Encoding: 254 254 191
Width: 1043
Flags: W
LayerCount: 2
Fore
SplineSet
451 160 m 1,0,1
 451 160 451 160 451 -185 c 1,2,-1
 83 -185 l 1,3,-1
 83 1769 l 1,4,-1
 451 1769 l 1,5,-1
 451 1427 l 1,6,7
 541 1519 541 1519 651 1519 c 0,8,9
 672 1519 672 1519 687.5 1518.5 c 128,-1,10
 703 1518 703 1518 730.5 1514 c 128,-1,11
 758 1510 758 1510 778.5 1502.5 c 128,-1,12
 799 1495 799 1495 826 1481 c 128,-1,13
 853 1467 853 1467 873 1447 c 128,-1,14
 893 1427 893 1427 914 1396 c 128,-1,15
 935 1365 935 1365 948 1326 c 128,-1,16
 961 1287 961 1287 969.5 1232.5 c 128,-1,17
 978 1178 978 1178 978 1114 c 2,18,-1
 978 391 l 2,19,20
 978 312 978 312 964 248 c 128,-1,21
 950 184 950 184 928.5 142.5 c 128,-1,22
 907 101 907 101 876 69.5 c 128,-1,23
 845 38 845 38 817 22 c 128,-1,24
 789 6 789 6 756 -3.5 c 128,-1,25
 723 -13 723 -13 702.5 -15.5 c 128,-1,26
 682 -18 682 -18 662 -18 c 0,27,28
 517 -18 517 -18 451 160 c 1,0,1
451 1085 m 2,29,-1
 451 457 l 2,30,31
 451 344 451 344 473.5 303.5 c 128,-1,32
 496 263 496 263 541 263 c 0,33,34
 585 263 585 263 600 301 c 128,-1,35
 615 339 615 339 615 457 c 2,36,-1
 615 1081 l 2,37,38
 615 1174 615 1174 596 1206.5 c 128,-1,39
 577 1239 577 1239 539 1239 c 0,40,41
 500 1239 500 1239 475.5 1207 c 128,-1,42
 451 1175 451 1175 451 1085 c 2,29,-1
EndSplineSet
EndChar

StartChar: Dcroat
Encoding: 272 272 209
Width: 1020
Flags: W
LayerCount: 2
Fore
SplineSet
87 0 m 1,0,-1
 87 714 l 1,1,-1
 0 714 l 1,2,-1
 0 962 l 1,3,-1
 87 962 l 1,4,-1
 87 1593 l 1,5,-1
 572 1593 l 2,6,7
 769 1593 769 1593 859.5 1492.5 c 128,-1,8
 950 1392 950 1392 951 1217 c 2,9,-1
 955 473 l 1,10,11
 955 234 955 234 861.5 117 c 128,-1,12
 768 0 768 0 560 0 c 2,13,-1
 87 0 l 1,0,-1
441 1311 m 1,14,-1
 441 962 l 1,15,-1
 570 962 l 1,16,-1
 570 714 l 1,17,-1
 441 714 l 1,18,-1
 441 291 l 1,19,20
 444 292 444 292 453 292 c 0,21,22
 459 292 459 292 475.5 291 c 128,-1,23
 492 290 492 290 502 290 c 0,24,25
 603 290 603 290 603 375 c 2,26,-1
 603 1161 l 2,27,28
 603 1248 603 1248 575.5 1280.5 c 128,-1,29
 548 1313 548 1313 480 1313 c 0,30,31
 469 1313 469 1313 441 1311 c 1,14,-1
EndSplineSet
EndChar

StartChar: dcroat
Encoding: 273 273 210
Width: 1036
Flags: W
LayerCount: 2
Fore
SplineSet
64 477 m 2,0,-1
 68 1053 l 2,1,2
 68 1125 68 1125 87 1189.5 c 128,-1,3
 106 1254 106 1254 143 1305.5 c 128,-1,4
 180 1357 180 1357 240.5 1387.5 c 128,-1,5
 301 1418 301 1418 377 1418 c 0,6,7
 520 1418 520 1418 594 1319 c 1,8,-1
 594 1502 l 1,9,-1
 489 1502 l 1,10,-1
 489 1674 l 1,11,-1
 594 1674 l 1,12,-1
 594 1767 l 1,13,-1
 952 1767 l 1,14,-1
 952 1674 l 1,15,-1
 1005 1674 l 1,16,-1
 1005 1502 l 1,17,-1
 952 1502 l 1,18,-1
 952 0 l 1,19,-1
 594 0 l 1,20,-1
 594 159 l 1,21,22
 556 58 556 58 499.5 20 c 128,-1,23
 443 -18 443 -18 371 -18 c 0,24,25
 319 -18 319 -18 276.5 -8.5 c 128,-1,26
 234 1 234 1 203.5 21.5 c 128,-1,27
 173 42 173 42 149.5 66.5 c 128,-1,28
 126 91 126 91 111 128 c 128,-1,29
 96 165 96 165 86.5 200.5 c 128,-1,30
 77 236 77 236 72 285.5 c 128,-1,31
 67 335 67 335 65.5 377.5 c 128,-1,32
 64 420 64 420 64 477 c 2,0,-1
422 983 m 2,33,-1
 422 452 l 2,34,35
 422 264 422 264 508 264 c 0,36,37
 524 264 524 264 536.5 270 c 128,-1,38
 549 276 549 276 558 288.5 c 128,-1,39
 567 301 567 301 573.5 313 c 128,-1,40
 580 325 580 325 584 346 c 128,-1,41
 588 367 588 367 590.5 381.5 c 128,-1,42
 593 396 593 396 593.5 420.5 c 128,-1,43
 594 445 594 445 594.5 456.5 c 128,-1,44
 595 468 595 468 594.5 491.5 c 128,-1,45
 594 515 594 515 594 520 c 2,46,-1
 594 983 l 2,47,48
 594 1006 594 1006 591.5 1028 c 128,-1,49
 589 1050 589 1050 581 1077.5 c 128,-1,50
 573 1105 573 1105 555 1122 c 128,-1,51
 537 1139 537 1139 510 1139 c 0,52,53
 482 1139 482 1139 463 1125 c 128,-1,54
 444 1111 444 1111 436 1085.5 c 128,-1,55
 428 1060 428 1060 425 1037 c 128,-1,56
 422 1014 422 1014 422 983 c 2,33,-1
EndSplineSet
EndChar

StartChar: Hbar
Encoding: 294 294 231
Width: 1040
Flags: W
LayerCount: 2
Fore
SplineSet
437 723 m 1,0,-1
 437 0 l 1,1,-1
 87 0 l 1,2,-1
 87 1187 l 1,3,-1
 -1 1187 l 1,4,-1
 -1 1405 l 1,5,-1
 87 1405 l 1,6,-1
 87 1593 l 1,7,-1
 437 1593 l 1,8,-1
 437 1405 l 1,9,-1
 603 1405 l 1,10,-1
 603 1593 l 1,11,-1
 953 1593 l 1,12,-1
 953 1405 l 1,13,-1
 1041 1405 l 1,14,-1
 1041 1187 l 1,15,-1
 953 1187 l 1,16,-1
 953 0 l 1,17,-1
 603 0 l 1,18,-1
 603 723 l 1,19,-1
 437 723 l 1,0,-1
603 1024 m 1,20,-1
 603 1187 l 1,21,-1
 437 1187 l 1,22,-1
 437 1024 l 1,23,-1
 603 1024 l 1,20,-1
EndSplineSet
EndChar

StartChar: hbar
Encoding: 295 295 232
Width: 1059
Flags: W
LayerCount: 2
Fore
SplineSet
84 0 m 1,0,-1
 84 1416 l 1,1,-1
 0 1416 l 1,2,-1
 0 1592 l 1,3,-1
 84 1592 l 1,4,-1
 84 1767 l 1,5,-1
 452 1767 l 1,6,-1
 452 1592 l 1,7,-1
 570 1592 l 1,8,-1
 570 1416 l 1,9,-1
 452 1416 l 1,10,-1
 452 1113 l 1,11,12
 510 1281 510 1281 671 1281 c 0,13,14
 813 1281 813 1281 896 1189.5 c 128,-1,15
 979 1098 979 1098 979 917 c 2,16,-1
 979 0 l 1,17,-1
 620 0 l 1,18,-1
 620 796 l 2,19,20
 620 802 620 802 620.5 819.5 c 128,-1,21
 621 837 621 837 621 847 c 0,22,23
 621 1005 621 1005 532 1005 c 0,24,25
 506 1005 506 1005 479 979.5 c 128,-1,26
 452 954 452 954 452 897 c 2,27,-1
 452 0 l 1,28,-1
 84 0 l 1,0,-1
EndSplineSet
EndChar

StartChar: dotlessi
Encoding: 305 305 242
Width: 526
Flags: W
LayerCount: 2
Fore
SplineSet
84 0 m 1,0,-1
 84 1500 l 1,1,-1
 442 1500 l 1,2,-1
 442 0 l 1,3,-1
 84 0 l 1,0,-1
EndSplineSet
EndChar

StartChar: jcircumflex
Encoding: 309 309 244
Width: 550
Flags: HW
LayerCount: 2
Fore
SplineSet
113 1500 m 1
 471 1500 l 1
 471 166 l 2
 471 -3 471 -3 403.5 -89.5 c 0
 336 -176 336 -176 189 -176 c 0
 74 -176 74 -176 37 -150 c 1
 37 -150 37 -150 37 90 c 1
 53 85 53 85 70 85 c 0
 95 85 95 85 104 102.5 c 0
 113 120 113 120 113 156 c 2
 113 1500 l 1
EndSplineSet
Refer: 355 710 S 1 0 0 1 -206 14 2
EndChar

StartChar: Lslash
Encoding: 321 321 255
Width: 813
Flags: W
LayerCount: 2
Fore
SplineSet
91 0 m 1,0,-1
 91 1593 l 1,1,-1
 443 1593 l 1,2,-1
 443 311 l 1,3,-1
 805 311 l 1,4,-1
 805 0 l 1,5,-1
 91 0 l 1,0,-1
21 509 m 1,6,-1
 21 741 l 1,7,-1
 708 973 l 1,8,-1
 708 741 l 1,9,-1
 21 509 l 1,6,-1
EndSplineSet
EndChar

StartChar: lslash
Encoding: 322 322 256
Width: 547
Flags: W
LayerCount: 2
Fore
SplineSet
455 0 m 1,0,-1
 91 0 l 1,1,-1
 91 1767 l 1,2,-1
 455 1767 l 1,3,-1
 455 0 l 1,0,-1
16 509 m 1,4,-1
 16 741 l 1,5,-1
 532 973 l 1,6,-1
 532 741 l 1,7,-1
 16 509 l 1,4,-1
EndSplineSet
EndChar

StartChar: napostrophe
Encoding: 329 329 263
Width: 1045
Flags: W
LayerCount: 2
Fore
SplineSet
74 1786 m 1,0,-1
 74 2084 l 1,1,-1
 448 2084 l 5,2,-1
 448 1795 l 5,3,-1
 346 1550 l 1,4,-1
 135 1550 l 1,5,-1
 201 1786 l 1,6,-1
 74 1786 l 1,0,-1
84 0 m 1,7,-1
 84 1501 l 1,8,-1
 442 1501 l 1,9,-1
 442 1329 l 1,10,11
 464 1426 464 1426 523.5 1472 c 128,-1,12
 583 1518 583 1518 668 1518 c 0,13,14
 809 1518 809 1518 887 1429.5 c 128,-1,15
 965 1341 965 1341 965 1157 c 2,16,-1
 965 0 l 1,17,-1
 612 0 l 1,18,-1
 612 1120 l 2,19,20
 612 1167 612 1167 593 1203 c 128,-1,21
 574 1239 574 1239 532 1239 c 0,22,23
 506 1239 506 1239 488 1224.5 c 128,-1,24
 470 1210 470 1210 461.5 1191.5 c 128,-1,25
 453 1173 453 1173 448 1143 c 128,-1,26
 443 1113 443 1113 442.5 1097 c 128,-1,27
 442 1081 442 1081 442 1055 c 2,28,-1
 442 0 l 1,29,-1
 84 0 l 1,7,-1
EndSplineSet
EndChar

StartChar: Eng
Encoding: 330 330 264
Width: 1038
Flags: W
LayerCount: 2
Fore
SplineSet
439 -144 m 1,0,1
 439 -187 439 -187 458 -214.5 c 128,-1,2
 477 -242 477 -242 517 -242 c 0,3,4
 597 -242 597 -242 596 -103 c 1,5,-1
 596 50 l 1,6,-1
 431 797 l 1,7,-1
 431 0 l 1,8,-1
 87 0 l 1,9,-1
 87 1593 l 1,10,-1
 449 1593 l 1,11,-1
 611 831 l 1,12,-1
 611 1593 l 1,13,-1
 951 1593 l 1,14,-1
 951 -148 l 2,15,16
 951 -244 951 -244 918.5 -321 c 128,-1,17
 886 -398 886 -398 828.5 -452.5 c 128,-1,18
 771 -507 771 -507 692.5 -536 c 128,-1,19
 614 -565 614 -565 521 -565 c 0,20,21
 437 -565 437 -565 359.5 -541 c 128,-1,22
 282 -517 282 -517 222 -470.5 c 128,-1,23
 162 -424 162 -424 126.5 -355 c 128,-1,24
 91 -286 91 -286 91 -195 c 2,25,-1
 91 -144 l 1,26,-1
 439 -144 l 1,0,1
EndSplineSet
EndChar

StartChar: eng
Encoding: 331 331 265
Width: 1045
Flags: W
LayerCount: 2
Fore
SplineSet
84 0 m 1,0,-1
 84 1501 l 1,1,-1
 442 1501 l 1,2,-1
 442 1329 l 1,3,4
 464 1426 464 1426 523.5 1472 c 128,-1,5
 583 1518 583 1518 668 1518 c 0,6,7
 809 1518 809 1518 887 1429.5 c 128,-1,8
 965 1341 965 1341 965 1157 c 2,9,-1
 965 156 l 1,10,11
 967 -13 967 -13 899.5 -99.5 c 128,-1,12
 832 -186 832 -186 685 -186 c 0,13,14
 570 -186 570 -186 533 -160 c 1,15,-1
 533 80 l 1,16,17
 549 75 549 75 566 75 c 0,18,19
 591 75 591 75 600 92.5 c 128,-1,20
 609 110 609 110 612 146 c 1,21,-1
 612 1120 l 2,22,23
 612 1167 612 1167 593 1203 c 128,-1,24
 574 1239 574 1239 532 1239 c 0,25,26
 506 1239 506 1239 488 1224.5 c 128,-1,27
 470 1210 470 1210 461.5 1191.5 c 128,-1,28
 453 1173 453 1173 448 1143 c 128,-1,29
 443 1113 443 1113 442.5 1097 c 128,-1,30
 442 1081 442 1081 442 1055 c 2,31,-1
 442 0 l 1,32,-1
 84 0 l 1,0,-1
EndSplineSet
EndChar

StartChar: OE
Encoding: 338 338 272
Width: 1352
Flags: W
LayerCount: 2
Fore
SplineSet
1304 0 m 1,0,-1
 619 0 l 2,1,2
 63 0 63 0 63 430 c 2,3,-1
 63 1189 l 2,4,5
 63 1403 63 1403 203 1498 c 128,-1,6
 343 1593 343 1593 611 1593 c 2,7,-1
 1281 1593 l 1,8,-1
 1281 1284 l 1,9,-1
 944 1284 l 1,10,-1
 944 973 l 1,11,-1
 1267 973 l 1,12,-1
 1267 674 l 1,13,-1
 944 674 l 1,14,-1
 944 311 l 1,15,-1
 1304 311 l 1,16,-1
 1304 0 l 1,0,-1
411 477 m 2,17,18
 411 391 411 391 443.5 349.5 c 128,-1,19
 476 308 476 308 526 308 c 0,20,21
 556 308 556 308 587 322 c 1,22,-1
 587 1280 l 1,23,24
 560 1289 560 1289 532 1289 c 0,25,26
 480 1289 480 1289 445.5 1254 c 128,-1,27
 411 1219 411 1219 411 1147 c 2,28,-1
 411 477 l 2,17,18
EndSplineSet
EndChar

StartChar: oe
Encoding: 339 339 273
Width: 1531
Flags: W
LayerCount: 2
Fore
SplineSet
509 -18 m 0,0,1
 61 -18 61 -18 61 449 c 2,2,-1
 61 1051 l 2,3,4
 61 1266 61 1266 181 1392 c 128,-1,5
 301 1518 301 1518 509 1518 c 0,6,7
 662 1518 662 1518 774 1422 c 1,8,9
 876 1518 876 1518 1043 1518 c 0,10,11
 1475 1518 1475 1518 1475 1092 c 2,12,-1
 1475 983 l 2,13,14
 1475 780 1475 780 1471 704 c 1,15,-1
 951 704 l 1,16,-1
 951 494 l 2,17,18
 951 484 951 484 950.5 461.5 c 128,-1,19
 950 439 950 439 950 427 c 0,20,21
 950 391 950 391 953 365.5 c 128,-1,22
 956 340 956 340 964 313.5 c 128,-1,23
 972 287 972 287 990.5 273.5 c 128,-1,24
 1009 260 1009 260 1037 260 c 0,25,26
 1066 260 1066 260 1084 280.5 c 128,-1,27
 1102 301 1102 301 1109.5 339.5 c 128,-1,28
 1117 378 1117 378 1119 408 c 128,-1,29
 1121 438 1121 438 1121 483 c 0,30,31
 1121 571 1121 571 1119 579 c 1,32,-1
 1475 579 l 1,33,-1
 1475 494 l 2,34,35
 1475 369 1475 369 1456 281 c 128,-1,36
 1437 193 1437 193 1388.5 122.5 c 128,-1,37
 1340 52 1340 52 1250 17 c 128,-1,38
 1160 -18 1160 -18 1025 -18 c 0,39,40
 874 -18 874 -18 779 69 c 1,41,42
 674 -18 674 -18 509 -18 c 0,0,1
425 1108 m 2,43,-1
 425 375 l 2,44,45
 425 315 425 315 448.5 287.5 c 128,-1,46
 472 260 472 260 509 260 c 128,-1,47
 546 260 546 260 569.5 287.5 c 128,-1,48
 593 315 593 315 593 375 c 2,49,-1
 593 1108 l 2,50,51
 593 1239 593 1239 509 1239 c 128,-1,52
 425 1239 425 1239 425 1108 c 2,43,-1
1039 1249 m 0,53,54
 1011 1249 1011 1249 992 1234.5 c 128,-1,55
 973 1220 973 1220 964 1191 c 128,-1,56
 955 1162 955 1162 952 1131.5 c 128,-1,57
 949 1101 949 1101 949 1057 c 0,58,59
 949 1036 949 1036 950 994 c 128,-1,60
 951 952 951 952 951 931 c 1,61,-1
 1119 931 l 1,62,-1
 1119 1087 l 2,63,64
 1119 1249 1119 1249 1039 1249 c 0,53,54
EndSplineSet
EndChar

StartChar: Tcommaaccent
Encoding: 354 354 288
Width: 811
Flags: HW
LayerCount: 2
Fore
SplineSet
20 1593 m 1,0,-1
 790 1593 l 1,1,-1
 790 1286 l 1,2,-1
 581 1286 l 1,3,-1
 581 0 l 1,4,-1
 229 0 l 1,5,-1
 229 1286 l 1,6,-1
 20 1286 l 1,7,-1
 20 1593 l 1,0,-1
218 -420 m 1,8,-1
 218 -122 l 1,9,-1
 592 -122 l 1,10,-1
 592 -411 l 1,11,-1
 490 -656 l 1,12,-1
 279 -656 l 1,13,-1
 345 -420 l 1,14,-1
 218 -420 l 1,8,-1
EndSplineSet
EndChar

StartChar: tcommaaccent
Encoding: 355 355 289
Width: 569
Flags: HW
LayerCount: 2
Fore
SplineSet
101 1761 m 1,0,-1
 449 1761 l 1,1,-1
 449 1442 l 1,2,-1
 513 1442 l 1,3,-1
 513 1169 l 1,4,-1
 449 1169 l 1,5,-1
 449 325 l 2,6,7
 449 306 449 306 450 295 c 128,-1,8
 451 284 451 284 454 271.5 c 128,-1,9
 457 259 457 259 465.5 253.5 c 128,-1,10
 474 248 474 248 487 248 c 128,-1,11
 500 248 500 248 513 252 c 1,12,-1
 513 8 l 1,13,14
 437 -18 437 -18 322 -18 c 0,15,16
 264 -18 264 -18 222.5 -2.5 c 128,-1,17
 181 13 181 13 158 35.5 c 128,-1,18
 135 58 135 58 121.5 93.5 c 128,-1,19
 108 129 108 129 104.5 160 c 128,-1,20
 101 191 101 191 101 231 c 2,21,-1
 101 1169 l 1,22,-1
 46 1169 l 1,23,-1
 46 1442 l 1,24,-1
 101 1442 l 1,25,-1
 101 1761 l 1,0,-1
135 -438 m 1,26,-1
 135 -140 l 1,27,-1
 509 -140 l 1,28,-1
 509 -429 l 1,29,-1
 407 -674 l 1,30,-1
 196 -674 l 1,31,-1
 262 -438 l 1,32,-1
 135 -438 l 1,26,-1
EndSplineSet
EndChar

StartChar: Tbar
Encoding: 358 358 292
Width: 811
Flags: W
LayerCount: 2
Fore
SplineSet
20 1593 m 1,0,-1
 790 1593 l 1,1,-1
 790 1286 l 1,2,-1
 581 1286 l 1,3,-1
 581 911 l 1,4,-1
 690 911 l 1,5,-1
 690 663 l 1,6,-1
 581 663 l 1,7,-1
 581 0 l 1,8,-1
 229 0 l 1,9,-1
 229 663 l 1,10,-1
 120 663 l 1,11,-1
 120 911 l 1,12,-1
 229 911 l 1,13,-1
 229 1286 l 1,14,-1
 20 1286 l 1,15,-1
 20 1593 l 1,0,-1
EndSplineSet
EndChar

StartChar: tbar
Encoding: 359 359 293
Width: 569
Flags: W
LayerCount: 2
Fore
SplineSet
101 1761 m 1,0,-1
 449 1761 l 1,1,-1
 449 1442 l 1,2,-1
 513 1442 l 1,3,-1
 513 1169 l 1,4,-1
 449 1169 l 1,5,-1
 449 937 l 1,6,-1
 569 937 l 1,7,-1
 569 689 l 1,8,-1
 449 689 l 1,9,-1
 449 325 l 2,10,11
 449 306 449 306 450 295 c 128,-1,12
 451 284 451 284 454 271.5 c 128,-1,13
 457 259 457 259 465.5 253.5 c 128,-1,14
 474 248 474 248 487 248 c 128,-1,15
 500 248 500 248 513 252 c 1,16,-1
 513 8 l 1,17,18
 437 -18 437 -18 322 -18 c 0,19,20
 264 -18 264 -18 222.5 -2.5 c 128,-1,21
 181 13 181 13 158 35.5 c 128,-1,22
 135 58 135 58 121.5 93.5 c 128,-1,23
 108 129 108 129 104.5 160 c 128,-1,24
 101 191 101 191 101 231 c 2,25,-1
 101 689 l 1,26,-1
 -1 689 l 1,27,-1
 -1 937 l 1,28,-1
 101 937 l 1,29,-1
 101 1169 l 1,30,-1
 46 1169 l 1,31,-1
 46 1442 l 1,32,-1
 101 1442 l 1,33,-1
 101 1761 l 1,0,-1
EndSplineSet
EndChar

StartChar: florin
Encoding: 402 402 317
Width: 623
Flags: W
LayerCount: 2
Fore
SplineSet
488 986 m 1,0,-1
 488 195 l 2,1,2
 488 -47 488 -47 246 -47 c 0,3,4
 119 -47 119 -47 42 -18 c 1,5,-1
 42 203 l 1,6,7
 70 198 70 198 85 198 c 0,8,9
 119 198 119 198 129.5 217.5 c 128,-1,10
 140 237 140 237 140 279 c 2,11,-1
 140 297 l 1,12,-1
 133 986 l 1,13,-1
 48 986 l 1,14,-1
 48 1263 l 1,15,-1
 133 1263 l 1,16,-1
 133 1365 l 2,17,18
 133 1607 133 1607 375 1607 c 0,19,20
 502 1607 502 1607 579 1578 c 1,21,-1
 579 1357 l 1,22,23
 551 1362 551 1362 536 1362 c 0,24,25
 502 1362 502 1362 491.5 1342.5 c 128,-1,26
 481 1323 481 1323 481 1281 c 2,27,-1
 481 1263 l 1,28,-1
 579 1263 l 1,29,-1
 579 986 l 1,30,-1
 488 986 l 1,0,-1
EndSplineSet
EndChar

StartChar: uni0237
Encoding: 567 567 354
Width: 550
Flags: W
LayerCount: 2
Fore
SplineSet
113 1500 m 1,0,-1
 471 1500 l 1,1,-1
 471 166 l 2,2,3
 471 -3 471 -3 403.5 -89.5 c 128,-1,4
 336 -176 336 -176 189 -176 c 0,5,6
 74 -176 74 -176 37 -150 c 1,7,8
 37 -150 37 -150 37 90 c 1,9,10
 53 85 53 85 70 85 c 0,11,12
 95 85 95 85 104 102.5 c 128,-1,13
 113 120 113 120 113 156 c 2,14,-1
 113 1500 l 1,0,-1
113 1567 m 1,15,-1
 113 1769 l 1,16,-1
 471 1769 l 1,17,-1
 471 1567 l 1,18,-1
 113 1567 l 1,15,-1
EndSplineSet
EndChar

StartChar: circumflex
Encoding: 710 710 355
Width: 970
Flags: W
LayerCount: 2
Fore
SplineSet
689 1994 m 1,0,-1
 930 1591 l 1,1,-1
 571 1591 l 1,2,-1
 485 1876 l 1,3,-1
 399 1591 l 1,4,-1
 40 1591 l 1,5,-1
 281 1994 l 1,6,-1
 689 1994 l 1,0,-1
EndSplineSet
EndChar

StartChar: caron
Encoding: 711 711 356
Width: 970
Flags: W
LayerCount: 2
Fore
SplineSet
689 1591 m 1,0,-1
 281 1591 l 1,1,-1
 40 1994 l 1,2,-1
 399 1994 l 1,3,-1
 485 1709 l 1,4,-1
 571 1994 l 1,5,-1
 930 1994 l 1,6,-1
 689 1591 l 1,0,-1
EndSplineSet
EndChar

StartChar: breve
Encoding: 728 728 357
Width: 1015
Flags: W
LayerCount: 2
Fore
SplineSet
503 1832 m 128,-1,1
 556 1832 556 1832 587 1859 c 128,-1,2
 618 1886 618 1886 618 1944 c 0,3,4
 618 1945 618 1945 934 1945 c 1,5,6
 936 1921 936 1921 936 1910 c 0,7,8
 936 1762 936 1762 821.5 1677 c 128,-1,9
 707 1592 707 1592 501 1592 c 0,10,11
 299 1592 299 1592 184 1675.5 c 128,-1,12
 69 1759 69 1759 69 1903 c 0,13,14
 69 1924 69 1924 72 1945 c 1,15,-1
 388 1944 l 1,16,17
 388 1886 388 1886 419 1859 c 128,-1,0
 450 1832 450 1832 503 1832 c 128,-1,1
EndSplineSet
EndChar

StartChar: dotaccent
Encoding: 729 729 358
Width: 491
Flags: W
LayerCount: 2
Fore
SplineSet
67 1592 m 1,0,-1
 67 1890 l 1,1,-1
 425 1890 l 1,2,-1
 425 1592 l 1,3,-1
 67 1592 l 1,0,-1
EndSplineSet
EndChar

StartChar: ring
Encoding: 730 730 359
Width: 804
Flags: W
LayerCount: 2
Fore
SplineSet
261 450 m 128,-1,1
 261 387 261 387 297.5 340 c 128,-1,2
 334 293 334 293 403 293 c 128,-1,3
 472 293 472 293 508.5 340 c 128,-1,4
 545 387 545 387 545 450 c 128,-1,5
 545 513 545 513 508.5 560 c 128,-1,6
 472 607 472 607 403 607 c 128,-1,7
 334 607 334 607 297.5 560 c 128,-1,0
 261 513 261 513 261 450 c 128,-1,1
49 450 m 128,-1,9
 49 606 49 606 143.5 697 c 128,-1,10
 238 788 238 788 402 788 c 128,-1,11
 566 788 566 788 661 697 c 128,-1,12
 756 606 756 606 756 450 c 128,-1,13
 756 294 756 294 661 203 c 128,-1,14
 566 112 566 112 402 112 c 128,-1,15
 238 112 238 112 143.5 203 c 128,-1,8
 49 294 49 294 49 450 c 128,-1,9
EndSplineSet
EndChar

StartChar: ogonek
Encoding: 731 731 360
Width: 1015
Flags: W
LayerCount: 2
Fore
SplineSet
852 -591 m 1,0,1
 756 -631 756 -631 654 -631 c 0,2,3
 507 -631 507 -631 406.5 -550 c 128,-1,4
 306 -469 306 -469 306 -330 c 0,5,6
 306 -149 306 -149 570 0 c 1,7,-1
 781 0 l 1,8,9
 697 -102 697 -102 659 -166 c 128,-1,10
 621 -230 621 -230 621 -279 c 0,11,12
 621 -337 621 -337 652 -364 c 128,-1,13
 683 -391 683 -391 736 -391 c 0,14,15
 786 -391 786 -391 852 -368 c 1,16,-1
 852 -591 l 1,0,1
EndSplineSet
EndChar

StartChar: tilde
Encoding: 732 732 361
Width: 1015
Flags: W
LayerCount: 2
Fore
SplineSet
370 1712 m 0,0,1
 338 1712 338 1712 312 1623 c 1,2,-1
 90 1729 l 1,3,4
 143 1859 143 1859 210.5 1923.5 c 128,-1,5
 278 1988 278 1988 370 1988 c 0,6,7
 408 1988 408 1988 452 1961 c 128,-1,8
 496 1934 496 1934 538 1907 c 128,-1,9
 580 1880 580 1880 613 1880 c 128,-1,10
 646 1880 646 1880 672 1959 c 1,11,-1
 904 1903 l 1,12,13
 849 1753 849 1753 778 1677.5 c 128,-1,14
 707 1602 707 1602 612 1602 c 0,15,16
 577 1602 577 1602 541 1619 c 128,-1,17
 505 1636 505 1636 480.5 1657 c 128,-1,18
 456 1678 456 1678 425.5 1695 c 128,-1,19
 395 1712 395 1712 370 1712 c 0,0,1
EndSplineSet
EndChar

StartChar: hungarumlaut
Encoding: 733 733 362
Width: 1300
Flags: W
LayerCount: 2
Fore
SplineSet
423 1236 m 1,0,-1
 257 1294 l 1,1,-1
 441 1773 l 1,2,-1
 671 1665 l 1,3,-1
 423 1236 l 1,0,-1
725 1236 m 1,4,-1
 559 1294 l 1,5,-1
 780 1773 l 1,6,-1
 1014 1665 l 1,7,-1
 725 1236 l 1,4,-1
EndSplineSet
EndChar

StartChar: uni030F
Encoding: 783 783 363
Width: 1300
Flags: W
LayerCount: 2
Fore
SplineSet
825 1236 m 1,0,-1
 577 1665 l 1,1,-1
 807 1773 l 1,2,-1
 991 1294 l 1,3,-1
 825 1236 l 1,0,-1
523 1236 m 1,4,-1
 234 1665 l 1,5,-1
 468 1773 l 1,6,-1
 689 1294 l 1,7,-1
 523 1236 l 1,4,-1
EndSplineSet
EndChar

StartChar: Sigma
Encoding: 931 931 364
Width: 884
Flags: W
LayerCount: 2
Fore
SplineSet
272 751 m 1,0,-1
 62 1229 l 1,1,-1
 62 1501 l 1,2,-1
 826 1501 l 1,3,-1
 826 1200 l 1,4,-1
 434 1200 l 1,5,-1
 647 751 l 1,6,-1
 434 301 l 1,7,-1
 826 301 l 1,8,-1
 826 0 l 1,9,-1
 62 0 l 1,10,-1
 62 272 l 1,11,-1
 272 751 l 1,0,-1
EndSplineSet
EndChar

StartChar: Omega
Encoding: 937 937 365
Width: 1010
Flags: W
LayerCount: 2
Fore
SplineSet
929 1189 m 2,0,-1
 929 710 l 2,1,2
 929 394 929 394 832 246 c 1,3,-1
 954 246 l 1,4,-1
 954 0 l 1,5,-1
 538 0 l 1,6,-1
 538 247 l 1,7,8
 540 248 540 248 544 250 c 0,9,10
 567 262 567 262 574.5 280 c 128,-1,11
 582 298 582 298 586 361 c 128,-1,12
 590 424 590 424 590 581 c 2,13,-1
 590 1211 l 2,14,15
 590 1247 590 1247 585 1271.5 c 128,-1,16
 580 1296 580 1296 560 1315.5 c 128,-1,17
 540 1335 540 1335 505 1335 c 128,-1,18
 470 1335 470 1335 450 1315.5 c 128,-1,19
 430 1296 430 1296 425 1271.5 c 128,-1,20
 420 1247 420 1247 420 1211 c 2,21,-1
 420 581 l 2,22,23
 420 493 420 493 421 442 c 0,24,25
 423 297 423 297 440 271 c 0,26,27
 446 261 446 261 472 247 c 1,28,-1
 472 0 l 1,29,-1
 56 0 l 1,30,-1
 56 246 l 1,31,-1
 178 246 l 1,32,33
 81 394 81 394 81 710 c 2,34,-1
 81 1189 l 2,35,36
 81 1388 81 1388 186 1497.5 c 128,-1,37
 291 1607 291 1607 505 1607 c 128,-1,38
 719 1607 719 1607 824 1497.5 c 128,-1,39
 929 1388 929 1388 929 1189 c 2,0,-1
EndSplineSet
EndChar

StartChar: pi
Encoding: 960 960 366
Width: 546
Flags: W
LayerCount: 2
Fore
SplineSet
94 0 m 1,0,-1
 94 1500 l 1,1,-1
 452 1500 l 1,2,-1
 452 0 l 1,3,-1
 94 0 l 1,0,-1
EndSplineSet
EndChar

StartChar: endash
Encoding: 8211 8211 381
Width: 646
Flags: W
LayerCount: 2
Fore
SplineSet
65 509 m 1,0,-1
 65 741 l 1,1,-1
 581 741 l 1,2,-1
 581 509 l 1,3,-1
 65 509 l 1,0,-1
EndSplineSet
EndChar

StartChar: emdash
Encoding: 8212 8212 382
Width: 1162
Flags: W
LayerCount: 2
Fore
SplineSet
65 741 m 1,0,-1
 1097 741 l 1,1,-1
 1097 509 l 1,2,-1
 65 509 l 1,3,-1
 65 741 l 1,0,-1
EndSplineSet
EndChar

StartChar: quoteleft
Encoding: 8216 8216 383
Width: 487
Flags: W
LayerCount: 2
Fore
SplineSet
431 1356 m 1,0,-1
 431 1058 l 1,1,-1
 57 1058 l 1,2,-1
 57 1347 l 1,3,-1
 159 1592 l 1,4,-1
 370 1592 l 1,5,-1
 304 1356 l 1,6,-1
 431 1356 l 1,0,-1
EndSplineSet
EndChar

StartChar: quoteright
Encoding: 8217 8217 384
Width: 477
Flags: W
LayerCount: 2
Fore
SplineSet
52 1294 m 1,0,-1
 52 1592 l 1,1,-1
 426 1592 l 1,2,-1
 426 1303 l 1,3,-1
 324 1058 l 1,4,-1
 113 1058 l 1,5,-1
 179 1294 l 1,6,-1
 52 1294 l 1,0,-1
EndSplineSet
EndChar

StartChar: quotesinglbase
Encoding: 8218 8218 385
Width: 495
Flags: W
LayerCount: 2
Fore
SplineSet
60 0 m 1,0,-1
 60 298 l 1,1,-1
 434 298 l 1,2,-1
 434 9 l 1,3,-1
 332 -236 l 1,4,-1
 121 -236 l 1,5,-1
 187 0 l 1,6,-1
 60 0 l 1,0,-1
EndSplineSet
EndChar

StartChar: quotedblleft
Encoding: 8220 8220 386
Width: 956
Flags: W
LayerCount: 2
Fore
SplineSet
900 1356 m 1,0,-1
 900 1058 l 1,1,-1
 526 1058 l 1,2,-1
 526 1347 l 1,3,-1
 628 1592 l 1,4,-1
 839 1592 l 1,5,-1
 773 1356 l 1,6,-1
 900 1356 l 1,0,-1
431 1356 m 1,7,-1
 431 1058 l 1,8,-1
 57 1058 l 1,9,-1
 57 1347 l 1,10,-1
 159 1592 l 1,11,-1
 370 1592 l 1,12,-1
 304 1356 l 1,13,-1
 431 1356 l 1,7,-1
EndSplineSet
EndChar

StartChar: quotedblright
Encoding: 8221 8221 387
Width: 951
Flags: W
LayerCount: 2
Fore
SplineSet
525 1294 m 1,0,-1
 525 1592 l 1,1,-1
 899 1592 l 1,2,-1
 899 1303 l 1,3,-1
 797 1058 l 1,4,-1
 586 1058 l 1,5,-1
 652 1294 l 1,6,-1
 525 1294 l 1,0,-1
52 1294 m 1,7,-1
 52 1592 l 1,8,-1
 426 1592 l 1,9,-1
 426 1303 l 1,10,-1
 324 1058 l 1,11,-1
 113 1058 l 1,12,-1
 179 1294 l 1,13,-1
 52 1294 l 1,7,-1
EndSplineSet
EndChar

StartChar: quotedblbase
Encoding: 8222 8222 388
Width: 967
Flags: W
LayerCount: 2
Fore
SplineSet
533 0 m 1,0,-1
 533 298 l 1,1,-1
 907 298 l 1,2,-1
 907 9 l 1,3,-1
 805 -236 l 1,4,-1
 594 -236 l 1,5,-1
 660 0 l 1,6,-1
 533 0 l 1,0,-1
60 0 m 1,7,-1
 60 298 l 1,8,-1
 434 298 l 1,9,-1
 434 9 l 1,10,-1
 332 -236 l 1,11,-1
 121 -236 l 1,12,-1
 187 0 l 1,13,-1
 60 0 l 1,7,-1
EndSplineSet
EndChar

StartChar: dagger
Encoding: 8224 8224 389
Width: 822
Flags: W
LayerCount: 2
Fore
SplineSet
594 0 m 1,0,-1
 230 0 l 1,1,-1
 230 996 l 1,2,-1
 47 996 l 1,3,-1
 47 1292 l 1,4,-1
 230 1292 l 1,5,-1
 230 1592 l 1,6,-1
 594 1592 l 1,7,-1
 594 1292 l 1,8,-1
 774 1292 l 1,9,-1
 774 996 l 1,10,-1
 594 996 l 1,11,-1
 594 0 l 1,0,-1
EndSplineSet
EndChar

StartChar: daggerdbl
Encoding: 8225 8225 390
Width: 843
Flags: W
LayerCount: 2
Fore
SplineSet
605 1592 m 1,0,-1
 605 1236 l 1,1,-1
 785 1236 l 1,2,-1
 785 940 l 1,3,-1
 605 940 l 1,4,-1
 605 646 l 1,5,-1
 785 646 l 1,6,-1
 785 350 l 1,7,-1
 605 350 l 1,8,-1
 605 0 l 1,9,-1
 241 0 l 1,10,-1
 241 350 l 1,11,-1
 58 350 l 1,12,-1
 58 646 l 1,13,-1
 241 646 l 1,14,-1
 241 940 l 1,15,-1
 58 940 l 1,16,-1
 58 1236 l 1,17,-1
 241 1236 l 1,18,-1
 241 1592 l 1,19,-1
 605 1592 l 1,0,-1
EndSplineSet
EndChar

StartChar: bullet
Encoding: 8226 8226 391
Width: 709
Flags: W
LayerCount: 2
Fore
SplineSet
124 494 m 0,0,1
 41 585 41 585 41 741 c 128,-1,2
 41 897 41 897 124.5 988 c 128,-1,3
 208 1079 208 1079 354 1079 c 128,-1,4
 500 1079 500 1079 584 988 c 128,-1,5
 668 897 668 897 668 741 c 128,-1,6
 668 585 668 585 584 494 c 128,-1,7
 500 403 500 403 354 403 c 128,-1,8
 208 403 208 403 124 494 c 0,0,1
EndSplineSet
EndChar

StartChar: ellipsis
Encoding: 8230 8230 392
Width: 1457
Flags: W
LayerCount: 2
Fore
SplineSet
59 1 m 1,0,-1
 59 299 l 1,1,-1
 417 299 l 1,2,-1
 417 1 l 1,3,-1
 59 1 l 1,0,-1
550 1 m 1,4,-1
 550 299 l 1,5,-1
 908 299 l 1,6,-1
 908 1 l 1,7,-1
 550 1 l 1,4,-1
1041 1 m 1,8,-1
 1041 299 l 1,9,-1
 1399 299 l 1,10,-1
 1399 1 l 1,11,-1
 1041 1 l 1,8,-1
EndSplineSet
EndChar

StartChar: perthousand
Encoding: 8240 8240 393
Width: 3053
Flags: W
LayerCount: 2
Fore
SplineSet
2608 -18 m 0,0,1
 2533 -18 2533 -18 2465.5 6 c 128,-1,2
 2398 30 2398 30 2341 78 c 128,-1,3
 2284 126 2284 126 2250.5 209.5 c 128,-1,4
 2217 293 2217 293 2217 402 c 2,5,-1
 2217 765 l 2,6,7
 2217 974 2217 974 2317 1078.5 c 128,-1,8
 2417 1183 2417 1183 2608 1183 c 128,-1,9
 2799 1183 2799 1183 2899.5 1078.5 c 128,-1,10
 3000 974 3000 974 3000 765 c 2,11,-1
 3000 402 l 2,12,13
 3000 293 3000 293 2966.5 209.5 c 128,-1,14
 2933 126 2933 126 2876 78 c 128,-1,15
 2819 30 2819 30 2751.5 6 c 128,-1,16
 2684 -18 2684 -18 2608 -18 c 0,0,1
2701 343 m 2,17,-1
 2701 829 l 2,18,19
 2701 852 2701 852 2700.5 864 c 128,-1,20
 2700 876 2700 876 2695 896.5 c 128,-1,21
 2690 917 2690 917 2681 928 c 128,-1,22
 2672 939 2672 939 2653.5 947.5 c 128,-1,23
 2635 956 2635 956 2608 956 c 0,24,25
 2582 956 2582 956 2563.5 947.5 c 128,-1,26
 2545 939 2545 939 2535.5 928 c 128,-1,27
 2526 917 2526 917 2521 897 c 128,-1,28
 2516 877 2516 877 2515.5 864 c 128,-1,29
 2515 851 2515 851 2515 829 c 2,30,-1
 2515 343 l 2,31,32
 2515 296 2515 296 2544.5 270 c 128,-1,33
 2574 244 2574 244 2608 244 c 128,-1,34
 2642 244 2642 244 2671.5 270 c 128,-1,35
 2701 296 2701 296 2701 343 c 2,17,-1
994 0 m 1,36,-1
 671 0 l 1,37,-1
 1211 1767 l 1,38,-1
 1535 1767 l 1,39,-1
 994 0 l 1,36,-1
444 528 m 0,40,41
 369 528 369 528 301.5 552 c 128,-1,42
 234 576 234 576 177 624 c 128,-1,43
 120 672 120 672 86.5 755.5 c 128,-1,44
 53 839 53 839 53 948 c 2,45,-1
 53 1311 l 2,46,47
 53 1520 53 1520 153 1624.5 c 128,-1,48
 253 1729 253 1729 444 1729 c 128,-1,49
 635 1729 635 1729 735.5 1624.5 c 128,-1,50
 836 1520 836 1520 836 1311 c 2,51,-1
 836 948 l 2,52,53
 836 839 836 839 802.5 755.5 c 128,-1,54
 769 672 769 672 712 624 c 128,-1,55
 655 576 655 576 587.5 552 c 128,-1,56
 520 528 520 528 444 528 c 0,40,41
537 889 m 2,57,-1
 537 1375 l 2,58,59
 537 1398 537 1398 536.5 1410 c 128,-1,60
 536 1422 536 1422 531 1442.5 c 128,-1,61
 526 1463 526 1463 517 1474 c 128,-1,62
 508 1485 508 1485 489.5 1493.5 c 128,-1,63
 471 1502 471 1502 444 1502 c 0,64,65
 418 1502 418 1502 399.5 1493.5 c 128,-1,66
 381 1485 381 1485 371.5 1474 c 128,-1,67
 362 1463 362 1463 357 1443 c 128,-1,68
 352 1423 352 1423 351.5 1410 c 128,-1,69
 351 1397 351 1397 351 1375 c 2,70,-1
 351 889 l 2,71,72
 351 842 351 842 380.5 816 c 128,-1,73
 410 790 410 790 444 790 c 128,-1,74
 478 790 478 790 507.5 816 c 128,-1,75
 537 842 537 842 537 889 c 2,57,-1
1741 -18 m 0,76,77
 1666 -18 1666 -18 1598.5 6 c 128,-1,78
 1531 30 1531 30 1474 78 c 128,-1,79
 1417 126 1417 126 1383.5 209.5 c 128,-1,80
 1350 293 1350 293 1350 402 c 2,81,-1
 1350 765 l 2,82,83
 1350 974 1350 974 1450 1078.5 c 128,-1,84
 1550 1183 1550 1183 1741 1183 c 128,-1,85
 1932 1183 1932 1183 2032.5 1078.5 c 128,-1,86
 2133 974 2133 974 2133 765 c 2,87,-1
 2133 402 l 2,88,89
 2133 293 2133 293 2099.5 209.5 c 128,-1,90
 2066 126 2066 126 2009 78 c 128,-1,91
 1952 30 1952 30 1884.5 6 c 128,-1,92
 1817 -18 1817 -18 1741 -18 c 0,76,77
1834 343 m 2,93,-1
 1834 829 l 2,94,95
 1834 852 1834 852 1833.5 864 c 128,-1,96
 1833 876 1833 876 1828 896.5 c 128,-1,97
 1823 917 1823 917 1814 928 c 128,-1,98
 1805 939 1805 939 1786.5 947.5 c 128,-1,99
 1768 956 1768 956 1741 956 c 0,100,101
 1715 956 1715 956 1696.5 947.5 c 128,-1,102
 1678 939 1678 939 1668.5 928 c 128,-1,103
 1659 917 1659 917 1654 897 c 128,-1,104
 1649 877 1649 877 1648.5 864 c 128,-1,105
 1648 851 1648 851 1648 829 c 2,106,-1
 1648 343 l 2,107,108
 1648 296 1648 296 1677.5 270 c 128,-1,109
 1707 244 1707 244 1741 244 c 128,-1,110
 1775 244 1775 244 1804.5 270 c 128,-1,111
 1834 296 1834 296 1834 343 c 2,93,-1
EndSplineSet
EndChar

StartChar: guilsinglleft
Encoding: 8249 8249 394
Width: 640
Flags: W
LayerCount: 2
Fore
SplineSet
46 545 m 1,0,-1
 46 959 l 1,1,-1
 556 1230 l 1,2,-1
 556 871 l 1,3,-1
 244 749 l 1,4,-1
 556 618 l 1,5,-1
 556 260 l 1,6,-1
 46 545 l 1,0,-1
EndSplineSet
EndChar

StartChar: guilsinglright
Encoding: 8250 8250 395
Width: 639
Flags: W
LayerCount: 2
Fore
SplineSet
593 545 m 1,0,-1
 83 260 l 1,1,-1
 83 618 l 1,2,-1
 395 749 l 1,3,-1
 83 871 l 1,4,-1
 83 1230 l 1,5,-1
 593 959 l 1,6,-1
 593 545 l 1,0,-1
EndSplineSet
EndChar

StartChar: fraction
Encoding: 8260 8260 396
Width: 710
Flags: W
LayerCount: 2
Fore
SplineSet
272 0 m 1,0,-1
 -11 0 l 1,1,-1
 479 1767 l 1,2,-1
 763 1767 l 1,3,-1
 272 0 l 1,0,-1
EndSplineSet
EndChar

StartChar: uni2074
Encoding: 8308 8308 397
Width: 638
Flags: W
LayerCount: 2
Fore
SplineSet
582 973 m 1,0,-1
 582 802 l 1,1,-1
 543 802 l 1,2,-1
 543 650 l 1,3,-1
 336 650 l 1,4,-1
 336 802 l 1,5,-1
 33 802 l 1,6,-1
 33 951 l 1,7,-1
 220 1592 l 1,8,-1
 543 1592 l 1,9,-1
 543 973 l 1,10,-1
 582 973 l 1,0,-1
226 973 m 1,11,-1
 336 973 l 1,12,-1
 336 1378 l 1,13,-1
 226 973 l 1,11,-1
EndSplineSet
EndChar

StartChar: Euro
Encoding: 8364 8364 398
Width: 1108
Flags: W
LayerCount: 2
Fore
SplineSet
54 942 m 1,0,-1
 54 1166 l 1,1,-1
 154 1166 l 1,2,-1
 154 1231 l 2,3,4
 154 1480 154 1480 273 1604.5 c 128,-1,5
 392 1729 392 1729 620 1729 c 0,6,7
 831 1729 831 1729 941.5 1608 c 128,-1,8
 1052 1487 1052 1487 1056 1245 c 1,9,-1
 707 1246 l 1,10,-1
 707 1273 l 2,11,12
 707 1299 707 1299 706.5 1314.5 c 128,-1,13
 706 1330 706 1330 701 1353.5 c 128,-1,14
 696 1377 696 1377 687.5 1390.5 c 128,-1,15
 679 1404 679 1404 662 1414 c 128,-1,16
 645 1424 645 1424 620 1424 c 128,-1,17
 595 1424 595 1424 578 1414 c 128,-1,18
 561 1404 561 1404 552.5 1390.5 c 128,-1,19
 544 1377 544 1377 539 1353.5 c 128,-1,20
 534 1330 534 1330 533.5 1314.5 c 128,-1,21
 533 1299 533 1299 533 1273 c 2,22,-1
 533 1166 l 1,23,-1
 848 1166 l 1,24,-1
 848 942 l 1,25,-1
 533 942 l 1,26,-1
 533 791 l 1,27,-1
 848 791 l 1,28,-1
 848 559 l 1,29,-1
 533 559 l 1,30,-1
 533 447 l 2,31,32
 533 391 533 391 560.5 360.5 c 128,-1,33
 588 330 588 330 620 330 c 128,-1,34
 652 330 652 330 679.5 360.5 c 128,-1,35
 707 391 707 391 707 447 c 2,36,-1
 707 469 l 1,37,-1
 1056 475 l 1,38,39
 1055 347 1055 347 1017 249 c 128,-1,40
 979 151 979 151 916 94.5 c 128,-1,41
 853 38 853 38 778 10 c 128,-1,42
 703 -18 703 -18 620 -18 c 0,43,44
 549 -18 549 -18 483.5 -1 c 128,-1,45
 418 16 418 16 357.5 54.5 c 128,-1,46
 297 93 297 93 252 149.5 c 128,-1,47
 207 206 207 206 180.5 291.5 c 128,-1,48
 154 377 154 377 154 482 c 2,49,-1
 154 559 l 1,50,-1
 54 559 l 1,51,-1
 54 791 l 1,52,-1
 154 791 l 1,53,-1
 154 942 l 1,54,-1
 54 942 l 1,0,-1
EndSplineSet
EndChar

StartChar: trademark
Encoding: 8482 8482 399
Width: 1910
Flags: W
LayerCount: 2
Fore
SplineSet
67 1593 m 1,0,-1
 651 1593 l 1,1,-1
 651 1361 l 1,2,-1
 492 1361 l 1,3,-1
 492 386 l 1,4,-1
 225 386 l 1,5,-1
 225 1361 l 1,6,-1
 67 1361 l 1,7,-1
 67 1593 l 1,0,-1
1403 386 m 1,8,-1
 1163 386 l 1,9,-1
 1016 1257 l 1,10,-1
 1016 386 l 1,11,-1
 760 386 l 1,12,-1
 760 1593 l 1,13,-1
 1166 1593 l 1,14,-1
 1279 963 l 1,15,-1
 1391 1593 l 1,16,-1
 1800 1593 l 1,17,-1
 1800 386 l 1,18,-1
 1541 386 l 1,19,-1
 1541 1257 l 1,20,-1
 1403 386 l 1,8,-1
EndSplineSet
EndChar

StartChar: partialdiff
Encoding: 8706 8706 400
Width: 1102
Flags: W
LayerCount: 2
Fore
SplineSet
295 1376 m 1,0,1
 295 1376 295 1376 241 1607 c 1,2,3
 472 1681 472 1681 631 1681 c 0,4,5
 850 1681 850 1681 946 1548 c 128,-1,6
 1042 1415 1042 1415 1042 1159 c 0,7,8
 1042 1064 1042 1064 992 567 c 0,9,10
 984 489 984 489 974.5 429.5 c 128,-1,11
 965 370 965 370 946 306 c 128,-1,12
 927 242 927 242 901.5 196 c 128,-1,13
 876 150 876 150 836 107 c 128,-1,14
 796 64 796 64 744 37.5 c 128,-1,15
 692 11 692 11 619.5 -5 c 128,-1,16
 547 -21 547 -21 458 -21 c 0,17,18
 363 -21 363 -21 291 1 c 128,-1,19
 219 23 219 23 173.5 60.5 c 128,-1,20
 128 98 128 98 99.5 154.5 c 128,-1,21
 71 211 71 211 60 273.5 c 128,-1,22
 49 336 49 336 49 413 c 0,23,24
 49 482 49 482 56 550.5 c 128,-1,25
 63 619 63 619 78.5 698 c 128,-1,26
 94 777 94 777 125 844 c 128,-1,27
 156 911 156 911 199 966.5 c 128,-1,28
 242 1022 242 1022 308.5 1054 c 128,-1,29
 375 1086 375 1086 457 1086 c 0,30,31
 551 1086 551 1086 666 1047 c 1,32,33
 677 1116 677 1116 677 1164 c 0,34,35
 677 1301 677 1301 631.5 1358 c 128,-1,36
 586 1415 586 1415 519 1415 c 0,37,38
 455 1415 455 1415 392.5 1402.5 c 128,-1,39
 330 1390 330 1390 295 1376 c 1,0,1
603 419 m 2,40,-1
 634 759 l 1,41,42
 585 794 585 794 546 794 c 0,43,44
 467 794 467 794 452 645 c 2,45,-1
 435 475 l 2,46,47
 429 421 429 421 429 391 c 0,48,49
 429 345 429 345 444.5 319 c 128,-1,50
 460 293 460 293 502 293 c 0,51,52
 542 293 542 293 569.5 323.5 c 128,-1,53
 597 354 597 354 603 419 c 2,40,-1
EndSplineSet
EndChar

StartChar: uni2206
Encoding: 8710 8710 401
Width: 946
Flags: W
LayerCount: 2
Fore
SplineSet
720 1353 m 1,0,-1
 899 0 l 1,1,-1
 46 0 l 1,2,-1
 229 1353 l 1,3,-1
 720 1353 l 1,0,-1
487 1044 m 1,4,-1
 455 1044 l 1,5,-1
 388 230 l 1,6,-1
 554 230 l 1,7,-1
 487 1044 l 1,4,-1
EndSplineSet
EndChar

StartChar: product
Encoding: 8719 8719 402
Width: 1060
Flags: W
LayerCount: 2
Fore
SplineSet
963 1593 m 1,0,-1
 963 0 l 1,1,-1
 613 0 l 1,2,-1
 613 1292 l 1,3,-1
 447 1292 l 1,4,-1
 447 0 l 1,5,-1
 97 0 l 1,6,-1
 97 1593 l 1,7,-1
 963 1593 l 1,0,-1
EndSplineSet
EndChar

StartChar: summation
Encoding: 8721 8721 403
Width: 884
Flags: W
LayerCount: 2
Fore
SplineSet
272 751 m 1,0,-1
 62 1229 l 1,1,-1
 62 1501 l 1,2,-1
 826 1501 l 1,3,-1
 826 1200 l 1,4,-1
 434 1200 l 1,5,-1
 647 751 l 1,6,-1
 434 301 l 1,7,-1
 826 301 l 1,8,-1
 826 0 l 1,9,-1
 62 0 l 1,10,-1
 62 272 l 1,11,-1
 272 751 l 1,0,-1
EndSplineSet
EndChar

StartChar: minus
Encoding: 8722 8722 404
Width: 654
Flags: W
LayerCount: 2
Fore
SplineSet
69 509 m 1,0,-1
 69 741 l 1,1,-1
 585 741 l 1,2,-1
 585 509 l 1,3,-1
 69 509 l 1,0,-1
EndSplineSet
EndChar

StartChar: radical
Encoding: 8730 8730 405
Width: 1367
Flags: W
LayerCount: 2
Fore
SplineSet
522 1501 m 1,0,-1
 1353 1501 l 1,1,-1
 1353 1269 l 1,2,-1
 829 1269 l 1,3,-1
 623 0 l 1,4,-1
 219 0 l 1,5,-1
 0 741 l 1,6,-1
 269 741 l 1,7,-1
 383 338 l 1,8,-1
 520 1500 l 1,9,-1
 522 1501 l 1,0,-1
EndSplineSet
EndChar

StartChar: infinity
Encoding: 8734 8734 406
Width: 1181
Flags: W
LayerCount: 2
Fore
SplineSet
584 885 m 1,0,1
 710 1041 710 1041 857 1041 c 0,2,3
 888 1041 888 1041 919.5 1035.5 c 128,-1,4
 951 1030 951 1030 990 1010.5 c 128,-1,5
 1029 991 1029 991 1058 960.5 c 128,-1,6
 1087 930 1087 930 1107 874 c 128,-1,7
 1127 818 1127 818 1127 744 c 0,8,9
 1127 668 1127 668 1107 610.5 c 128,-1,10
 1087 553 1087 553 1058 521.5 c 128,-1,11
 1029 490 1029 490 990 470.5 c 128,-1,12
 951 451 951 451 919.5 445 c 128,-1,13
 888 439 888 439 857 439 c 0,14,15
 770 439 770 439 701 481.5 c 128,-1,16
 632 524 632 524 584 585 c 1,17,18
 536 531 536 531 464 491.5 c 128,-1,19
 392 452 392 452 315 452 c 0,20,21
 284 452 284 452 253.5 457.5 c 128,-1,22
 223 463 223 463 185 481.5 c 128,-1,23
 147 500 147 500 119 530 c 128,-1,24
 91 560 91 560 72 615.5 c 128,-1,25
 53 671 53 671 53 744 c 0,26,27
 53 815 53 815 72.5 868.5 c 128,-1,28
 92 922 92 922 120 951.5 c 128,-1,29
 148 981 148 981 185.5 999 c 128,-1,30
 223 1017 223 1017 253.5 1022.5 c 128,-1,31
 284 1028 284 1028 315 1028 c 0,32,33
 457 1028 457 1028 584 885 c 1,0,1
798 669 m 0,34,35
 893 669 893 669 893 740 c 128,-1,36
 893 811 893 811 798 811 c 0,37,38
 722 811 722 811 646 740 c 1,39,40
 717 669 717 669 798 669 c 0,34,35
522 740 m 1,41,42
 450 810 450 810 378 810 c 0,43,44
 289 810 289 810 289 740 c 0,45,46
 289 669 289 669 378 669 c 0,47,48
 448 669 448 669 522 740 c 1,41,42
EndSplineSet
EndChar

StartChar: integral
Encoding: 8747 8747 407
Width: 605
Flags: W
LayerCount: 2
Fore
SplineSet
474 195 m 2,0,1
 474 145 474 145 465 106.5 c 128,-1,2
 456 68 456 68 432.5 31 c 128,-1,3
 409 -6 409 -6 360 -26.5 c 128,-1,4
 311 -47 311 -47 239 -47 c 0,5,6
 112 -47 112 -47 35 -18 c 1,7,-1
 35 203 l 1,8,9
 63 198 63 198 78 198 c 0,10,11
 96 198 96 198 106 203 c 128,-1,12
 116 208 116 208 120.5 221.5 c 128,-1,13
 125 235 125 235 125.5 245 c 128,-1,14
 126 255 126 255 126 279 c 2,15,16
 126 279 126 279 126 1365 c 0,17,18
 126 1418 126 1418 136.5 1457.5 c 128,-1,19
 147 1497 147 1497 171.5 1533 c 128,-1,20
 196 1569 196 1569 246 1588 c 128,-1,21
 296 1607 296 1607 368 1607 c 0,22,23
 495 1607 495 1607 572 1578 c 1,24,-1
 572 1357 l 1,25,26
 544 1362 544 1362 529 1362 c 0,27,28
 495 1362 495 1362 484.5 1342.5 c 128,-1,29
 474 1323 474 1323 474 1281 c 2,30,-1
 474 195 l 2,0,1
EndSplineSet
EndChar

StartChar: approxequal
Encoding: 8776 8776 408
Width: 1015
Flags: W
LayerCount: 2
Fore
SplineSet
360 886 m 0,0,1
 316 886 316 886 282 807 c 1,2,-1
 40 923 l 1,3,4
 161 1222 161 1222 370 1222 c 0,5,6
 415 1222 415 1222 466.5 1195 c 128,-1,7
 518 1168 518 1168 566.5 1141 c 128,-1,8
 615 1114 615 1114 653 1114 c 0,9,10
 697 1114 697 1114 732 1193 c 1,11,-1
 974 1077 l 1,12,13
 851 776 851 776 642 776 c 0,14,15
 601 776 601 776 559.5 793 c 128,-1,16
 518 810 518 810 489 831 c 128,-1,17
 460 852 460 852 424.5 869 c 128,-1,18
 389 886 389 886 360 886 c 0,0,1
EndSplineSet
EndChar

StartChar: notequal
Encoding: 8800 8800 409
Width: 690
Flags: W
LayerCount: 2
Fore
SplineSet
88 509 m 1,0,-1
 88 741 l 1,1,-1
 602 741 l 1,2,-1
 602 509 l 1,3,-1
 88 509 l 1,0,-1
88 892 m 1,4,-1
 88 1116 l 1,5,-1
 602 1116 l 1,6,-1
 602 892 l 1,7,-1
 88 892 l 1,4,-1
EndSplineSet
EndChar

StartChar: lessequal
Encoding: 8804 8804 410
Width: 707
Flags: W
LayerCount: 2
Fore
SplineSet
57 637 m 1,0,-1
 57 1051 l 1,1,-1
 627 1392 l 1,2,-1
 627 1033 l 1,3,-1
 285 841 l 1,4,-1
 627 650 l 1,5,-1
 627 292 l 1,6,-1
 57 637 l 1,0,-1
84 0 m 1,7,-1
 84 232 l 1,8,-1
 600 232 l 1,9,-1
 600 0 l 1,10,-1
 84 0 l 1,7,-1
EndSplineSet
EndChar

StartChar: greaterequal
Encoding: 8805 8805 411
Width: 707
Flags: W
LayerCount: 2
Fore
SplineSet
650 637 m 1,0,-1
 80 292 l 1,1,-1
 80 650 l 1,2,-1
 422 841 l 1,3,-1
 80 1033 l 1,4,-1
 80 1392 l 1,5,-1
 650 1051 l 1,6,-1
 650 637 l 1,0,-1
107 0 m 1,7,-1
 107 232 l 1,8,-1
 623 232 l 1,9,-1
 623 0 l 1,10,-1
 107 0 l 1,7,-1
EndSplineSet
EndChar

StartChar: lozenge
Encoding: 9674 9674 412
Width: 945
Flags: W
LayerCount: 2
Fore
SplineSet
320 713 m 1,0,-1
 454 179 l 1,1,-1
 486 179 l 1,2,-1
 620 713 l 1,3,-1
 486 1247 l 1,4,-1
 454 1247 l 1,5,-1
 320 713 l 1,0,-1
45 713 m 1,6,-1
 228 1436 l 1,7,-1
 719 1436 l 1,8,-1
 898 713 l 1,9,-1
 719 0 l 1,10,-1
 228 0 l 1,11,-1
 45 713 l 1,6,-1
EndSplineSet
EndChar

StartChar: uniFB01
Encoding: 64257 64257 414
Width: 1112
Flags: W
LayerCount: 2
Fore
SplineSet
107 0 m 1,0,-1
 107 1161 l 1,1,-1
 42 1161 l 1,2,3
 42 1208 42 1208 46 1434 c 1,4,-1
 107 1434 l 1,5,-1
 107 1536 l 2,6,7
 107 1778 107 1778 349 1778 c 0,8,9
 464 1778 464 1778 533 1749 c 1,10,-1
 533 1528 l 1,11,12
 511 1533 511 1533 500 1533 c 0,13,14
 472 1533 472 1533 463.5 1514 c 128,-1,15
 455 1495 455 1495 455 1453 c 2,16,-1
 455 1434 l 1,17,-1
 533 1434 l 1,18,-1
 533 1157 l 1,19,-1
 462 1157 l 1,20,-1
 462 0 l 1,21,-1
 107 0 l 1,0,-1
670 0 m 1,22,-1
 670 1500 l 1,23,-1
 1028 1500 l 1,24,-1
 1028 0 l 1,25,-1
 670 0 l 1,22,-1
670 1567 m 1,26,-1
 670 1769 l 1,27,-1
 1028 1769 l 1,28,-1
 1028 1567 l 1,29,-1
 670 1567 l 1,26,-1
EndSplineSet
EndChar

StartChar: uniFB02
Encoding: 64258 64258 415
Width: 1125
Flags: W
LayerCount: 2
Fore
SplineSet
107 0 m 1,0,-1
 107 1161 l 1,1,-1
 42 1161 l 1,2,3
 42 1208 42 1208 46 1434 c 1,4,-1
 107 1434 l 1,5,-1
 107 1536 l 2,6,7
 107 1778 107 1778 349 1778 c 0,8,9
 464 1778 464 1778 533 1749 c 1,10,-1
 533 1528 l 1,11,12
 511 1533 511 1533 500 1533 c 0,13,14
 472 1533 472 1533 463.5 1514 c 128,-1,15
 455 1495 455 1495 455 1453 c 2,16,-1
 455 1434 l 1,17,-1
 533 1434 l 1,18,-1
 533 1157 l 1,19,-1
 462 1157 l 1,20,-1
 462 0 l 1,21,-1
 107 0 l 1,0,-1
1041 0 m 1,22,-1
 677 0 l 1,23,-1
 677 1767 l 1,24,-1
 1041 1767 l 1,25,-1
 1041 0 l 1,22,-1
EndSplineSet
EndChar

StartChar: Delta
Encoding: 65541 -1 418
Width: 945
Flags: W
LayerCount: 2
Fore
SplineSet
320 457 m 1,0,-1
 620 457 l 1,1,-1
 486 1247 l 1,2,-1
 454 1247 l 1,3,-1
 320 457 l 1,0,-1
15 267 m 1,4,-1
 228 1436 l 1,5,-1
 719 1436 l 1,6,-1
 928 267 l 1,7,-1
 15 267 l 1,4,-1
EndSplineSet
EndChar

